<svg xmlns="http://www.w3.org/2000/svg" width="78.286" height="78.408" viewBox="0 0 78.286 78.408"><defs><style>.a{fill:#93c72c;}.b{fill:#fff;}</style></defs><g transform="translate(-13.034 -12.2)"><g transform="translate(43.94 12.2)"><path class="a" d="M290.2,156.91a5.794,5.794,0,0,1-3.636,1.477,2.982,2.982,0,0,1-1.177-.277,7.855,7.855,0,0,1-1.42-.958,20.2,20.2,0,0,1-2.355-2.412c-.162-.185-.312-.369-.462-.554a1.976,1.976,0,0,1-.15-.312c.15-.058.254-.127.381-.162a23.448,23.448,0,0,1,4.19-.75,5.644,5.644,0,0,1,1.593.1,2.639,2.639,0,0,1,1.3.681,5.11,5.11,0,0,1,1.223,1.7A4.678,4.678,0,0,1,290.2,156.91Z" transform="translate(-280.977 -136.7)"/><path class="a" d="M465.394,12.2a1.34,1.34,0,0,1,.208.231,19.07,19.07,0,0,1,2.031,3.8,9.443,9.443,0,0,1,.381,1.385,2.775,2.775,0,0,1-.392,2.02,6.61,6.61,0,0,1-1.928,2.031.507.507,0,0,1-.658,0,7.028,7.028,0,0,1-1.928-2.031,3.038,3.038,0,0,1-.369-2.239,9.3,9.3,0,0,1,.646-1.881,23.734,23.734,0,0,1,1.616-2.9C465.105,12.454,465.175,12.281,465.394,12.2Z" transform="translate(-441.675 -12.2)"/><path class="a" d="M565.072,53a1.783,1.783,0,0,1,.069.427,22.359,22.359,0,0,1-.646,4.374,8.112,8.112,0,0,1-.312.889,3,3,0,0,1-1.466,1.593.087.087,0,0,1-.046.023,6.7,6.7,0,0,1-2.966.566.41.41,0,0,1-.416-.3,6.562,6.562,0,0,1-.4-2.828,3.141,3.141,0,0,1,1.3-2.285,13.9,13.9,0,0,1,1.293-.854,21.93,21.93,0,0,1,3.163-1.477A1.742,1.742,0,0,1,565.072,53Z" transform="translate(-526.763 -48.291)"/><path class="a" d="M621.053,153.748a3.13,3.13,0,0,1-.185.312,18.913,18.913,0,0,1-3.036,3.116,10.08,10.08,0,0,1-1.108.716,2.7,2.7,0,0,1-1.824.277,6.4,6.4,0,0,1-2.782-1.281.406.406,0,0,1-.173-.473,7.026,7.026,0,0,1,1.247-2.447,3.255,3.255,0,0,1,2.516-1.2,11.4,11.4,0,0,1,2.424.2c.854.162,1.7.358,2.539.542A.588.588,0,0,1,621.053,153.748Z" transform="translate(-573.707 -136.538)"/><path class="a" d="M359,53.5a1.351,1.351,0,0,1,.3.046,18.5,18.5,0,0,1,4.19,2.1,5.634,5.634,0,0,1,.8.681,2.641,2.641,0,0,1,.82,1.766,6.69,6.69,0,0,1-.323,2.782,1.543,1.543,0,0,1-.081.208.341.341,0,0,1-.346.231c-.3,0-.589.012-.889-.012a6.64,6.64,0,0,1-1.824-.416,3.115,3.115,0,0,1-1.87-1.847,10.119,10.119,0,0,1-.623-2.458c-.115-.843-.185-1.685-.266-2.528A.824.824,0,0,1,359,53.5Z" transform="translate(-349.875 -48.733)"/><path class="a" d="M621.14,259.4a2.152,2.152,0,0,1-.346.162,16.793,16.793,0,0,1-5.125.739c-.092,0-.185-.012-.277-.012a2.729,2.729,0,0,1-1.7-.727,4.528,4.528,0,0,1-.6-.646,6.933,6.933,0,0,1-1.073-2.17.4.4,0,0,1,.127-.5,5.913,5.913,0,0,1,3.266-1.374,2.557,2.557,0,0,1,1.235.254,6.483,6.483,0,0,1,1.27.785,19.957,19.957,0,0,1,3.07,3.174C621.036,259.167,621.059,259.259,621.14,259.4Z" transform="translate(-573.759 -226.861)"/><path class="a" d="M280.8,259.842c.115-.173.162-.289.242-.381a19.6,19.6,0,0,1,2.747-2.874c.358-.289.739-.554,1.12-.808a3.041,3.041,0,0,1,2.343-.381,6.6,6.6,0,0,1,2.574,1.247.384.384,0,0,1,.15.485,6.313,6.313,0,0,1-1.581,2.759,3.133,3.133,0,0,1-1.662.808,7.735,7.735,0,0,1-2.308-.035,20.4,20.4,0,0,1-3.093-.623C281.181,259.98,281.031,259.922,280.8,259.842Z" transform="translate(-280.8 -227.258)"/><path class="a" d="M438.467,96.8a.648.648,0,0,1,.485.231,12.078,12.078,0,0,1,1.777,1.743,7.678,7.678,0,0,1,.577.877,1.859,1.859,0,0,1,.173,1.293,4.3,4.3,0,0,1-.785,1.7.422.422,0,0,1-.531.162,4.4,4.4,0,0,1-1.547-.843,1.955,1.955,0,0,1-.681-1.166,3.893,3.893,0,0,1-.058-1.1,14.251,14.251,0,0,1,.45-2.5C438.363,97.054,438.421,96.939,438.467,96.8Z" transform="translate(-419.734 -87.035)"/><path class="a" d="M379.682,149.885a3.837,3.837,0,0,1-2.47.265,1.942,1.942,0,0,1-.854-.5,4.677,4.677,0,0,1-.762-1.016,14.221,14.221,0,0,1-1.039-2.2,1.376,1.376,0,0,1-.058-.3.82.82,0,0,1,.566-.069,13.636,13.636,0,0,1,2.355.346,7.784,7.784,0,0,1,.993.346,1.666,1.666,0,0,1,.785.681A3.951,3.951,0,0,1,379.682,149.885Z" transform="translate(-363.685 -130.598)"/><path class="a" d="M374.7,277.03a4.085,4.085,0,0,1,.1-.439,11.935,11.935,0,0,1,1.131-2.274,6.039,6.039,0,0,1,.577-.739,1.984,1.984,0,0,1,1.316-.635,4.068,4.068,0,0,1,1.743.231.427.427,0,0,1,.323.45,4.32,4.32,0,0,1-.242,1.581,2.151,2.151,0,0,1-1.258,1.316,9.2,9.2,0,0,1-2.147.5c-.289.046-.589.069-.877.092A1.168,1.168,0,0,1,374.7,277.03Z" transform="translate(-363.862 -242.831)"/><path class="a" d="M568.8,213.709a.422.422,0,0,1,.035-.162,3.982,3.982,0,0,1,1.639-1.512,1.671,1.671,0,0,1,1.131-.15c.289.069.577.127.854.219a12.864,12.864,0,0,1,2.585,1.362.791.791,0,0,1,.162.173,1.061,1.061,0,0,1-.15.162,12.37,12.37,0,0,1-2.528,1.35,6.287,6.287,0,0,1-.8.231,1.766,1.766,0,0,1-1.143-.092A3.629,3.629,0,0,1,568.8,213.709Z" transform="translate(-535.559 -188.801)"/><path class="a" d="M557.762,146.189a2.049,2.049,0,0,1-.069.346,14.181,14.181,0,0,1-1.166,2.378c-.115.173-.231.323-.358.485a2.18,2.18,0,0,1-2.1.843A7.007,7.007,0,0,1,552.88,150c-.266-.069-.335-.185-.312-.45a6.589,6.589,0,0,1,.208-1.42,2.175,2.175,0,0,1,1.316-1.466,4.656,4.656,0,0,1,.519-.185,12.041,12.041,0,0,1,2.724-.4A.491.491,0,0,1,557.762,146.189Z" transform="translate(-521.197 -130.619)"/><path class="a" d="M347.9,214a1.837,1.837,0,0,1,.231-.219,14.12,14.12,0,0,1,2.435-1.3,3.441,3.441,0,0,1,1.235-.277,2,2,0,0,1,1.062.277,4.015,4.015,0,0,1,1.293,1.2c.185.277.185.369-.012.646a4.107,4.107,0,0,1-1.247,1.154,2.125,2.125,0,0,1-1.651.231,5.786,5.786,0,0,1-.635-.2,14.758,14.758,0,0,1-2.493-1.327C348.062,214.151,348.015,214.093,347.9,214Z" transform="translate(-340.155 -189.116)"/><path class="a" d="M558.076,276.882a1.85,1.85,0,0,1-.381.046,16.242,16.242,0,0,1-2.355-.312,9.346,9.346,0,0,1-1.1-.358,1.954,1.954,0,0,1-1.085-1.12,4.028,4.028,0,0,1-.289-1.731.457.457,0,0,1,.335-.45,4.189,4.189,0,0,1,1.847-.2,1.854,1.854,0,0,1,1.2.623,7.061,7.061,0,0,1,.519.646A12.3,12.3,0,0,1,558,276.5,3.462,3.462,0,0,1,558.076,276.882Z" transform="translate(-521.465 -242.66)"/><path class="a" d="M505.758,96.3a.928.928,0,0,1,.139.242,12.042,12.042,0,0,1,.5,3.266,2.228,2.228,0,0,1-1.062,1.951,4.534,4.534,0,0,1-1.235.6.393.393,0,0,1-.485-.139,3.608,3.608,0,0,1-.819-2.239,1.685,1.685,0,0,1,.242-.889,8.391,8.391,0,0,1,.635-.9,12.654,12.654,0,0,1,1.754-1.674A2.81,2.81,0,0,1,505.758,96.3Z" transform="translate(-477.168 -86.593)"/></g><g transform="translate(61.882 30.286)"><path class="b" d="M442.01,206.148c.127-.173.231-.289.323-.427a10.322,10.322,0,0,1,2.632-2.666,4.17,4.17,0,0,1,.612-.381,1.524,1.524,0,0,1,1.685,2.516,4.024,4.024,0,0,1-.45.323,7.394,7.394,0,0,0-3.174,5.229,8.551,8.551,0,0,0-.081,1.212c-.012,1.57,0,3.139,0,4.709a3.561,3.561,0,0,1-.012.5,1.549,1.549,0,0,1-1.5,1.431,1.493,1.493,0,0,1-1.535-1.431c0-.185-.012-.369-.012-.554V212.45a11.747,11.747,0,0,0-.162-2.2,7.471,7.471,0,0,0-2.978-4.64c-.15-.115-.3-.208-.45-.323a1.509,1.509,0,0,1-.427-2.055,1.492,1.492,0,0,1,2.078-.5,9.815,9.815,0,0,1,1.374,1.016,10.191,10.191,0,0,1,1.731,1.928C441.756,205.824,441.871,205.963,442.01,206.148Z" transform="translate(-436.244 -198.621)"/><path class="b" d="M467.5,171.062a2.164,2.164,0,0,1,4.328-.023,2.164,2.164,0,0,1-4.328.023Z" transform="translate(-463.888 -168.891)"/></g><g transform="translate(13.034 48.683)"><g transform="translate(0)"><path class="b" d="M149.248,366.955c-.035.219-.058.381-.081.542a8.816,8.816,0,0,0-.185,1.651c0,.8-.012,1.593.012,2.378a5.58,5.58,0,0,0,.139.981,1.989,1.989,0,0,0,.265.6,1.13,1.13,0,0,0,.97.554h6.371a.9.9,0,0,0,.612-.1,2.814,2.814,0,0,0-.012-.312,10.381,10.381,0,0,1-.139-1.985c.012-.439.012-.889-.012-1.327a4.4,4.4,0,0,0-.162-.866.763.763,0,0,0-.727-.589,7.711,7.711,0,0,0-1.154.023.786.786,0,0,0-.658.6c-.069.208-.127.416-.2.635a1.094,1.094,0,0,1-.912-.1,1.065,1.065,0,0,1-.6-.623,1.394,1.394,0,0,1,.623-1.766,5.016,5.016,0,0,1,1.9-.542,8.952,8.952,0,0,1,2.482.139,1.794,1.794,0,0,1,.265.058A2.294,2.294,0,0,1,160,369.079c.046.381.069.773.081,1.154.012.669,0,1.327,0,2a10.54,10.54,0,0,0,.185,2.482.361.361,0,0,1-.208.45,2.181,2.181,0,0,1-.889.289,3.237,3.237,0,0,1-.335.012h-8.645A4.005,4.005,0,0,1,148,374.8c-.127-.081-.254-.15-.4-.242-.127.069-.254.127-.381.208a4.176,4.176,0,0,1-2.355.7c-3.636,0-7.272-.012-10.907,0A3.992,3.992,0,0,1,129.926,372a10.446,10.446,0,0,1-.092-1.05c-.012-1.962-.012-3.913,0-5.875a3.349,3.349,0,0,1,.081-.762,1.1,1.1,0,0,1,.866-.843,1.832,1.832,0,0,1,.439-.069,4.954,4.954,0,0,1,1.477.2c.208.069.265.162.242.369a.337.337,0,0,1-.023.1,10.958,10.958,0,0,0-.219,2.528v4.375c0,.312.012.623.035.946a2.817,2.817,0,0,0,.265,1.016,1.153,1.153,0,0,0,1.085.716h10.63a1.145,1.145,0,0,0,1.073-.658,2.542,2.542,0,0,0,.312-1.108c.023-.289.023-.589.023-.889v-2.609a3.876,3.876,0,0,1,.092-.82,1.03,1.03,0,0,1,.762-.808,1.472,1.472,0,0,1,.323-.081A5.091,5.091,0,0,1,149.248,366.955Z" transform="translate(-116.345 -359.347)"/><path class="b" d="M25.161,363.69a2.077,2.077,0,0,1-.023.323,15.948,15.948,0,0,0-.265,3.139c-.012,2.274-.012,4.548,0,6.81a5.511,5.511,0,0,1-.45,2.32,5.575,5.575,0,0,1-4.813,3.486,6.418,6.418,0,0,1-2.839-.323,5.7,5.7,0,0,1-3.717-5.055c-.023-.739-.023-1.477-.012-2.216a1.279,1.279,0,0,1,1.443-1.431,5.138,5.138,0,0,1,1.258.15,2.955,2.955,0,0,1,.369.138,2.7,2.7,0,0,1-.046.45,11.615,11.615,0,0,0-.208,2.759,6.271,6.271,0,0,0,.323,1.847,2.593,2.593,0,0,0,2.6,1.87,3.542,3.542,0,0,0,1.154-.115,2.493,2.493,0,0,0,1.5-1.143,4.031,4.031,0,0,0,.485-1.35,7.7,7.7,0,0,0,.127-1.547v-8.53a6.479,6.479,0,0,1,.012-.669,1.2,1.2,0,0,1,1.2-1.212A4.741,4.741,0,0,1,25.161,363.69Z" transform="translate(-13.034 -359.337)"/><path class="b" d="M408.361,375.257a2.141,2.141,0,0,1,0-.277,15.56,15.56,0,0,0,.265-3.186v-6.637a5.416,5.416,0,0,1,.023-.612,1.139,1.139,0,0,1,.9-1,1.16,1.16,0,0,1,.277-.046,4.108,4.108,0,0,1,1.789.242c.035.012.046.046.1.1-.012.138-.035.3-.058.462a12.278,12.278,0,0,0-.208,2.251v7.191a4.135,4.135,0,0,1-.023.658,1.181,1.181,0,0,1-1.212,1.131,4.556,4.556,0,0,1-1.477-.127A2.176,2.176,0,0,1,408.361,375.257Z" transform="translate(-362.727 -359.42)"/><path class="b" d="M407.5,332.063a1.422,1.422,0,0,1-.231-.023.683.683,0,0,1-.254-1.212c.115-.115.266-.2.4-.312,0-.277-.012-.554,0-.819a1.46,1.46,0,0,1,.554-1.1,1.72,1.72,0,0,1,1.962-.012,1.11,1.11,0,0,1,.265.346.613.613,0,0,1-.358.854,2.2,2.2,0,0,1-.346.081c-.069-.115-.127-.219-.2-.323a.319.319,0,0,0-.312-.185.343.343,0,0,0-.289.3,1.123,1.123,0,0,0-.023.277c0,.381.115.5.485.519a1.841,1.841,0,0,0,.439-.012,4.166,4.166,0,0,0,.439-.115,2.02,2.02,0,0,1,.277.265.559.559,0,0,1-.323.912,1.384,1.384,0,0,1-.439.046c-.439.012-.889.012-1.327,0a.547.547,0,0,0-.635.4C407.6,331.971,407.563,331.994,407.5,332.063Z" transform="translate(-361.306 -328.287)"/><path class="b" d="M258.039,480.884a1.476,1.476,0,0,1-1.477,1.524,1.439,1.439,0,0,1-1.466-1.466,1.511,1.511,0,0,1,1.477-1.547A1.452,1.452,0,0,1,258.039,480.884Z" transform="translate(-227.156 -461.954)"/><path class="b" d="M351.766,482.411a1.455,1.455,0,0,1-1.466-1.477,1.551,1.551,0,0,1,1.5-1.535,1.507,1.507,0,0,1-.035,3.012Z" transform="translate(-311.372 -461.957)"/><path class="b" d="M288.843,480.907a1.515,1.515,0,0,1-1.5,1.512,1.5,1.5,0,0,1-1.443-1.512,1.529,1.529,0,0,1,1.512-1.512A1.438,1.438,0,0,1,288.843,480.907Z" transform="translate(-254.405 -461.954)"/></g><g transform="translate(0 25.501)"><path class="b" d="M31.787,549.747c-.069.623-.162,1.224-.208,1.835s-.058,1.212-.058,1.824a16.13,16.13,0,0,0,.035,1.824,1.243,1.243,0,0,0,.531-.4,8.613,8.613,0,0,1,2.839-1.8,4.9,4.9,0,0,1,2.666-.242,3.947,3.947,0,0,1,3.186,3.463,5.6,5.6,0,0,1-.092,2.147,3.867,3.867,0,0,1-3.3,3.024,7.766,7.766,0,0,1-1.154.081c-3.578.012-7.168,0-10.746,0-.242,0-.473.012-.681.023a1.089,1.089,0,0,0-.3.566,5.577,5.577,0,0,1-3.913,3.532,6.327,6.327,0,0,1-3.971-.219,5.731,5.731,0,0,1-3.567-5c-.035-.739-.012-1.477-.012-2.216,0-.127.012-.254.023-.381a1.117,1.117,0,0,1,.866-.97,1.485,1.485,0,0,1,.219-.046,3.916,3.916,0,0,1,1.974.289c-.012.127-.012.277-.035.416a12.257,12.257,0,0,0-.219,2.759,6.028,6.028,0,0,0,.242,1.581,4.72,4.72,0,0,0,.358.866,2.423,2.423,0,0,0,1.431,1.154,3.51,3.51,0,0,0,2.124,0,2.441,2.441,0,0,0,1.477-1.247,4.978,4.978,0,0,0,.519-2.078c.023-.277.012-.554.012-.831v-4.04a3.669,3.669,0,0,1,.069-.716,1.092,1.092,0,0,1,.877-.9.8.8,0,0,1,.162-.035,4.453,4.453,0,0,1,1.974.231,1.2,1.2,0,0,1,.012.346,16.166,16.166,0,0,0-.265,3.255c-.012.5-.012.993.012,1.5.012.277.092.358.381.358.716.012,1.443.012,2.158.012.312,0,.623,0,.946-.012.254-.012.312-.081.335-.346.012-.162.012-.335.012-.5v-7.641a4.438,4.438,0,0,1,.012-.554,1.186,1.186,0,0,1,1.1-1.189,3.137,3.137,0,0,1,.658-.023A3.012,3.012,0,0,1,31.787,549.747ZM34.2,559.7h0c.716,0,1.443.012,2.158,0a1.337,1.337,0,0,0,1.477-1.143l.035-.1a5.751,5.751,0,0,0,0-2.585,3.315,3.315,0,0,0-.335-.808.981.981,0,0,0-.97-.519,3.224,3.224,0,0,0-.658.092,5.5,5.5,0,0,0-1.639.785,10.487,10.487,0,0,0-2.551,2.6.731.731,0,0,0-.162.346c-.023.369-.012.739-.012,1.108a.235.235,0,0,0,.219.219c.15.012.3.023.439.023C32.872,559.708,33.541,559.7,34.2,559.7Z" transform="translate(-13.035 -549.415)"/><path class="b" d="M273.009,559.424a1.041,1.041,0,0,0,.254.069h1.6a.776.776,0,0,0,.162-.023,1.116,1.116,0,0,0,.935-.693,3.088,3.088,0,0,0,.254-.843,9.946,9.946,0,0,0,.1-1.431c.012-1.87,0-3.728,0-5.6a3.615,3.615,0,0,1,.023-.612,1.082,1.082,0,0,1,.889-1,3.212,3.212,0,0,1,.877-.058,2.933,2.933,0,0,1,1.3.289c-.023.162-.023.3-.046.439a11.576,11.576,0,0,0-.219,2.528c.012,1.477,0,2.955,0,4.432a4.617,4.617,0,0,1-.554,2.285,3.755,3.755,0,0,1-2.77,2,11.535,11.535,0,0,1-1.27.1c-.5.023-.993.012-1.5.012a2.91,2.91,0,0,0-.115.335c-.046.219-.069.439-.1.658a4.012,4.012,0,0,1-3.878,3.324c-.531.023-1.073.012-1.6,0a2.1,2.1,0,0,1-1.016-.254,1.031,1.031,0,0,1-.462-1.5,1.143,1.143,0,0,1,.519-.577,2.157,2.157,0,0,1,.231.115,2.442,2.442,0,0,0,1.247.392c.254.012.519.012.773,0a1.207,1.207,0,0,0,1.131-.75,3.239,3.239,0,0,0,.265-1.7,1.738,1.738,0,0,0-.323-.058c-.335-.012-.669.012-.993-.012a7.5,7.5,0,0,1-1.258-.162,4.049,4.049,0,0,1-2.966-3.37,6.036,6.036,0,0,1,0-1.766,4,4,0,0,1,3.67-3.486,5.379,5.379,0,0,1,1.489.069,3.96,3.96,0,0,1,3.163,3.174,7.821,7.821,0,0,1,.115,1.154c.023.646,0,1.293.012,1.939A1.092,1.092,0,0,0,273.009,559.424Zm-2.9-1.466h0c0-.346,0-.7-.012-1.05-.012-.277-.035-.554-.069-.819a2.63,2.63,0,0,0-.5-1.327,1.086,1.086,0,0,0-1.754.035,2.369,2.369,0,0,0-.381.854,6.239,6.239,0,0,0-.012,2.574c.035.139.081.289.127.416a1.214,1.214,0,0,0,1.12.843c.369.023.739.023,1.108.012.277-.012.346-.092.358-.381C270.123,558.731,270.111,558.35,270.111,557.958Z" transform="translate(-235.42 -549.223)"/><path class="b" d="M412.757,549.6a2.219,2.219,0,0,1,0,.277,15.05,15.05,0,0,0-.265,3.139c.012,2.193,0,4.386,0,6.591a6.152,6.152,0,0,1-.023.658,1.117,1.117,0,0,1-.877,1.016l-.162.035a3.636,3.636,0,0,1-2.008-.277,1.407,1.407,0,0,1,0-.312,14.529,14.529,0,0,0,.242-2.92c-.012-2.251,0-4.5,0-6.752,0-.208,0-.4.012-.612a1.176,1.176,0,0,1,1.131-1.154,4.991,4.991,0,0,1,1.1.046A1.469,1.469,0,0,1,412.757,549.6Z" transform="translate(-363.661 -549.272)"/><path class="b" d="M55.162,598.1a1.508,1.508,0,0,1-1.477,1.535,1.448,1.448,0,0,1-1.489-1.512,1.532,1.532,0,0,1,1.5-1.524A1.514,1.514,0,0,1,55.162,598.1Z" transform="translate(-47.675 -591.132)"/></g></g></g></svg>