<svg xmlns="http://www.w3.org/2000/svg" width="43.887" height="43.89" viewBox="0 0 43.887 43.89">
  <path id="achiv-2" d="M43.441,20.411l-7.048-3.524,7.048-3.524a1.716,1.716,0,0,0,0-3.067L23.21.18a1.716,1.716,0,0,0-1.534,0L1.445,10.3a1.716,1.716,0,0,0,0,3.067l7.048,3.524L1.445,20.411a1.716,1.716,0,0,0,0,3.067L8.494,27,1.445,30.527a1.716,1.716,0,0,0,0,3.067L21.676,43.709a1.715,1.715,0,0,0,1.534,0L43.441,33.594a1.716,1.716,0,0,0,0-3.067L36.392,27l7.048-3.524a1.716,1.716,0,0,0,0-3.067Zm-21-16.78,16.4,8.2-16.4,8.2-16.4-8.2ZM38.84,32.06l-16.4,8.2-16.4-8.2,6.282-3.141,9.349,4.674a1.715,1.715,0,0,0,1.534,0l9.349-4.674Zm-16.4-1.917-16.4-8.2L12.328,18.8l9.349,4.674a1.715,1.715,0,0,0,1.534,0L32.558,18.8l6.282,3.141Zm0,0" transform="translate(-0.499 0)" fill="#fff"/>
</svg>
