<svg xmlns="http://www.w3.org/2000/svg" width="44" height="44" viewBox="0 0 44 44">
  <g id="achiv-3" transform="translate(-317 -2928)">
    <path id="Path_45" data-name="Path 45" d="M42.286,144.714h0a1.289,1.289,0,0,0,1.289-1.286,15.8,15.8,0,0,1,4.657-11.207,1.289,1.289,0,1,0-1.823-1.823A18.358,18.358,0,0,0,41,143.422a1.289,1.289,0,0,0,1.286,1.292Z" transform="translate(279.523 2809.153)" fill="#fff"/>
    <path id="Path_46" data-name="Path 46" d="M387.455,143.428a1.289,1.289,0,0,0,1.289,1.286h0a1.289,1.289,0,0,0,1.286-1.292,18.358,18.358,0,0,0-5.412-13.024,1.289,1.289,0,0,0-1.823,1.823,15.8,15.8,0,0,1,4.657,11.207Z" transform="translate(-32.556 2809.153)" fill="#fff"/>
    <path id="Path_47" data-name="Path 47" d="M208.9,467.442a15.89,15.89,0,0,1-6.362,0,1.289,1.289,0,1,0-.513,2.526,18.45,18.45,0,0,0,7.388,0,1.289,1.289,0,1,0-.513-2.526Z" transform="translate(133.276 2500.752)" fill="#fff"/>
    <path id="Path_48" data-name="Path 48" d="M183.713,13.66l-.8-3.2a4.719,4.719,0,0,0-2.66-3.175,4.726,4.726,0,1,0-7.944,0,4.719,4.719,0,0,0-2.66,3.174l-.8,3.2a2.148,2.148,0,0,0,2.085,2.668h10.691a2.148,2.148,0,0,0,2.085-2.668Zm-7.43-11.082a2.148,2.148,0,1,1-2.148,2.148A2.151,2.151,0,0,1,176.283,2.578Zm-4.8,11.172.665-2.668a2.145,2.145,0,0,1,2.085-1.629h4.091a2.145,2.145,0,0,1,2.085,1.629l.665,2.668Z" transform="translate(162.717 2928)" fill="#fff"/>
    <path id="Path_49" data-name="Path 49" d="M14.127,332.458a4.719,4.719,0,0,0-2.66-3.174,4.727,4.727,0,1,0-7.944,0,4.719,4.719,0,0,0-2.66,3.175l-.8,3.2a2.148,2.148,0,0,0,2.085,2.668H12.84a2.148,2.148,0,0,0,2.085-2.668Zm-6.632-7.88a2.148,2.148,0,1,1-2.148,2.148A2.151,2.151,0,0,1,7.495,324.578ZM2.7,335.75l.665-2.668a2.145,2.145,0,0,1,2.085-1.629H9.54a2.145,2.145,0,0,1,2.085,1.629l.665,2.668Z" transform="translate(317 2633.672)" fill="#fff"/>
    <path id="Path_50" data-name="Path 50" d="M352.5,335.659l-.8-3.2a4.719,4.719,0,0,0-2.66-3.175,4.727,4.727,0,1,0-7.944,0,4.719,4.719,0,0,0-2.66,3.174l-.8,3.2a2.148,2.148,0,0,0,2.085,2.668h10.691a2.148,2.148,0,0,0,2.085-2.668Zm-7.43-11.082a2.148,2.148,0,1,1-2.148,2.148A2.151,2.151,0,0,1,345.071,324.577Zm-4.8,11.172.665-2.668a2.145,2.145,0,0,1,2.085-1.629h4.091a2.145,2.145,0,0,1,2.085,1.629l.665,2.668Z" transform="translate(8.434 2633.673)" fill="#fff"/>
    <path id="Path_51" data-name="Path 51" d="M199.972,253.8l-5.375,5.375-1.4-1.4a1.289,1.289,0,0,0-1.823,1.823l2.307,2.307a1.289,1.289,0,0,0,1.823,0l6.287-6.287a1.289,1.289,0,0,0-1.823-1.823Z" transform="translate(142.414 2696.355)" fill="#fff"/>
  </g>
</svg>
