<svg xmlns="http://www.w3.org/2000/svg" width="34.692" height="44" viewBox="0 0 34.692 44">
  <g id="achiv-1" transform="translate(-736 -2928)">
    <g id="achiv-1-2" data-name="achiv-1" transform="translate(736 2928)">
      <g id="Group_58" data-name="Group 58" transform="translate(0)">
        <path id="Path_43" data-name="Path 43" d="M71.5,0a17.341,17.341,0,0,0-9.731,31.7V42.731a1.269,1.269,0,0,0,1.79,1.157L71.5,40.315l7.941,3.573a1.269,1.269,0,0,0,1.79-1.157V31.7A17.342,17.342,0,0,0,71.5,0Zm7.192,40.768-6.672-3a1.268,1.268,0,0,0-1.042,0l-6.671,3V33.134a17.26,17.26,0,0,0,1.96.752l.114.036.256.076.19.055.208.056.243.063.172.042.281.065.146.032q.154.033.31.063l.127.024q.165.031.331.058l.114.019q.171.027.343.051l.107.015c.116.015.233.029.35.042l.1.012c.117.012.234.023.351.033l.107.009c.116.009.232.016.348.023l.112.007c.117.006.235.01.353.014l.106,0q.229.006.459.006t.459-.006l.106,0c.118,0,.236-.008.353-.014l.112-.007c.116-.007.232-.014.348-.023l.107-.009c.117-.01.234-.021.351-.033l.1-.012c.117-.013.234-.027.35-.042l.107-.015q.172-.024.343-.051l.114-.019q.166-.028.331-.058l.127-.024.31-.063.146-.032.281-.065.172-.042.243-.063.208-.056.19-.055.256-.076.114-.036a17.259,17.259,0,0,0,1.96-.751v7.634Zm-2.36-9.424-.152.052-.232.076q-.136.043-.272.082l-.193.056q-.181.05-.362.1l-.136.033q-.178.043-.357.082l-.09.02q-.231.048-.464.089l-.048.008q-.21.036-.421.066l-.1.013c-.15.02-.3.039-.451.055l-.017,0q-.237.025-.475.041l-.1.007q-.185.012-.37.019l-.126,0c-.155,0-.311.008-.466.008s-.311,0-.466-.008l-.126,0q-.185-.007-.37-.019l-.1-.007q-.238-.017-.475-.041l-.017,0c-.151-.016-.3-.035-.451-.055L69.4,32q-.211-.03-.421-.066l-.048-.008q-.233-.041-.464-.089l-.09-.02q-.179-.039-.357-.082l-.136-.033q-.182-.046-.362-.1l-.193-.056q-.136-.04-.272-.083L66.82,31.4l-.152-.052a14.808,14.808,0,1,1,9.664,0Z" transform="translate(-54.154)" fill="#fff"/>
      </g>
    </g>
    <g id="Group_61" data-name="Group 61" transform="translate(743.283 2933.923)">
      <g id="Group_60" data-name="Group 60" transform="translate(0)">
        <path id="Path_44" data-name="Path 44" d="M156.5,80.347l2.384-4.481A1.269,1.269,0,0,0,157.807,74l-5.072-.176-2.688-4.3a1.269,1.269,0,0,0-2.153,0l-2.688,4.3L140.132,74a1.269,1.269,0,0,0-1.077,1.865l2.384,4.481-2.384,4.481a1.269,1.269,0,0,0,1.077,1.865l5.072.176,2.688,4.3a1.269,1.269,0,0,0,2.153,0l2.688-4.3,5.072-.176a1.269,1.269,0,0,0,1.077-1.865Zm-4.528,4.008a1.269,1.269,0,0,0-1.033.6L148.97,88.1,147,84.951a1.269,1.269,0,0,0-1.033-.6l-3.716-.129L144,80.943a1.269,1.269,0,0,0,0-1.192l-1.747-3.283,3.716-.129a1.269,1.269,0,0,0,1.033-.6l1.97-3.154,1.97,3.154a1.269,1.269,0,0,0,1.033.6l3.716.129-1.747,3.283a1.269,1.269,0,0,0,0,1.192l1.747,3.283Z" transform="translate(-138.907 -68.924)" fill="#fff"/>
      </g>
    </g>
  </g>
</svg>
