<svg id="activite-3" xmlns="http://www.w3.org/2000/svg" width="50.763" height="50.763" viewBox="0 0 50.763 50.763">
  <path id="Path_413" data-name="Path 413" d="M87.9,277.949a5.949,5.949,0,1,0-5.949,5.949A5.956,5.956,0,0,0,87.9,277.949Zm-5.949,2.974a2.974,2.974,0,1,1,2.974-2.974A2.978,2.978,0,0,1,81.949,280.923Z" transform="translate(-68.465 -245.032)" fill="#93c72c"/>
  <path id="Path_414" data-name="Path 414" d="M41.41,392A10.422,10.422,0,0,0,31,402.41a1.487,1.487,0,0,0,1.487,1.487H50.334a1.487,1.487,0,0,0,1.487-1.487A10.422,10.422,0,0,0,41.41,392Zm-7.287,8.923a7.437,7.437,0,0,1,14.573,0Z" transform="translate(-27.926 -353.134)" fill="#93c72c"/>
  <path id="Path_415" data-name="Path 415" d="M327.9,277.949a5.949,5.949,0,1,0-5.949,5.949A5.956,5.956,0,0,0,327.9,277.949Zm-5.949,2.974a2.974,2.974,0,1,1,2.974-2.974A2.978,2.978,0,0,1,321.949,280.923Z" transform="translate(-284.669 -245.032)" fill="#93c72c"/>
  <path id="Path_416" data-name="Path 416" d="M281.41,392A10.422,10.422,0,0,0,271,402.41a1.487,1.487,0,0,0,1.487,1.487h17.847a1.487,1.487,0,0,0,1.487-1.487A10.422,10.422,0,0,0,281.41,392Zm-7.287,8.923a7.437,7.437,0,0,1,14.573,0Z" transform="translate(-244.131 -353.134)" fill="#93c72c"/>
  <path id="Path_417" data-name="Path 417" d="M73.385,60h-11.9a1.487,1.487,0,0,0,0,2.974h11.9a1.487,1.487,0,1,0,0-2.974Z" transform="translate(-54.051 -54.051)" fill="#93c72c"/>
  <path id="Path_418" data-name="Path 418" d="M73.385,120h-11.9a1.487,1.487,0,1,0,0,2.974h11.9a1.487,1.487,0,1,0,0-2.974Z" transform="translate(-54.051 -108.102)" fill="#93c72c"/>
  <path id="Path_419" data-name="Path 419" d="M315.385,60h-11.9a1.487,1.487,0,0,0,0,2.974h11.9a1.487,1.487,0,0,0,0-2.974Z" transform="translate(-272.057 -54.051)" fill="#93c72c"/>
  <path id="Path_420" data-name="Path 420" d="M315.385,120h-11.9a1.487,1.487,0,0,0,0,2.974h11.9a1.487,1.487,0,0,0,0-2.974Z" transform="translate(-272.057 -108.102)" fill="#93c72c"/>
  <path id="Path_421" data-name="Path 421" d="M46.3,0H4.462A4.467,4.467,0,0,0,0,4.462v11.9a4.467,4.467,0,0,0,4.462,4.462H9.794l2.539,2.539a1.487,1.487,0,0,0,2.1,0l2.539-2.539H33.788l2.539,2.539a1.487,1.487,0,0,0,2.1,0l2.539-2.539H46.3a4.467,4.467,0,0,0,4.462-4.462V4.462A4.467,4.467,0,0,0,46.3,0Zm1.487,16.359A1.489,1.489,0,0,1,46.3,17.847H40.353a1.487,1.487,0,0,0-1.052.436L37.379,20.2l-1.923-1.923a1.487,1.487,0,0,0-1.052-.436H16.359a1.487,1.487,0,0,0-1.052.436L13.385,20.2l-1.923-1.923a1.487,1.487,0,0,0-1.052-.436H4.462a1.489,1.489,0,0,1-1.487-1.487V4.462A1.489,1.489,0,0,1,4.462,2.974H46.3a1.489,1.489,0,0,1,1.487,1.487Z" fill="#93c72c"/>
</svg>
