<svg xmlns="http://www.w3.org/2000/svg" width="50.662" height="50.763" viewBox="0 0 50.662 50.763">
  <g id="activite-1" transform="translate(-1734 -1251)">
    <g id="_001-book" data-name="001-book" transform="translate(1734 1251)">
      <path id="Path_410" data-name="Path 410" d="M51.175,47.758,38.735,1.034,29.521,3.2V0H.513V50.763H29.521V16.213L38.7,50.689ZM26.551,2.97V35.163H16.5V2.97ZM13.532,41.441H3.483V38.133H13.532Zm2.97-3.308H26.551v3.308H16.5ZM13.532,2.97V35.163H3.483V2.97ZM3.483,47.793V44.411H13.532v3.382Zm13.019,0V44.411H26.551v3.382ZM36.607,4.584l10.91,40.982-6.69,1.572L29.917,6.156Z" transform="translate(-0.513 0)" fill="#93c72c"/>
      <path id="Path_411" data-name="Path 411" d="M64.657,65.158H67.8v2.97H64.657Z" transform="translate(-58.297 -58.698)" fill="#93c72c"/>
      <path id="Path_412" data-name="Path 412" d="M196.571,65.158h3.139v2.97h-3.139Z" transform="translate(-177.132 -58.698)" fill="#93c72c"/>
    </g>
  </g>
</svg>
