<svg id="activite-6" xmlns="http://www.w3.org/2000/svg" width="51.091" height="50.891" viewBox="0 0 51.091 50.891">
  <path id="Path_423" data-name="Path 423" d="M49.594,1H31.533a7.477,7.477,0,0,0-5.987,3,7.477,7.477,0,0,0-5.987-3H1.5A1.5,1.5,0,0,0,0,2.5V44.407a1.5,1.5,0,0,0,1.5,1.5H37.726l1.1,3.03a4.49,4.49,0,0,0,8.453-3.03h2.312a1.5,1.5,0,0,0,1.5-1.5V2.5A1.5,1.5,0,0,0,49.594,1ZM31.533,3.994H48.1v32.93H44.014l-1.341-3.685a10.992,10.992,0,0,0,2.67-11.63h0a10.987,10.987,0,0,0-18.3-3.785V8.484a4.5,4.5,0,0,1,4.49-4.49ZM27.042,32.9a11.051,11.051,0,0,0,7.193,3.414l.221.608H31.533a7.447,7.447,0,0,0-4.49,1.5Zm4.612-.3a7.983,7.983,0,1,1,6.1.266,7.931,7.931,0,0,1-6.1-.266ZM2.994,3.994H19.558a4.5,4.5,0,0,1,4.49,4.49v29.94a7.447,7.447,0,0,0-4.49-1.5H2.994Zm0,35.923H19.558a4.5,4.5,0,0,1,4.233,2.994H2.994ZM27.3,42.911a4.5,4.5,0,0,1,4.233-2.994h4.014l1.09,2.994Zm16.26,5.895a1.5,1.5,0,0,1-1.918-.895l-4.3-11.817a11.15,11.15,0,0,0,1.441-.417,11.019,11.019,0,0,0,1.372-.608l4.3,11.818a1.5,1.5,0,0,1-.895,1.918Zm2.633-5.895L45.1,39.917H48.1v2.994Z" transform="translate(0 -1)" fill="#93c72c"/>
  <path id="Path_424" data-name="Path 424" d="M61.5,63.994H73.571a1.5,1.5,0,0,0,0-2.994H61.5a1.5,1.5,0,1,0,0,2.994Z" transform="translate(-54.013 -55.013)" fill="#93c72c"/>
  <path id="Path_425" data-name="Path 425" d="M61.5,123.994H73.571a1.5,1.5,0,0,0,0-2.994H61.5a1.5,1.5,0,1,0,0,2.994Z" transform="translate(-54.013 -109.026)" fill="#93c72c"/>
  <path id="Path_426" data-name="Path 426" d="M61.5,183.994H73.571a1.5,1.5,0,0,0,0-2.994H61.5a1.5,1.5,0,0,0,0,2.994Z" transform="translate(-54.013 -163.038)" fill="#93c72c"/>
  <path id="Path_427" data-name="Path 427" d="M61.5,243.994H73.571a1.5,1.5,0,0,0,0-2.994H61.5a1.5,1.5,0,0,0,0,2.994Z" transform="translate(-54.013 -217.051)" fill="#93c72c"/>
  <path id="Path_428" data-name="Path 428" d="M75.068,302.5a1.5,1.5,0,0,0-1.5-1.5H61.5a1.5,1.5,0,1,0,0,2.994H73.571A1.5,1.5,0,0,0,75.068,302.5Z" transform="translate(-54.013 -271.064)" fill="#93c72c"/>
  <path id="Path_429" data-name="Path 429" d="M302.5,63.994h12.074a1.5,1.5,0,0,0,0-2.994H302.5a1.5,1.5,0,1,0,0,2.994Z" transform="translate(-270.964 -55.013)" fill="#93c72c"/>
</svg>
