<svg id="activite-7" xmlns="http://www.w3.org/2000/svg" width="50.763" height="50.763" viewBox="0 0 50.763 50.763">
  <g id="Group_237" data-name="Group 237">
    <g id="Group_236" data-name="Group 236">
      <path id="Path_438" data-name="Path 438" d="M17.528,0H5.87A5.877,5.877,0,0,0,0,5.87V17.528A5.877,5.877,0,0,0,5.87,23.4H17.528a5.877,5.877,0,0,0,5.87-5.87V5.87A5.877,5.877,0,0,0,17.528,0Zm1.9,17.528a1.907,1.907,0,0,1-1.9,1.9H5.87a1.907,1.907,0,0,1-1.9-1.9V5.87a1.907,1.907,0,0,1,1.9-1.9H17.528a1.907,1.907,0,0,1,1.9,1.9Z" fill="#93c72c"/>
    </g>
  </g>
  <g id="Group_239" data-name="Group 239" transform="translate(27.365)">
    <g id="Group_238" data-name="Group 238">
      <path id="Path_439" data-name="Path 439" d="M293.45,0h-11.5A5.956,5.956,0,0,0,276,5.949v11.5a5.956,5.956,0,0,0,5.949,5.949h11.5A5.956,5.956,0,0,0,299.4,17.45V5.949A5.956,5.956,0,0,0,293.45,0Zm1.983,17.45a1.985,1.985,0,0,1-1.983,1.983h-11.5a1.985,1.985,0,0,1-1.983-1.983V5.949a1.985,1.985,0,0,1,1.983-1.983h11.5a1.985,1.985,0,0,1,1.983,1.983Z" transform="translate(-276)" fill="#93c72c"/>
    </g>
  </g>
  <g id="Group_241" data-name="Group 241" transform="translate(0 27.365)">
    <g id="Group_240" data-name="Group 240">
      <path id="Path_440" data-name="Path 440" d="M17.528,276H5.87A5.877,5.877,0,0,0,0,281.87v11.658a5.877,5.877,0,0,0,5.87,5.87H17.528a5.877,5.877,0,0,0,5.87-5.87V281.87A5.877,5.877,0,0,0,17.528,276Zm1.9,17.528a1.907,1.907,0,0,1-1.9,1.9H5.87a1.907,1.907,0,0,1-1.9-1.9V281.87a1.907,1.907,0,0,1,1.9-1.9H17.528a1.907,1.907,0,0,1,1.9,1.9Z" transform="translate(0 -276)" fill="#93c72c"/>
    </g>
  </g>
  <g id="Group_243" data-name="Group 243" transform="translate(27.365 27.365)">
    <g id="Group_242" data-name="Group 242">
      <path id="Path_441" data-name="Path 441" d="M293.45,276h-11.5A5.956,5.956,0,0,0,276,281.949v11.5a5.956,5.956,0,0,0,5.949,5.949h11.5a5.956,5.956,0,0,0,5.949-5.949v-11.5A5.956,5.956,0,0,0,293.45,276Zm1.983,17.45a1.985,1.985,0,0,1-1.983,1.983h-11.5a1.985,1.985,0,0,1-1.983-1.983v-11.5a1.985,1.985,0,0,1,1.983-1.983h11.5a1.985,1.985,0,0,1,1.983,1.983Z" transform="translate(-276 -276)" fill="#93c72c"/>
    </g>
  </g>
</svg>
