<svg xmlns="http://www.w3.org/2000/svg" width="50.494" height="50.891" viewBox="0 0 50.494 50.891">
  <g id="activite-5" transform="translate(-2)">
    <g id="Group_33" data-name="Group 33" transform="translate(19.295 17.494)">
      <g id="Group_32" data-name="Group 32">
        <path id="Path_38" data-name="Path 38" d="M183.952,176a7.952,7.952,0,1,0,7.952,7.952A7.961,7.961,0,0,0,183.952,176Zm0,11.928a3.976,3.976,0,1,1,3.976-3.976A3.98,3.98,0,0,1,183.952,187.928Z" transform="translate(-176 -176)" fill="#93c72c"/>
      </g>
    </g>
    <g id="Group_35" data-name="Group 35" transform="translate(2)">
      <g id="Group_34" data-name="Group 34">
        <path id="Path_39" data-name="Path 39" d="M51.715,31.374l-5.148-3.944a18.739,18.739,0,0,0,0-3.967l5.148-3.944a1.988,1.988,0,0,0,.5-2.588L47.232,8.483a1.988,1.988,0,0,0-2.441-.839l-6.107,2.405a19.429,19.429,0,0,0-3.569-2.022L34.2,1.7A1.988,1.988,0,0,0,32.232,0h-9.97a1.988,1.988,0,0,0-1.967,1.7l-.917,6.325a19.435,19.435,0,0,0-3.569,2.022L9.7,7.644a1.988,1.988,0,0,0-2.441.839L2.276,16.93a1.988,1.988,0,0,0,.5,2.588l5.148,3.944a18.739,18.739,0,0,0,0,3.967L2.779,31.373a1.988,1.988,0,0,0-.5,2.588l4.985,8.447a1.988,1.988,0,0,0,2.441.839l6.108-2.405a19.433,19.433,0,0,0,3.569,2.022l.917,6.325a1.988,1.988,0,0,0,1.967,1.7h9.97a1.988,1.988,0,0,0,1.967-1.7l.917-6.325a19.427,19.427,0,0,0,3.569-2.022l6.108,2.405a1.988,1.988,0,0,0,2.441-.839l4.985-8.447A1.988,1.988,0,0,0,51.715,31.374Zm-7.044,7.553L39.1,36.733a1.988,1.988,0,0,0-1.981.306,15.487,15.487,0,0,1-4.484,2.536,1.988,1.988,0,0,0-1.289,1.583l-.835,5.758H23.982l-.834-5.758a1.988,1.988,0,0,0-1.289-1.583,15.491,15.491,0,0,1-4.484-2.536,1.988,1.988,0,0,0-1.981-.306L9.822,38.927,6.595,33.458l4.668-3.577a1.988,1.988,0,0,0,.75-1.916,14.813,14.813,0,0,1,0-5.039,1.988,1.988,0,0,0-.75-1.916L6.595,17.434l3.228-5.469,5.571,2.194a1.988,1.988,0,0,0,1.981-.306,15.491,15.491,0,0,1,4.484-2.536,1.988,1.988,0,0,0,1.289-1.583l.835-5.758h6.529l.834,5.758a1.988,1.988,0,0,0,1.289,1.583,15.491,15.491,0,0,1,4.484,2.536,1.988,1.988,0,0,0,1.981.306l5.571-2.194L47.9,17.434,43.23,21.01a1.988,1.988,0,0,0-.75,1.916,14.813,14.813,0,0,1,0,5.039,1.988,1.988,0,0,0,.75,1.916L47.9,33.458Z" transform="translate(-2)" fill="#93c72c"/>
      </g>
    </g>
  </g>
</svg>
