<svg id="activite-2" xmlns="http://www.w3.org/2000/svg" width="57.911" height="50.647" viewBox="0 0 57.911 50.647">
  <path id="Path_434" data-name="Path 434" d="M52.579,0H27.138a5.337,5.337,0,0,0-5.331,5.331V21.651L17.083,19.3c-.159-.08-.322-.155-.485-.226a8.056,8.056,0,1,0-11.115.493A10.737,10.737,0,0,0,0,28.955v5.452a5.34,5.34,0,0,0,3.634,5.054v9.484a1.7,1.7,0,0,0,1.7,1.7h10.9a1.7,1.7,0,0,0,1.7-1.7V29.883L23.362,32.6a4.655,4.655,0,0,0,6.174-1.946h6.083L29.177,48.365a1.7,1.7,0,0,0,3.189,1.16l6.863-18.873h1.189L47.352,49.53a1.7,1.7,0,0,0,3.185-1.17l-6.5-17.708h8.546a5.331,5.331,0,0,0,5.331-5.331V5.331A5.331,5.331,0,0,0,52.579,0ZM6.119,13.509a4.664,4.664,0,1,1,4.663,4.663,4.669,4.669,0,0,1-4.663-4.663ZM26.636,28.838c0,.012-.009.025-.013.038a1.255,1.255,0,0,1-1.743.687c-3.226-1.614-7.888-3.943-7.888-3.943a1.7,1.7,0,0,0-2.455,1.518V47.249H7.027V38.041a1.7,1.7,0,0,0-1.7-1.7,1.94,1.94,0,0,1-1.938-1.938V28.955a7.391,7.391,0,0,1,7.39-7.39h1.5a7.393,7.393,0,0,1,3.288.774s8.415,4.185,10.559,5.252a1.017,1.017,0,0,1,.508,1.246Zm27.881-3.517a1.924,1.924,0,0,1-.567,1.371,1.95,1.95,0,0,1-1.371.567H29.9c0-.009-.005-.019-.008-.027l4.211-8.421a1.7,1.7,0,0,0-3.035-1.518l-3.591,7.182L25.2,23.339V5.331a1.94,1.94,0,0,1,1.938-1.938H52.579a1.949,1.949,0,0,1,1.371.568,1.922,1.922,0,0,1,.566,1.37Zm0,0" transform="translate(0.001 0)" fill="#93c72c"/>
  <path id="Path_435" data-name="Path 435" d="M276.935,64.266H258.763a1.7,1.7,0,0,0,0,3.393h18.173a1.7,1.7,0,1,0,0-3.393Zm0,0" transform="translate(-227.99 -56.997)" fill="#93c72c"/>
  <path id="Path_436" data-name="Path 436" d="M348.181,120.5h-9.087a1.7,1.7,0,0,0,0,3.393h9.087a1.7,1.7,0,1,0,0-3.393Zm0,0" transform="translate(-299.236 -106.871)" fill="#93c72c"/>
  <path id="Path_437" data-name="Path 437" d="M348.181,176.734h-9.087a1.7,1.7,0,0,0,0,3.393h9.087a1.7,1.7,0,1,0,0-3.393Zm0,0" transform="translate(-299.236 -156.744)" fill="#93c72c"/>
</svg>
