<svg id="activite-4" xmlns="http://www.w3.org/2000/svg" width="50.763" height="50.758" viewBox="0 0 50.763 50.758">
  <path id="Path_422" data-name="Path 422" d="M48.314,15.057a11.961,11.961,0,0,0,.416-3.138A11.9,11.9,0,0,0,28.417,3.506L25.382,6.541,22.347,3.506A11.906,11.906,0,0,0,2.45,15.057,4.915,4.915,0,0,0,.083,20.2L2.347,32.4l9.915,9.664v8.719H38.5V42.065L48.418,32.4,50.681,20.2h0a4.915,4.915,0,0,0-2.367-5.139ZM35.528,47.81H26.869V37.255A9.753,9.753,0,0,1,29.59,30.48l5.255-5.288a1.643,1.643,0,1,1,2.326,2.323l-4.277,4.261,2.1,2.1L39.276,29.6a4.592,4.592,0,0,0,1.354-3.268,4.673,4.673,0,0,0-.063-.76l3.566-7.133a1.93,1.93,0,0,1,3.624,1.215h0L45.665,30.931l-10.137,9.88v7ZM5.1,30.93,3.007,19.654a1.93,1.93,0,0,1,3.624-1.215L10.2,25.576A4.618,4.618,0,0,0,11.488,29.6l4.278,4.278,2.1-2.1-4.221-4.211a1.644,1.644,0,1,1,2.327-2.321l5.2,5.236a9.753,9.753,0,0,1,2.721,6.776V47.81H15.236v-7ZM13.933,3a8.9,8.9,0,0,1,6.311,2.61l5.139,5.139,5.139-5.139A8.927,8.927,0,0,1,45.4,14.414a4.872,4.872,0,0,0-3.93,2.694L38.729,22.6a4.623,4.623,0,0,0-5.99.468L27.4,28.4l.031.031a12.806,12.806,0,0,0-2.052,2.837,12.806,12.806,0,0,0-2.052-2.837l.031-.031-5.336-5.336a4.629,4.629,0,0,0-5.989-.468L9.291,17.109a4.872,4.872,0,0,0-3.93-2.694,8.96,8.96,0,0,1-.354-2.495A8.917,8.917,0,0,1,13.933,3Z" transform="translate(0 -0.026)" fill="#93c72c"/>
</svg>
