<svg id="activite-8" xmlns="http://www.w3.org/2000/svg" width="60.823" height="50.434" viewBox="0 0 60.823 50.434">
  <g id="Group_229" data-name="Group 229" transform="translate(0 22.09)">
    <g id="Group_228" data-name="Group 228">
      <path id="Path_430" data-name="Path 430" d="M51.914,234.25H45.96a8.886,8.886,0,0,0-2.341.314,8.917,8.917,0,0,0-7.945-4.885H25.15a8.917,8.917,0,0,0-7.945,4.885,8.886,8.886,0,0,0-2.341-.314H8.91A8.92,8.92,0,0,0,0,243.16v9.518a5.352,5.352,0,0,0,5.346,5.346H55.478a5.352,5.352,0,0,0,5.346-5.346V243.16A8.92,8.92,0,0,0,51.914,234.25ZM16.24,238.59v15.87H5.346a1.784,1.784,0,0,1-1.782-1.782V243.16a5.352,5.352,0,0,1,5.346-5.346h5.954a5.33,5.33,0,0,1,1.4.187C16.249,238.2,16.24,238.392,16.24,238.59Zm24.78,15.87H19.8V238.59a5.352,5.352,0,0,1,5.346-5.346H35.674a5.352,5.352,0,0,1,5.346,5.346Zm16.24-1.782a1.784,1.784,0,0,1-1.782,1.782H44.584V238.59c0-.2-.009-.394-.022-.589a5.333,5.333,0,0,1,1.4-.187h5.954a5.352,5.352,0,0,1,5.346,5.346Z" transform="translate(0 -229.68)" fill="#93c72c"/>
    </g>
  </g>
  <g id="Group_231" data-name="Group 231" transform="translate(3.969 9.833)">
    <g id="Group_230" data-name="Group 230">
      <path id="Path_431" data-name="Path 431" d="M41.331,126.5a7.917,7.917,0,1,0,7.917,7.917A7.926,7.926,0,0,0,41.331,126.5Zm0,12.271a4.353,4.353,0,1,1,4.353-4.353A4.358,4.358,0,0,1,41.331,138.775Z" transform="translate(-33.414 -126.504)" fill="#93c72c"/>
    </g>
  </g>
  <g id="Group_233" data-name="Group 233" transform="translate(19.834 0)">
    <g id="Group_232" data-name="Group 232">
      <path id="Path_432" data-name="Path 432" d="M177.539,43.729a10.577,10.577,0,1,0,10.577,10.577A10.589,10.589,0,0,0,177.539,43.729Zm0,17.591a7.013,7.013,0,1,1,7.013-7.013A7.021,7.021,0,0,1,177.539,61.32Z" transform="translate(-166.962 -43.729)" fill="#93c72c"/>
    </g>
  </g>
  <g id="Group_235" data-name="Group 235" transform="translate(41.02 9.833)">
    <g id="Group_234" data-name="Group 234">
      <path id="Path_433" data-name="Path 433" d="M353.211,126.5a7.917,7.917,0,1,0,7.917,7.917A7.926,7.926,0,0,0,353.211,126.5Zm0,12.271a4.353,4.353,0,1,1,4.353-4.353A4.358,4.358,0,0,1,353.211,138.775Z" transform="translate(-345.294 -126.504)" fill="#93c72c"/>
    </g>
  </g>
</svg>
