<?xml version="1.0"?>
<svg xmlns="http://www.w3.org/2000/svg" xmlns:xlink="http://www.w3.org/1999/xlink" version="1.1" id="Layer_1" x="0px" y="0px" viewBox="0 0 512 512" style="enable-background:new 0 0 512 512;" xml:space="preserve" width="512px" height="512px"><g><g>
	<g>
		<path d="M456.348,33.391h-18.443l1.65-14.848C440.651,8.614,432.865,0,422.957,0H89.044c-9.908,0-17.694,8.614-16.598,18.543    l1.65,14.848H55.652c-27.619,0-50.087,22.468-50.087,50.087c0,71.731,41.56,136.375,106.287,166.478    c20.542,36.138,54.078,63.484,94.061,76.121V384c0,12.011-10.5,27.826-16.696,27.826c-1.153,0-2.28,0.118-3.368,0.341    c-26.025,1.769-46.719,23.28-46.719,49.746v33.391c0,9.217,7.479,16.696,16.696,16.696h200.348    c9.217,0,16.696-7.479,16.696-16.696v-33.391c0-26.466-20.694-47.978-46.718-49.746c-1.089-0.223-2.215-0.341-3.369-0.341    c-6.195,0-16.696-15.815-16.696-27.826v-57.923c39.989-12.64,73.528-39.989,94.07-76.136    c64.711-30.094,106.278-94.736,106.278-166.463C506.435,55.859,483.967,33.391,456.348,33.391z M38.957,83.478    c0-9.206,7.49-16.696,16.696-16.696h22.154l13.281,119.533c0.479,4.304,1.222,8.514,2.017,12.703    C59.329,170.931,38.957,128.92,38.957,83.478z M232.729,411.826c4.272-9.326,6.576-19.239,6.576-27.826v-50.96    c5.5,0.55,11.06,0.873,16.696,0.873c5.635,0,11.196-0.324,16.696-0.873V384c0,8.587,2.304,18.5,6.576,27.826H232.729z     M331.163,154.337l-25.468,24.826l6.01,35.065c2.36,13.731-12.153,23.974-24.229,17.587L256,215.26l-31.478,16.554    c-12.169,6.437-26.573-3.944-24.229-17.587l6.01-35.065l-25.468-24.826c-9.902-9.642-4.4-26.498,9.25-28.478l35.196-5.12    l15.75-31.902c6.097-12.383,23.837-12.384,29.935,0l15.75,31.902l35.195,5.12C335.563,127.839,341.065,144.695,331.163,154.337z     M418.898,199.01c0.794-4.187,1.537-8.395,2.015-12.694l13.281-119.533h22.154c9.206,0,16.696,7.49,16.696,16.696    C473.043,128.928,452.673,170.928,418.898,199.01z" data-original="#000000" class="active-path" data-old_color="#000000" fill="#ED8017"/>
	</g>
</g></g> </svg>
