<?xml version="1.0" encoding="iso-8859-1"?>
<!-- Generator: Adobe Illustrator 19.0.0, SVG Export Plug-In . SVG Version: 6.00 Build 0)  -->
<svg version="1.1" id="Capa_1" xmlns="http://www.w3.org/2000/svg" xmlns:xlink="http://www.w3.org/1999/xlink" x="0px" y="0px"
	 viewBox="-36 148 486 498" style="enable-background:new -36 148 486 498;" xml:space="preserve">
<g>
	<g>
		<path style="fill:#FFEBDB;" d="M282.999,357h-32v40l-3.475,24.321c-2.359,16.513,10.286,31.249,26.87,31.612L282.999,397V357z"/>
		<path style="fill:#FFEBDB;" d="M378.999,397l8.605,55.933c16.583-0.363,29.229-15.099,26.87-31.612L410.999,397v-40h-32V397z"/>
	</g>
	<path style="fill:#6D9420;" d="M330.999,397h-48l-8.605,55.933c0.207,0.004,0.396,0.067,0.605,0.067
		c-0.208,0-0.398-0.063-0.605-0.067L266.999,501h16h32h16v-56v56h16h32h16l-7.395-48.067c-0.207,0.004-0.396,0.067-0.605,0.067
		c0.208,0,0.398-0.063,0.605-0.067L378.999,397H330.999z"/>
	<path style="fill:#F0FAFF;" d="M42.999,301H31.068c-7.144,0-13.422,4.735-15.384,11.604L2.999,357h8h32V301z"/>
	<path style="fill:#FFEBDB;" d="M42.999,397v-40h-32v40l-8.795,37.987c-3.811,9.528,1.661,20.229,11.616,22.718
		c1.916,0.479,3.828,0.513,5.705,0.328l9.648-25.086L42.999,397z"/>
	<path style="fill:#E9F4D4;" d="M170.999,357h8l-12.685-44.396C164.352,305.735,158.074,301,150.93,301h-11.931v56H170.999z"/>
	<path style="fill:#FFEBDB;" d="M138.999,397l13.826,35.947l9.648,25.086c1.877,0.185,3.789,0.151,5.705-0.328
		c9.956-2.489,15.427-13.19,11.616-22.718L170.999,397v-40h-32V397z"/>
	<g>
		<polygon style="fill:#92C62C;" points="66.999,349 66.999,301 42.999,301 42.999,357 42.999,397 138.999,397 138.999,357 
			138.999,301 114.999,301 114.999,349 		"/>
		<polygon style="fill:#6D9420;" points="138.999,397 42.999,397 29.173,432.947 19.525,458.033 2.999,501 42.999,501 74.999,501 
			106.999,501 138.999,501 178.999,501 162.473,458.033 152.825,432.947 		"/>
	</g>
	<path style="fill:#FFEBDB;" d="M33.212,256.405c0.326,0.688,0.708,1.34,1.057,2.014c1,1.919,2.082,3.787,3.265,5.586
		c0.367,0.561,0.714,1.135,1.098,1.684c1.525,2.169,3.184,4.237,4.96,6.196c0.357,0.395,0.727,0.776,1.094,1.162
		c6.234,6.541,13.799,11.807,22.314,15.257V301c13.255,13.255,34.745,13.255,48,0v-12.696c8.515-3.45,16.08-8.716,22.314-15.257
		c0.367-0.386,0.737-0.767,1.094-1.162c1.777-1.959,3.435-4.027,4.96-6.196c0.384-0.549,0.731-1.123,1.098-1.684
		c1.183-1.799,2.265-3.667,3.265-5.586c0.349-0.674,0.731-1.327,1.057-2.014c1.004-2.109,1.844-4.307,2.615-6.536
		c0.357-1.036,0.697-2.079,1.001-3.139c1.629-5.64,2.596-11.563,2.596-17.73c-18.807,0-35.2-12.8-39.761-31.044L114.999,197
		l-19.996,19.996C87.317,224.682,76.893,229,66.023,229H26.999c0,6.167,0.967,12.09,2.596,17.73c0.305,1.06,0.645,2.103,1.001,3.139
		C31.368,252.098,32.207,254.295,33.212,256.405z"/>
	<path style="fill:#F0FAFF;" d="M66.999,301v48h48v-48C101.744,314.255,80.254,314.255,66.999,301z"/>
	<path style="fill:#2B3511;" d="M95.004,216.996L114.999,197l0.239,0.956C119.799,216.2,136.193,229,154.999,229
		c0-35.346-28.654-64-64-64s-64,28.654-64,64h39.023C76.893,229,87.317,224.682,95.004,216.996z"/>
	<g>
		<polygon style="fill:#E9F4D4;" points="42.999,597 58.999,597 74.999,597 74.999,501 42.999,501 		"/>
		<polygon style="fill:#E9F4D4;" points="106.999,597 122.999,597 138.999,597 138.999,501 106.999,501 		"/>
	</g>
	<g>
		<path style="fill:#6D9420;" d="M34.999,621v8h48v-8c0-13.255-10.745-24-24-24S34.999,607.745,34.999,621z"/>
		<path style="fill:#6D9420;" d="M98.999,621v8h48v-8c0-13.255-10.745-24-24-24S98.999,607.745,98.999,621z"/>
	</g>
	<path style="fill:#FFEBDB;" d="M330.999,309l24-8v-12.696c23.445-9.499,40-32.452,40-59.304c-18.807,0-35.2-12.8-39.761-31.044
		L354.999,197l-19.996,19.996C327.317,224.682,316.893,229,306.023,229h-39.023c0,26.852,16.555,49.806,40,59.304V301L330.999,309z"
		/>
	<path style="fill:#2B3511;" d="M335.004,216.996L354.999,197l0.239,0.956C359.799,216.2,376.193,229,394.999,229
		c0-35.346-28.654-64-64-64s-64,28.654-64,64h39.023C316.893,229,327.317,224.682,335.004,216.996z"/>
	<path style="fill:#E9F4D4;" d="M406.315,312.604C404.352,305.735,398.074,301,390.93,301h-11.931h-24l-24,8l-24-8h-24h-11.931
		c-7.144,0-13.422,4.735-15.384,11.604L242.999,357h8h32v40h48h48v-40h32h8L406.315,312.604z"/>
	<g>
		<polygon style="fill:#E9F4D4;" points="282.999,597 298.999,597 314.999,597 314.999,501 282.999,501 		"/>
		<polygon style="fill:#E9F4D4;" points="346.999,597 362.999,597 378.999,597 378.999,501 346.999,501 		"/>
	</g>
	<g>
		<path style="fill:#6D9420;" d="M274.999,621v8h48v-8c0-13.255-10.745-24-24-24S274.999,607.745,274.999,621z"/>
		<path style="fill:#6D9420;" d="M338.999,621v8h48v-8c0-13.255-10.745-24-24-24S338.999,607.745,338.999,621z"/>
		<path style="fill:#2B3511;" d="M50.645,278.651c-11.711-9.53-19.935-23.125-22.631-38.628C8.774,246.983-5.001,265.359-5.001,287
			v14l32-16"/>
		<path style="fill:#2B3511;" d="M131.354,278.651c11.711-9.53,19.935-23.125,22.631-38.628c19.24,6.96,33.014,25.336,33.014,46.977
			v14l-32-16"/>
	</g>
	<path style="fill:#171E07;" d="M-13.001,287v14c0,3.031,1.711,5.797,4.422,7.156C-7.446,308.719-6.22,309-5.001,309
		c1.695,0,3.391-0.539,4.797-1.602l32-24l-9.594-12.797L3.046,284.961c0.68-13.766,8.221-26.163,19.692-33.385
		C28.58,269.318,41.103,284.268,58.184,293H42.999h-11.93c-10.656,0-20.148,7.156-23.078,17.406l-12.688,44.398
		c-0.688,2.414-0.203,5.008,1.305,7.016c1.516,2,3.883,3.18,6.391,3.18v31.086l-8.469,36.555
		c-2.406,6.531-1.984,13.773,1.195,19.992c2.74,5.355,7.352,9.38,12.834,11.615l-13.03,33.877c-0.945,2.461-0.617,5.234,0.875,7.406
		S0.366,509,2.999,509h32v91.056c-4.917,5.627-8,12.899-8,20.944v8c0,4.422,3.578,8,8,8h48c4.422,0,8-3.578,8-8c0,4.422,3.578,8,8,8
		h48c4.422,0,8-3.578,8-8v-8c0-8.044-3.083-15.316-8-20.944V509h32c2.633,0,5.102-1.297,6.594-3.469s1.82-4.945,0.875-7.406
		l-13.03-33.877c5.489-2.241,10.097-6.264,12.834-11.615c3.18-6.219,3.602-13.461,1.195-19.992l-8.469-36.555V365
		c2.508,0,4.875-1.18,6.391-3.18c1.508-2.008,1.992-4.602,1.305-7.016l-12.688-44.398c-2.93-10.25-12.422-17.406-23.078-17.406
		h-11.93h-15.185c17.081-8.732,29.604-23.682,35.446-41.424c11.471,7.223,19.013,19.62,19.692,33.385l-19.156-14.359l-9.594,12.797
		l32,24c1.406,1.063,3.094,1.602,4.797,1.602c1.219,0,2.445-0.281,3.578-0.844c2.711-1.359,4.422-4.125,4.422-7.156v-14
		c0-22.145-12.846-42.164-32.432-51.843c0.174-2.046,0.432-4.074,0.432-6.157c0-39.703-32.297-72-72-72s-72,32.297-72,72
		c0,2.083,0.258,4.11,0.432,6.157C-0.155,244.836-13.001,264.855-13.001,287z M74.999,315.746c5.112,2.104,10.551,3.176,16,3.176
		s10.888-1.073,16-3.176V341h-32V315.746z M23.382,314.797c0.969-3.414,4.133-5.797,7.688-5.797h3.93v40H13.609L23.382,314.797z
		 M9.968,445.344c-1.188-2.328-1.313-4.953-0.336-7.391c0.148-0.375,0.273-0.766,0.367-1.164l8.797-37.984
		c0.133-0.594,0.203-1.195,0.203-1.805v-32h16v30.506l-20.667,53.734C12.499,448.42,10.913,447.184,9.968,445.344z M66.999,509
		v81.136c-2.572-0.668-5.221-1.136-8-1.136s-5.428,0.467-8,1.136V509H66.999z M42.999,621c0-8.82,7.18-16,16-16s16,7.18,16,16
		H42.999z M90.999,621c0-8.044-3.083-15.316-8-20.944V509h16v91.056C94.082,605.684,90.999,612.956,90.999,621z M106.999,621
		c0-8.82,7.18-16,16-16s16,7.18,16,16H106.999z M130.999,590.136c-2.572-0.668-5.221-1.136-8-1.136s-5.428,0.467-8,1.136V509h16
		V590.136z M14.648,493l33.844-88h85.016l33.844,88H14.648z M163.202,398.805l8.797,37.984c0.094,0.398,0.219,0.789,0.367,1.164
		c0.977,2.438,0.852,5.063-0.336,7.391c-0.942,1.835-2.527,3.07-4.365,3.896l-20.667-53.733V365h16v32
		C162.999,397.609,163.069,398.211,163.202,398.805z M158.616,314.797L168.39,349h-21.391v-40h3.93
		C154.484,309,157.648,311.383,158.616,314.797z M130.999,389h-80v-80h8v40c0,4.422,3.578,8,8,8h48c4.422,0,8-3.578,8-8v-40h8V389z
		 M111.991,280.891c-3.016,1.227-4.992,4.156-4.992,7.414v8.952c-9.38,7.405-22.62,7.405-32,0v-8.952
		c0-3.258-1.977-6.188-4.992-7.414c-18.75-7.598-31.62-24.337-34.41-43.891h30.425c13.086,0,25.391-5.094,34.641-14.352
		l11.273-11.266c7.057,13.056,19.773,22.185,34.527,24.785C143.922,256.072,131.003,273.187,111.991,280.891z M90.999,173
		c27.697,0,50.705,20.24,55.161,46.69c-11.215-3.122-20.231-11.939-23.168-23.706l-0.242-0.953
		c-0.703-2.789-2.859-4.984-5.633-5.742c-2.75-0.781-5.734,0.008-7.773,2.055l-19.992,19.992C83.21,217.477,74.702,221,66.023,221
		H35.638C39.542,193.91,62.847,173,90.999,173z"/>
	<path style="fill:#171E07;" d="M271.069,293c-10.656,0-20.148,7.156-23.078,17.406l-12.688,44.398
		c-0.688,2.414-0.203,5.008,1.305,7.016c1.516,2,3.883,3.18,6.391,3.18v31.43l-3.398,23.766
		c-1.461,10.266,1.594,20.648,8.391,28.484c4.61,5.309,10.675,8.927,17.301,10.807l-6.199,40.295
		c-0.359,2.313,0.313,4.656,1.836,6.43c1.516,1.773,3.734,2.789,6.07,2.789h8v91.056c-4.917,5.627-8,12.899-8,20.944v8
		c0,4.422,3.578,8,8,8h48c4.422,0,8-3.578,8-8c0,4.422,3.578,8,8,8h48c4.422,0,8-3.578,8-8v-8c0-8.044-3.083-15.316-8-20.944V509h8
		c2.336,0,4.555-1.016,6.07-2.789c1.523-1.773,2.195-4.117,1.836-6.43l-6.199-40.295c6.625-1.879,12.691-5.498,17.301-10.807
		c6.797-7.836,9.852-18.219,8.391-28.492l-3.398-23.758V365c2.508,0,4.875-1.18,6.391-3.18c1.508-2.008,1.992-4.602,1.305-7.016
		l-12.688-44.398c-2.93-10.25-12.422-17.406-23.078-17.406h-11.93h-15.055c23.922-12.273,39.055-36.734,39.055-64
		c0-39.703-32.297-72-72-72s-72,32.297-72,72c0,27.266,15.133,51.727,39.055,64h-15.055H271.069z M330.999,320.313l18.344,18.344
		c1.547,1.547,3.594,2.344,5.656,2.344c1.539,0,3.086-0.438,4.437-1.344l11.563-7.708V389h-32v-56h-16v56h-32v-57.052l11.562,7.708
		c3.164,2.125,7.391,1.703,10.094-1L330.999,320.313z M338.999,493v-48h-16v48h-46.672l13.535-88h82.273l13.535,88H338.999z
		 M263.382,314.797c0.969-3.414,4.133-5.797,7.688-5.797h3.93v40h-21.391L263.382,314.797z M260.077,438.195
		c-3.75-4.336-5.445-10.07-4.633-15.742l3.477-24.32c0.055-0.375,0.078-0.758,0.078-1.133v-32h16v31.391l-7.253,47.143
		C264.836,442.379,262.18,440.612,260.077,438.195z M306.999,509v81.136c-2.572-0.668-5.221-1.136-8-1.136s-5.428,0.467-8,1.136V509
		H306.999z M282.999,621c0-8.82,7.18-16,16-16s16,7.18,16,16H282.999z M330.999,621c0-8.044-3.083-15.316-8-20.944V509h16v91.056
		C334.082,605.684,330.999,612.956,330.999,621z M346.999,621c0-8.82,7.18-16,16-16s16,7.18,16,16H346.999z M370.999,590.136
		c-2.572-0.668-5.221-1.136-8-1.136s-5.428,0.467-8,1.136V509h16V590.136z M403.077,398.133l3.477,24.313
		c0.813,5.68-0.883,11.414-4.633,15.75c-2.103,2.417-4.759,4.184-7.669,5.338l-7.253-47.143V365h16v32
		C402.999,397.375,403.023,397.758,403.077,398.133z M398.616,314.797L408.39,349h-21.391v-40h3.93
		C394.484,309,397.648,311.383,398.616,314.797z M370.999,309v3.718l-14.984,9.985l-10.209-10.209L356.288,309H370.999z
		 M330.999,173c27.697,0,50.705,20.24,55.161,46.69c-11.215-3.122-20.231-11.939-23.168-23.706l-0.242-0.953
		c-0.703-2.789-2.859-4.984-5.633-5.742c-2.75-0.781-5.734,0.008-7.773,2.055l-19.992,19.992
		c-6.141,6.141-14.648,9.664-23.328,9.664h-30.384C279.542,193.91,302.847,173,330.999,173z M275.597,237h30.425
		c13.086,0,25.391-5.094,34.641-14.352l11.273-11.266c7.057,13.056,19.773,22.185,34.527,24.785
		c-2.542,19.904-15.46,37.02-34.472,44.723c-3.016,1.227-4.992,4.156-4.992,7.414v6.932l-16,5.333l-16-5.333v-6.932
		c0-3.258-1.977-6.188-4.992-7.414C291.257,273.293,278.387,256.553,275.597,237z M305.71,309l10.482,3.494l-10.209,10.209
		l-14.984-9.985V309H305.71z"/>
</g>
</svg>
