<?xml version="1.0" encoding="iso-8859-1"?>
<!-- Generator: Adobe Illustrator 19.0.0, SVG Export Plug-In . SVG Version: 6.00 Build 0)  -->
<svg version="1.1" id="Capa_1" xmlns="http://www.w3.org/2000/svg" xmlns:xlink="http://www.w3.org/1999/xlink" x="0px" y="0px"
	 viewBox="-58 132 530 530" style="enable-background:new -58 132 530 530;" xml:space="preserve">
<path style="fill:#7F7369;" d="M279.839,388.268h-43.811c-6.632,0-12.058-5.426-12.058-12.058l-6.029-102.175
	c0,0-9.756-84.634,40.846-95.755c0,0,20.575-40.037,86.467-27.21c0.793,0.154,1.717,0.46,4.13,1.251
	c94.141,30.671,66.981,130.506,63.076,223.89c0,6.632-5.426,12.058-12.058,12.058h-46.608"/>
<path style="fill:#72655A;" d="M287.457,388.268v-14.339c-4.005-1.77-7.129-3.428-10.752-5.774c-1.748-1.13-3.473-2.349-5.013-3.53
	c-35.34-27.093-29.004-66.176-29.734-71.325c0-8.298,0-23.573,0-31.238c0-0.263,0.013-0.523,0.034-0.782
	c-0.452-24.077,3.273-74.585,41.568-83.002c0,0,12.609-24.53,49.69-29.036c-56.611-6.219-74.362,28.95-74.462,29.038
	c-34.054,7.484-42.362,49.016-41.551,83.844c0.011,0.484,0.024,0.957,0.039,1.417c0.2,6.444,0.666,10.494,0.666,10.494
	l6.029,102.175c0,6.632,5.426,12.058,12.058,12.058C246.642,388.268,275.86,388.268,287.457,388.268z"/>
<path style="fill:#DD9A5E;" d="M179.896,617.197c-0.035-2.039,0.057-3.891,0.189-5.416c0.982-8.77,13.325-119.073,14.084-125.852
	c3.45-24.07,1.466-38.272,12.843-52.078c-3.486-4.238-8.461-8.19-11.742-10.194l-0.361-0.089
	c-12.203-7.31-22.477-7.616-45.154-13.855l0,0l-23.189-11.1l0,0v-27.699c-18.506,8.183-40.804,8.709-60.468,0.158l0,0l-0.1,27.655
	l0,0l0,0l0,0l-23.09,10.986l0,0c-22.531,6.199-32.926,6.531-45.154,13.855l-0.361,0.089c-14.181,8.653-19.753,20.489-21.652,36.061
	c-0.838,7.488-6.534,58.387-7.729,69.064l0,0c-9.774,88.746-9.478,81.607-9.478,88.448c-0.153,11.263,6.756,28.268,27.749,28.268
	l0,0c4.593,0,219.367,0.006,220.726-0.016C189.372,645.189,179.64,631.759,179.896,617.197z"/>
<g>
	<path style="fill:#D38D54;" d="M-16.463,617.197c-0.101-5.86,0.029-2.625,9.478-88.413c8.338-83.929,6.142-91.861,17.546-105.823
		c1.991-2.438,4.336-4.751,7.227-6.992c-1.736,0.551-10.506,1.895-20.032,7.601l-0.361,0.089
		c-14.156,8.638-19.75,20.46-21.652,36.061c-0.837,7.482-6.52,58.259-7.729,69.064c-9.486,86.128-9.578,82.57-9.478,88.413
		c-0.318,14.848,9.803,28.303,27.749,28.303l0,0h25C-6.72,645.5-16.778,631.955-16.463,617.197z"/>
	<path style="fill:#D38D54;" d="M91.005,422.381v-45.302c-8.645-0.58-16.843-2.502-24.906-6.007l-0.1,27.656l0,0L91.005,422.381z"/>
</g>
<path style="fill:#EAB883;" d="M455.298,611.78c-17.657-156.361-16.662-151.948-18.243-159.591
	c-2.565-12.406-10.044-22.193-20.427-28.533l-0.361-0.089c-12.848-7.696-22.187-7.38-65.542-18.931
	c-1.654-0.749-2.8-3.214-2.8-6.024v-24.555c-19.695,8.589-42.069,8.006-60.469-0.129v24.684c0,2.81-1.146,5.274-2.8,6.024
	c-43.066,11.473-52.645,11.205-65.542,18.931l-0.361,0.089c-14.248,8.701-19.754,20.493-21.652,36.061
	c-17.832,160.762-17.309,151.555-17.207,157.479c0,0.012,0,0.024,0,0.035c-0.153,11.263,6.756,28.268,27.749,28.268
	c51.297,0,192.408,0,220.094,0C446.639,645.5,456.997,631.439,455.298,611.78z"/>
<path style="fill:#D8A373;" d="M204.896,617.232c0-0.011,0-0.023,0-0.035c-0.035-2.039,0.057-3.891,0.189-5.416
	c17.631-165.068,16.54-160.359,18.243-168.591c2.518-12.176,9.629-21.683,20.001-28.264c-4.206,1.274-13.794,2.4-24.214,8.642
	l-0.361,0.089c-14.247,8.701-19.754,20.494-21.652,36.061c-17.832,160.762-17.308,151.555-17.207,157.479c0,0.012,0,0.024,0,0.035
	c-0.153,11.263,6.756,28.268,27.749,28.268c15.475,0,9.523,0,25,0C211.652,645.5,204.743,628.495,204.896,617.232z"/>
<g>
	<path style="fill:#D83D3D;" d="M446.008,528.765c-8.132-72.186-7.682-70.424-8.953-76.574
		c-2.58-12.476-10.142-22.254-20.427-28.533c-0.102-0.025-0.463-0.114-0.361-0.089c-12.848-7.696-22.187-7.381-65.542-18.931
		c-1.654-0.75-2.8-3.214-2.8-6.024v-24.556l0,0v-0.129c-18.469,8.16-40.705,8.732-60.469,0v0.129l0,0v24.556
		c0,2.81-1.146,5.274-2.8,6.024c-43.066,11.473-52.645,11.205-65.542,18.931c-0.102,0.025-0.463,0.114-0.361,0.089
		c-14.254,8.702-19.794,20.822-21.652,36.061l-7.727,69.046l48.705,5.11c2.59,0.272,4.515,2.521,4.385,5.122l-5.35,106.503
		c59.613,0,101.855,0,161.447,0l-5.609-106.091c-0.15-2.83,1.943-5.281,4.762-5.577L446.008,528.765z"/>
	<path style="fill:#D83D3D;" d="M238.08,533.875l-48.673-5.107c-9.969,88.98-9.596,83.528-9.512,88.429c0,0.012,0,0.024,0,0.035
		c-0.153,11.263,6.756,28.268,27.749,28.268c7.927,0,18.003,0,29.47,0l5.35-106.503C242.596,536.396,240.67,534.146,238.08,533.875z
		"/>
</g>
<path style="fill:#A82626;" d="M197.102,459.719l-7.727,69.046l24.212,2.54c8.608-79.78,8.086-80.12,9.74-88.114
	c2.517-12.174,9.628-21.682,20.001-28.264c-3.095,1.004-13.795,2.401-24.214,8.642c-0.102,0.025-0.463,0.114-0.361,0.089
	C204.581,432.31,199.003,444.128,197.102,459.719z"/>
<g>
	<path style="fill:#70BBEF;" d="M195.09,423.658c-0.102-0.025-0.463-0.114-0.361-0.089c-12.23-7.326-22.669-7.67-44.995-13.816
		l0.021-0.04l-23.189-11.1l-0.168,0.253c-0.001-0.031-0.003-0.061-0.005-0.091l-30.242,28.474l-30.153-28.521l-23.09,10.986l0,0
		c-22.531,6.199-32.927,6.531-45.154,13.855l-0.361,0.089c-14.248,8.7-19.754,20.497-21.652,36.061l-7.729,69.064l47.774,5.012
		c3.012,0.316,5.252,2.932,5.1,5.957l-5.312,105.747c49.372,0,110.78,0,161.447,0l-5.608-106.078
		c-0.15-2.837,1.949-5.295,4.774-5.592l12.77-1.34l5.211-46.562c3.464-24.267,1.471-38.153,12.757-51.967
		C203.2,429.4,197.887,425.366,195.09,423.658z"/>
	<path style="fill:#70BBEF;" d="M202.33,440.884c0.073-0.139,0.141-0.278,0.215-0.417
		C202.471,440.605,202.403,440.745,202.33,440.884z"/>
	<path style="fill:#70BBEF;" d="M201.883,441.754c-5.688,11.554-4.895,24.428-7.714,44.175
		C196.969,466.389,196.19,453.354,201.883,441.754z"/>
	<path style="fill:#70BBEF;" d="M194.169,485.928l-0.094,0.845C194.115,486.412,194.147,486.123,194.169,485.928z"/>
	<path style="fill:#70BBEF;" d="M179.896,617.197c-0.035-2.039,0.057-3.891,0.189-5.416c0.57-5.097,4.977-44.477,8.719-77.906
		h-12.833c-2.712,0.399-4.703,2.785-4.556,5.547l5.608,106.073c17.926-0.003,29.676-0.006,29.99-0.011
		C189.373,645.189,179.64,631.759,179.896,617.197z"/>
</g>
<path style="fill:#4CAEE5;" d="M-6.985,528.783c8.338-83.929,6.142-91.861,17.546-105.823c1.991-2.438,4.336-4.751,7.227-6.992
	c-1.724,0.544-10.524,1.906-20.032,7.601l-0.361,0.089c-26.355,16.096-19.86,35.123-29.381,105.125l24.71,2.592L-6.985,528.783z"/>
<path style="fill:#EAB883;" d="M317.515,441.178c22.587,0,42.398-12.568,53.599-31.464l-20.388-5.076
	c-1.654-0.75-2.8-3.214-2.8-6.024v-27.556l0,0v-0.129c-18.586,8.212-40.818,8.682-60.469,0v0.129l0,0v27.556
	c0,2.81-1.146,5.274-2.8,6.024l-20.695,5.152C275.172,428.644,294.958,441.178,317.515,441.178z"/>
<path id="SVGCleanerId_0" style="fill:#4C4846;" d="M1.375,269.377c0.303-22.563-7.723-88.35,60.928-114.612
	c38.169-14.59,80.711-3.016,106.445,27.621c0.003,0.004,0.007,0.007,0.01,0.011c29.533,35.164,20.481,71.739,22.172,86.98"/>
<g>
	<path id="SVGCleanerId_0_1_" style="fill:#4C4846;" d="M1.375,269.377c0.303-22.563-7.723-88.35,60.928-114.612
		c38.169-14.59,80.711-3.016,106.445,27.621c0.003,0.004,0.007,0.007,0.01,0.011c29.533,35.164,20.481,71.739,22.172,86.98"/>
</g>
<path style="fill:#3F3B39;" d="M22.056,224.952c7.926-40.383,41.576-71.775,83.544-75.945c-21.383-2.123-42.873,2.963-61.097,14.829
	c-44.724,29.015-42.627,68.07-43.13,105.541h18.899C20.431,243.745,19.578,237.579,22.056,224.952z"/>
<g>
	<path style="fill:#DD9A5E;" d="M195.645,277.853c0,10.923-10.573,19.776-23.616,19.776v-39.551
		C185.071,258.078,195.645,266.931,195.645,277.853z"/>
	<path style="fill:#DD9A5E;" d="M-3.343,277.853c0,10.923,10.573,19.776,23.617,19.776v-39.551
		C7.231,258.078-3.343,266.931-3.343,277.853z"/>
</g>
<g>
	<path style="fill:#D38D54;" d="M172.029,279.853v17.776c17.725,0,28.922-15.664,21.095-28.664
		C189.237,275.422,181.253,279.853,172.029,279.853z"/>
	<path style="fill:#D38D54;" d="M-0.822,268.965c-1.609,2.673-2.521,5.69-2.521,8.887c0,10.923,10.573,19.776,23.617,19.776v-17.776
		C11.049,279.853,3.065,275.422-0.822,268.965z"/>
</g>
<path style="fill:#EDAE6B;" d="M154.524,230.136c-0.165-6.503-6.088-11.33-12.515-10.329c-0.076,0.012-1.446,0.221-1.853,0.282
	c-29.259,4.352-58.525,4.585-89.859-0.282c-6.427-1.001-12.35,3.826-12.515,10.329c-0.077,3.067-0.505,6.338-1.36,9.375
	c-1.62,5.759-4.737,10.74-9.05,14.473c-3.792,3.286-6.998,4.375-7.098,4.437c0,26.838,0,19.311,0,45.974
	c0,22.588,9.971,44.255,28.239,59.048c43.694,35.276,108.747,12.317,121.475-41.496c2.773-11.724,2.045-16.488,2.045-63.525
	C163.295,255.155,154.901,245.061,154.524,230.136z"/>
<path style="fill:#DD9A5E;" d="M45.507,321.463c-0.903-7.495-0.594-8.976-0.634-53.945c0-4.207,2.201-6.873,3.756-8.237
	c1.869-1.274,3.496-2.719,4.955-4.306c1.731-1.884,3.302-4.098,4.573-6.509c0.083-0.158,0.508-1,0.747-1.517
	c5.939-12.828,0.613-19.338,7.93-25.034c-5.711-0.571-11.247-1.286-16.538-2.107c-6.427-1.001-12.35,3.826-12.515,10.329
	c-0.082,3.124-0.514,6.366-1.36,9.375c-1.613,5.71-4.683,10.693-9.05,14.473c-3.792,3.286-6.998,4.375-7.098,4.437
	c0,26.838,0,19.311,0,45.974c0,31.963,20.191,51.386,20.385,51.745c2.725,2.908,5.058,5.041,7.853,7.303
	c9.008,7.274,19.516,12.245,28.984,14.504C77.35,377.838,48.153,343.397,45.507,321.463z"/>
<path style="fill:#DADADA;" d="M126.567,398.614L96.152,427.25l16.419,16.546c3.135,3.16,8.331,2.852,11.072-0.656l26.113-33.426
	L126.567,398.614z"/>
<g>
	<polygon style="fill:#CECCCA;" points="138.244,404.203 126.567,398.614 96.153,427.25 107.017,438.199 	"/>
	<path style="fill:#CECCCA;" d="M114.804,445.331c1.374,0.614,2.887,0.788,4.336,0.526L114.804,445.331z"/>
</g>
<path style="fill:#DADADA;" d="M65.999,398.728l30.154,28.522l-16.419,16.546c-3.135,3.16-8.331,2.852-11.072-0.656l-26.113-33.426
	L65.999,398.728z"/>
<polygon style="fill:#CECCCA;" points="74.895,427.139 85.288,438.199 96.153,427.25 65.999,398.728 53.637,404.519 "/>
<path style="fill:#D8A373;" d="M312.583,413.892v-36.821c-8.993-0.616-17.485-2.766-25.126-6.142c0,9.823,0,16.871,0,27.684
	c0,2.81-1.146,5.274-2.8,6.024l-20.695,5.152c5.152,8.665,12.118,15.991,20.33,21.381l21.485-7.9
	C305.778,423.269,312.583,419.892,312.583,413.892z"/>
<path style="fill:#F7CF9C;" d="M386.083,279.574c4.27,0.199,7.634,3.715,7.634,7.989v5.738l0,0l0,0
	c-0.019,9.691,0.326,15.829-1.119,24.152c-9.242,53.159-70.186,80.264-115.893,50.704c-1.762-1.139-3.488-2.361-5.013-3.53
	c-35.403-27.138-28.991-66.09-29.734-71.325v-27.395l0,0v-3.843c0-4.465,3.146-8.283,7.514-9.207
	c7.75-1.639,20.272-6.091,31.631-18.181c2.855-3.038,7.725-2.88,10.379,0.335C302.504,248.364,332.269,277.059,386.083,279.574z"/>
<path style="fill:#EAB883;" d="M289.876,358.733c-0.184-0.179-0.36-0.365-0.542-0.546c-0.551-0.549-1.099-1.1-1.634-1.666
	c-0.07-0.075-0.14-0.15-0.21-0.225c-0.009-0.01-0.018-0.02-0.027-0.03c-0.049-0.053-0.099-0.106-0.148-0.159
	c-0.464-0.495-0.917-1.001-1.363-1.512c-25.773-29.533-17.347-57.238-18.992-79.295v-27.395v-1.896
	c-6.676,3.917-12.914,5.879-17.486,6.846c-4.368,0.924-7.514,4.741-7.514,9.207v3.843V293.3c0.685,4.829-6.412,46.53,32.93,73.644
	c1.142,0.789,2.63,1.736,2.784,1.833c15.324,9.574,33.891,13.561,52.666,10.45C329.61,379.107,300.695,369.281,289.876,358.733z"/>
<g>
	<path style="fill:#B72C2C;" d="M385.742,413.355l-14.628-3.641c-11.202,18.897-31.012,31.464-53.599,31.464
		C317.515,441.178,386.045,509.715,385.742,413.355z"/>
	<path style="fill:#B72C2C;" d="M249.612,413.355l14.627-3.641c11.202,18.897,31.012,31.464,53.599,31.464
		C317.838,441.178,249.309,509.715,249.612,413.355z"/>
</g>
<g>
	<path style="fill:#A82626;" d="M285.239,431.581c-12.092,6.438-26.025,9.509-34.949-2.429c7.1,72.476,67.546,12.026,67.546,12.026
		C305.911,441.178,294.759,437.671,285.239,431.581z"/>
	<path style="fill:#A82626;" d="M350.114,431.581c12.092,6.438,26.025,9.509,34.949-2.429c-7.1,72.476-67.547,12.026-67.547,12.026
		C329.442,441.178,340.593,437.671,350.114,431.581z"/>
</g>
<path style="fill:#2B3511;" d="M253.727,413.519c-38.204-42.84-109.089-15.383-109.089,41.557v19.224h124.924
	C268.354,464.402,274.934,436.848,253.727,413.519z"/>
<path style="fill:#191E0B;" d="M213.24,392.915c-36.211-3.504-67.32,24.208-68.56,59.985c-0.077,2.266-0.025,1.524-0.042,21.4
	h12.282v-19.224C156.918,422.983,181.291,396.038,213.24,392.915z"/>
<g>
	<path style="fill:#EFD0A3;" d="M277.044,481.503c0,9.223-8.927,16.698-19.94,16.698v-33.394
		C268.117,464.807,277.044,472.282,277.044,481.503z"/>
	<path style="fill:#EFD0A3;" d="M137.153,481.503c0,9.223,8.928,16.698,19.94,16.698v-33.394
		C146.079,464.807,137.153,472.282,137.153,481.503z"/>
</g>
<g>
	<path style="fill:#E2BF91;" d="M257.106,483.868v14.333c14.628,0,24.294-12.79,17.989-23.864
		C271.889,479.967,265.05,483.868,257.106,483.868z"/>
	<path style="fill:#E2BF91;" d="M139.104,474.337c-6.358,11.167,3.476,23.864,17.989,23.864v-14.333
		C149.147,483.868,142.308,479.967,139.104,474.337z"/>
</g>
<path style="fill:#EFD0A3;" d="M292.14,645.5c-5.56-47.973-5.268-47.99-6.256-52.765c-1.691-8.178-6.62-14.625-13.462-18.805
	l-0.237-0.059c-8.456-5.066-14.548-4.844-43.195-12.476c-3.163-1.432-1.326-7.582-1.845-23.248
	c-12.27,5.437-27.005,5.697-39.851,0.105v19.173c0,1.852-0.755,3.476-1.846,3.97c-28.545,7.605-34.726,7.403-43.195,12.476
	l-0.237,0.059c-9.406,5.745-13.021,13.529-14.27,23.766L122.3,645.5L292.14,645.5L292.14,645.5z"/>
<path style="fill:#92C62C;" d="M292.14,645.5c-5.56-47.973-5.268-47.99-6.256-52.765c-1.691-8.183-6.737-14.697-13.462-18.805
	l-0.237-0.059c-8.143-4.878-14.488-4.889-33.834-10.146c-15.097,21.722-47.162,21.729-62.264,0
	c-19.513,5.302-25.721,5.286-33.834,10.146l-0.237,0.059c-9.726,5.941-13.068,13.907-14.27,23.766L122.3,645.5
	C142.756,645.5,270.949,645.5,292.14,645.5z"/>
<path style="fill:#6D9420;" d="M153.8,569.275c-0.219,0.072-5.769,1.136-11.548,4.598l-0.237,0.059
	c-9.908,6.052-13.1,14.171-14.27,23.766l-5.448,47.804h15l5.448-54.804C143.803,582.017,146.293,575.187,153.8,569.275z"/>
<path style="fill:#E2BF91;" d="M193.116,577.3l11.665-2.904c3.224-1.46,1.257-7.445,1.846-32.064
	c-6.817-0.04-13.482-1.533-19.333-4.08v19.173c0,1.852-0.755,3.476-1.846,3.97l-9.361,2.33l0,0
	C180.285,569.767,186.197,574.52,193.116,577.3z"/>
<path style="fill:#FCE3BB;" d="M254.568,461.188c-0.772-0.186-1.371-0.384-1.472-0.414l0,0c-4.721-1.509-12.877-5.858-19.407-18.388
	c-1.326-2.544-5.001-2.482-6.233,0.11c-6.001,12.622-30.12,30.116-67.035,20.018c-1.633-0.447-3.329,0.746-3.329,2.556v30.263
	c0,21.465,13.615,40.158,33.272,47.131c32.48,11.545,66.743-12.637,66.743-47.131V465.07
	C257.107,462.76,255.713,461.685,254.568,461.188z"/>
<path style="fill:#EFD0A3;" d="M182.509,501.826c-0.716-5.522-0.298-7.479-0.418-36.311c-6.618,0.028-13.854-0.863-21.671-3.001
	c-1.633-0.447-3.329,0.746-3.329,2.556v30.263c0,32.435,30.723,56.645,62.508,48.424C200.045,538.7,185.155,522.215,182.509,501.826
	z"/>
<path style="fill:#171E07;" d="M445.716,458.785c-2.177-17.838-9.251-31.818-25.188-41.554c-11.546-7.07-20.895-8.17-65.112-19.179
	v-2.311h44.136c10.702,0,19.425-8.64,19.557-19.312c5.571-94.47,6.411-105.293,6.031-109.758c0-4.143-3.357-7.5-7.5-7.5
	s-7.5,3.357-7.5,7.5v7.115c-6.291,106.693-6.029,101.963-6.029,102.395c0,2.471-2.088,4.559-4.559,4.559h-44.136V378.8
	c2.419-1.617,20.344-9.52,33.359-30.606c14.415-23.261,12.407-42.922,12.433-61.961c0-7.629-5.951-13.833-13.549-14.124h-0.001
	c-55.62-2.126-84.16-33.653-91.584-43.266c-2.279-2.952-5.726-4.718-9.455-4.846c-3.714-0.113-7.302,1.4-9.783,4.193
	c-11.672,13.139-24.874,17.296-31.705,18.604c-6.189,1.186-10.682,6.628-10.682,12.941c0.027,47.141-0.058,44.544,0.068,47.86
	c0.201,29.277,19.905,58.703,45.431,71.058v2.085h-44.771c-2.471,0-4.558-2.088-4.558-4.559c0-0.437,0.251,4.107-6.042-102.616
	c-0.009-0.137-0.021-0.277-0.036-0.412c-0.089-0.779-8.374-78.043,35.006-87.576c2.183-0.479,4.039-1.909,5.061-3.897
	c0.181-0.35,18.683-34.897,78.368-23.274c23.756,4.53,59.303,32.819,65.978,74.453c0.655,4.089,4.497,6.866,8.593,6.218
	c4.09-0.655,6.874-4.503,6.218-8.593c-2.888-19.721-12.705-40.539-27.549-56.337l-0.533-0.57
	c-14.894-15.776-37.06-27.408-49.846-29.897c-20.119-3.916-49.175-5.394-73.366,9.807c-10.418,6.544-16.492,14.095-19.303,18.234
	c-22.131,6.284-36.629,26.018-42.021,57.306c-3.854,22.358-1.804,43.108-1.532,45.616c7.025,108.488,4.616,104.428,8.683,111.378
	c-21.313-3.427-43.006,2.665-59.445,18.205l-6.556-1.633c-0.181-0.087-16.685-7.986-18.241-8.73v-15.223
	c37.148-18.43,43.092-55.299,43.451-55.977c1.302-5.864,2.015-12.067,2.015-18.294v-0.073c13.544-2.951,23.612-13.697,23.612-26.47
	c0-5.291-1.733-10.231-4.72-14.418c0.123-19.725,0.681-31.328-3.543-46.884c-1.081-2.753-4.621-20.176-20.32-38.903
	c-0.024-0.03-0.05-0.061-0.074-0.09c-29.014-34.509-79.054-47.681-123.939-25.809C16.482,168.705-6.135,203.73-6.135,243.287
	c0.001,6.583-0.002,19.324,0.003,20.122c-11.15,15.627-1.63,36.419,18.897,40.889c0.685,34.007,18.977,60.842,45.825,74.52v14.874
	l-18.99,9.09c-20.689,5.792-36.741,7.306-49.028,16.417c-14.883,11.363-20.098,21.658-22.29,39.662
	C-49.51,619.794-49.095,610.022-48.973,617.188c-0.217,19.113,13.143,35.788,35.249,35.788l65.564-0.001c4.143,0,7.5-3.357,7.5-7.5
	c0-4.143-3.357-7.5-7.5-7.5H23.66l7.437-140.669c0.219-4.136-2.957-7.666-7.094-7.885c-4.121-0.23-7.667,2.957-7.885,7.094
	l-1.564,29.586l-38.257-4.013l0.125-1.114c7.721-61.141,4.946-70.405,15.265-82.675l0.086-0.103
	c12.565-14.837,32.487-15.165,47.912-19.979l23.056,29.514c5.513,7.06,15.983,7.692,22.306,1.323l3.596-3.624v36.294
	c0,4.143,3.357,7.5,7.5,7.5c4.143,0,7.5-3.357,7.5-7.5v-36.293l3.595,3.623c2.804,2.825,6.614,4.401,10.57,4.401
	c0.293,0,0.588-0.009,0.882-0.025c4.267-0.254,8.223-2.33,10.854-5.698l10.539-13.49c-4.37,14.077-2.836,24.652-3.159,30.631
	c-14.377,13.47-7.045,35.566,13.26,40.073c2.891,16.921,13.161,32.094,29.396,40.983v9.121
	c-26.458,7.126-47.266,7.419-56.682,29.856c-0.404,0.964-0.676,1.767-0.962,2.69c-0.384,1.216-0.744,2.646-0.941,3.594
	c-1.155,5.592-1.2,9.129-5.606,46.785H86.841c-4.143,0-7.5,3.357-7.5,7.5c0,4.143,3.357,7.5,7.5,7.5h35.242h0.092
	c0.006,0,0.012,0.001,0.017,0.001c0.007,0,0.014-0.001,0.021-0.001h169.585c0,0,0.014,0.001,0.021,0.001
	c0,0,0.012-0.001,0.017-0.001h0.09h31.653c4.143,0,7.5-3.357,7.5-7.5c0-4.143-3.357-7.5-7.5-7.5h-24.959
	c-4.072-29.911-3.685-42.762-7.081-51.976c-4.514-12.313-15.5-20.547-27.401-23.555l-29.708-7.396v-9.251
	c15.622-8.565,26.308-23.759,29.157-40.853c0.103-0.058,17.462-3.229,20.39-19.605c0.834-4.564,0.2-9.385-2.098-13.841
	c14.279-2.905,28.24-13.459,35.786-20c38.224,33.156,72.553,29.004,75.355-28.627c5.5,1.707,31.486,5.686,36.68,30.811
	c0.39,1.884,0.838,4.557,1.118,6.843l6.886,61.542l-37.957,3.982l-1.561-29.537c-0.218-4.137-3.797-7.333-7.885-7.094
	c-4.137,0.219-7.313,3.749-7.094,7.885l7.436,140.669h-32.066c-4.143,0-7.5,3.357-7.5,7.5s3.357,7.5,7.5,7.5l69.149,0.001
	c10.103,0,18.776-3.379,25.083-9.772c6.484-6.572,10.283-16.302,10.167-26.038C463.074,610.845,463.589,619.744,445.716,458.785z
	 M13.302,541.052l-4.869,96.923h-22.158c-13.044,0-19.962-8.537-20.25-20.93c-0.09-5.31,0.195-3.513,8.604-80.051L13.302,541.052z
	 M276.726,414.314l9.732-2.422c0.441-0.11,0.871-0.26,1.285-0.447c4.376-1.984,7.203-7.03,7.203-12.855l0.001-14.033
	c13.57,3.852,27.905,4.599,45.468,0.083v13.95c0,5.826,2.828,10.873,7.205,12.855c0.414,0.188,0.844,0.337,1.284,0.447l9.707,2.417
	C336.605,440.058,298.779,440.112,276.726,414.314z M264.393,488.757V474.2c2.672,1.528,4.938,4.176,4.938,7.278
	C269.331,485.372,266.377,487.269,264.393,488.757z M276.845,457.185c-0.152-1.137,0.818-11.589-3.877-25.132
	c7.891,6.76,17.07,11.637,26.967,14.289C292.779,451.482,284.143,456.388,276.845,457.185z M267.956,351.148
	c-23.731-26.368-18.486-50.154-18.508-89.924c8.599-1.873,23.288-6.989,36.604-20.9c10.658,12.86,42.444,44.234,100.155,46.741
	c-0.032,19.935,0.056,16.377-0.067,20.402l-0.003-0.023c-0.673,2.694,0.706,27.465-24.511,49.432l0,0
	c-0.103,0.084-0.969,0.79-0.865,0.706c-23.471,18.961-56.106,19.784-79.993,4.252C279.257,360.857,269.651,352.772,267.956,351.148z
	 M279.947,398.055l-24.984,6.219c-3.775-3.577-6.785-5.897-10.987-8.53h35.971V398.055z M243.295,413.884L243.295,413.884
	c-0.005,0.039,0.087,0.034,0.083,0.073l0,0c8.866,7.883,14.926,18.075,17.492,30.748c1.259,6.597,0.921,11.926,0.976,12.958
	c-2.52-3.1-5.491-3.677-6.68-4.055c-3.305-1.057-9.652-4.373-15.04-14.712c-4.212-8.08-15.791-7.777-19.657,0.355
	c-4.387,9.225-24.405,25.271-58.285,16.005c-3.28-0.893-6.822-0.145-9.515,2.313c-0.251,0.034-0.498,0.078-0.746,0.118
	c0.02-4.925,0.059-5.114,0.055-5.013C153.902,406.902,208.591,383.2,243.295,413.884z M149.377,474.2v14.546
	C142.533,484.836,143.118,477.759,149.377,474.2z M96.143,416.924l-22.554-21.235v-11.04c14.955,4.206,30.679,4.03,45.288-0.052
	v10.921L96.143,416.924z M179.522,288.641v-21.625C190.976,271.741,190.978,283.915,179.522,288.641z M10.417,226.846
	c0.869-2.325,4.174-27.842,27.771-48.812h-0.001c3.159-2.446,8.348-7.903,21.727-14.172c28.83-13.166,64.1-11.093,94.182,14.173
	c20.345,18.074,24.795,38.574,26.289,42.373c4.186,15.437,2.719,26.343,3.034,32.048c-3.232-1.12-6.725-1.777-10.377-1.881
	c-1.902-1.075-3.662-2.564-5.047-4.089c-10.226-11.782-1.552-20.906-12.521-30.06c-7.734-6.454-15.14-3.988-28.827-2.198
	c-63.746,6.873-76.536-8.898-89.833,2.198c-3.922,3.273-6.391,8.006-6.559,13.877c-0.601,15.925-10.358,19.538-11.008,20.271
	c-3.654,0.104-7.148,0.762-10.381,1.881C8.961,244.606,8.382,237.495,10.417,226.846z M12.764,267.014v21.629
	C1.303,283.917,1.302,271.74,12.764,267.014z M27.763,304.371c0-8.347,0-27.077,0-41.415c5.677-4.091,9.852-7.407,13.587-15.332
	c2.143-4.529,3.708-10.24,3.919-17.322c0.049-1.942,1.875-3.426,3.864-3.108c79.198,10.544,97.641-6.46,97.883,3.104
	c0.476,16.768,9.693,25.99,9.841,26.238c2.753,3.04,4.519,4.153,7.662,6.419c0.001,7.8-0.002,33.88,0.003,34.708
	c-0.496,2.166,5.328,44.737-37.02,67.486h0.001c-0.106,0.044-11.032,6.321-26.833,7.433c-3.97,0.26-7.878,0.089-7.777,0.091
	C55.785,370.942,27.763,340.165,27.763,304.371z M74.488,438.402L54.293,412.55l10.159-4.862l20.945,19.721L74.488,438.402z
	 M117.798,438.402l-10.908-10.993l21.065-19.835l10.136,4.852L117.798,438.402z M204.143,552.75c0.182,0.009,0.361,0.015,0.542,0.02
	l0.535,0.018c5.42,0.144,10.684-0.465,14.21-1.347c0.371,2.882-1.645,11.264,4.626,15.809c-10.309,6.994-23.776,7.007-34.105,0
	c6.253-4.532,4.27-13.001,4.627-15.755C197.541,552.142,200.776,552.593,204.143,552.75z M172.985,572.15
	c8.569,9.694,20.939,15.351,34.019,15.351c13.081,0,25.451-5.656,34.019-15.351l0.32,0.08c15.15,4.136,20.247,4.144,26.774,8.053
	c13.665,8.188,9.81,18.289,15.325,57.693h-19.963l-0.888-16.188c-0.227-4.137-3.763-7.311-7.899-7.077
	c-4.136,0.227-7.305,3.764-7.077,7.899l0.843,15.365h-82.701l0.843-15.365c0.228-4.136-2.941-7.673-7.077-7.899
	c-4.159-0.224-7.673,2.941-7.899,7.077l-0.888,16.188H130.57c4.969-42.63,2.866-50.229,15.324-57.693
	C152.118,576.55,156.164,576.607,172.985,572.15z M224.928,533.806c-0.338,0.042-22.952,12.144-44.723-5.413
	c-0.241-0.335-13.128-9.357-15.473-27.559c-0.637-4.888-0.229-8.79-0.355-29.632c32.931,6.812,55.884-6.414,65.926-19.529
	c6.659,9.805,14.24,14.018,19.087,15.805c-0.014,32.108,0.046,28.041-0.077,30.271c-0.031,0.549-0.068,1.067-0.112,1.566
	C247.774,514.644,238.184,527.597,224.928,533.806z M365.422,456.395c-8.692,3.626-22.392-4.519-30.12-10.107
	c15.924-4.415,29.466-14.076,39.197-28.024l3.658,0.911C377.532,440.073,373.072,453.205,365.422,456.395z M442.133,632.669
	c-7.952,8.059-18.746,4.348-36.469,5.306l-5.124-96.925l38.832-4.074l8.45,75.516C448.454,619.95,447.431,627.299,442.133,632.669z"
	/>
<rect x="386" y="42" style="fill:#171E07;" width="54" height="54"/>
<rect x="454" y="42" style="fill:#2B3511;" width="54" height="54"/>
<rect x="522" y="42" style="fill:#6D9420;" width="54" height="54"/>
<rect x="590" y="42" style="fill:#92C62C;" width="54" height="54"/>
<rect x="658" y="42" style="fill:#E9F4D4;" width="54" height="54"/>
</svg>
