<?xml version="1.0" encoding="iso-8859-1"?>
<!-- Generator: Adobe Illustrator 19.0.0, SVG Export Plug-In . SVG Version: 6.00 Build 0)  -->
<svg version="1.1" id="Layer_1" xmlns="http://www.w3.org/2000/svg" xmlns:xlink="http://www.w3.org/1999/xlink" x="0px" y="0px"
	 viewBox="0 0 376 384" style="enable-background:new 0 0 376 384;" xml:space="preserve">
<g>
	<path style="fill:#92C62C;" d="M224,48l-36-6V18l36,6V48z M224,48"/>
	<path style="fill:#92C62C;" d="M254,366H122V114l66-48l66,48V366z M254,366"/>
	<path style="fill:#E9F4D4;" d="M218,150c0,16.57-13.43,30-30,30s-30-13.43-30-30s13.43-30,30-30S218,133.43,218,150L218,150z
		 M218,150"/>
	<rect x="254" y="114" style="fill:#6D9420;" width="96" height="252"/>
	<path style="fill:#EB423F;" d="M194,156h-6c-3.312,0-6-2.688-6-6v-12c0-3.312,2.688-6,6-6c3.312,0,6,2.688,6,6v6
		c3.312,0,6,2.688,6,6S197.312,156,194,156L194,156z M194,156"/>
	<rect x="146" y="204" style="fill:#6D9420;" width="84" height="24"/>
	<path style="fill:#6D9420;" d="M188,258c19.883,0,36,16.117,36,36v72h-72v-72C152,274.117,168.117,258,188,258L188,258z M188,258"
		/>
	<rect x="26" y="114" style="fill:#6D9420;" width="96" height="252"/>
	<rect x="56" y="144" style="fill:#E9F4D4;" width="36" height="48"/>
	<rect x="56" y="216" style="fill:#E9F4D4;" width="36" height="48"/>
	<rect x="56" y="288" style="fill:#E9F4D4;" width="36" height="48"/>
	<rect x="284" y="144" style="fill:#E9F4D4;" width="36" height="48"/>
	<rect x="284" y="216" style="fill:#E9F4D4;" width="36" height="48"/>
	<rect x="284" y="288" style="fill:#E9F4D4;" width="36" height="48"/>
	<path style="fill:#171E07;" d="M188,186c14.562,0,27.688-8.77,33.258-22.223c5.574-13.453,2.492-28.937-7.801-39.234
		c-10.297-10.293-25.781-13.375-39.234-7.801C160.77,122.312,152,135.438,152,150C152.023,169.871,168.129,185.977,188,186L188,186z
		 M188,126c9.707,0,18.457,5.848,22.172,14.816c3.715,8.969,1.664,19.289-5.203,26.153c-6.864,6.867-17.184,8.918-26.153,5.203
		C169.848,168.457,164,159.707,164,150C164.016,136.75,174.75,126.016,188,126L188,126z M188,126"/>
	<path style="fill:#171E07;" d="M188,156h6c3.312,0,6-2.688,6-6s-2.688-6-6-6v-6c0-3.312-2.688-6-6-6c-3.312,0-6,2.688-6,6v12
		C182,153.312,184.688,156,188,156L188,156z M188,156"/>
	<path style="fill:#171E07;" d="M236,228v-24c0-3.312-2.688-6-6-6h-84c-3.312,0-6,2.688-6,6v24c0,3.312,2.688,6,6,6h84
		C233.312,234,236,231.312,236,228L236,228z M224,222h-72v-12h72V222z M224,222"/>
	<path style="fill:#171E07;" d="M50,198h48c3.312,0,6-2.688,6-6c0-3.312-2.688-6-6-6v-42c0-3.312-2.688-6-6-6H56
		c-3.312,0-6,2.688-6,6v42c-3.312,0-6,2.688-6,6C44,195.312,46.688,198,50,198L50,198z M62,150h24v36H62V150z M62,150"/>
	<path style="fill:#171E07;" d="M98,258v-42c0-3.312-2.688-6-6-6H56c-3.312,0-6,2.688-6,6v42c-3.312,0-6,2.688-6,6s2.688,6,6,6h48
		c3.312,0,6-2.688,6-6S101.312,258,98,258L98,258z M62,222h24v36H62V222z M62,222"/>
	<path style="fill:#171E07;" d="M98,330v-42c0-3.312-2.688-6-6-6H56c-3.312,0-6,2.688-6,6v42c-3.312,0-6,2.688-6,6s2.688,6,6,6h48
		c3.312,0,6-2.688,6-6S101.312,330,98,330L98,330z M62,294h24v36H62V294z M62,294"/>
	<path style="fill:#171E07;" d="M278,198h48c3.312,0,6-2.688,6-6c0-3.312-2.688-6-6-6v-42c0-3.312-2.688-6-6-6h-36
		c-3.312,0-6,2.688-6,6v42c-3.312,0-6,2.688-6,6C272,195.312,274.688,198,278,198L278,198z M290,150h24v36h-24V150z M290,150"/>
	<path style="fill:#171E07;" d="M278,270h48c3.312,0,6-2.688,6-6s-2.688-6-6-6v-42c0-3.312-2.688-6-6-6h-36c-3.312,0-6,2.688-6,6v42
		c-3.312,0-6,2.688-6,6S274.688,270,278,270L278,270z M290,222h24v36h-24V222z M290,222"/>
	<g>
		<defs>
			<rect id="SVGID_1_" x="8" y="12" width="360" height="360"/>
		</defs>
		<clipPath id="SVGID_2_">
			<use xlink:href="#SVGID_1_"  style="overflow:visible;"/>
		</clipPath>
		<path style="clip-path:url(#SVGID_2_);fill:#171E07;" d="M278,342h48c3.312,0,6-2.688,6-6s-2.688-6-6-6v-42c0-3.312-2.688-6-6-6
			h-36c-3.312,0-6,2.688-6,6v42c-3.312,0-6,2.688-6,6S274.688,342,278,342L278,342z M290,294h24v36h-24V294z M290,294"/>
		<path style="clip-path:url(#SVGID_2_);fill:#171E07;" d="M362,120c3.312,0,6-2.688,6-6s-2.688-6-6-6H255.949L194,62.945V49.082
			l29.016,4.836c1.738,0.289,3.515-0.199,4.863-1.34C229.223,51.438,230,49.762,230,48V24c0-2.934-2.121-5.438-5.016-5.918l-36-6
			v0.004c-1.738-0.301-3.523,0.184-4.871,1.324c-1.351,1.145-2.125,2.824-2.113,4.59v44.945L120.051,108H14c-3.312,0-6,2.688-6,6
			s2.688,6,6,6h6v240h-6c-3.312,0-6,2.688-6,6s2.688,6,6,6h348c3.312,0,6-2.688,6-6s-2.688-6-6-6h-6V120H362z M182,360h-24v-66
			c0.02-14.25,10.043-26.527,24-29.395V360z M194,264.605c13.957,2.868,23.98,15.145,24,29.395v66h-24V264.605z M188,252
			c-23.184,0.027-41.973,18.816-42,42v66h-18V117.055l60-43.637l60,43.637V360h-18v-66C229.973,270.816,211.184,252.027,188,252
			L188,252z M218,40.918l-24-4V25.082l24,4V40.918z M32,120h84v240H32V120z M344,360h-84V120h84V360z M344,360"/>
	</g>
</g>
<rect x="62" y="-196" style="fill:#171E07;" width="54" height="54"/>
<rect x="130" y="-196" style="fill:#2B3511;" width="54" height="54"/>
<rect x="198" y="-196" style="fill:#6D9420;" width="54" height="54"/>
<rect x="266" y="-196" style="fill:#92C62C;" width="54" height="54"/>
<rect x="334" y="-196" style="fill:#E9F4D4;" width="54" height="54"/>
</svg>
