<?xml version="1.0" encoding="iso-8859-1"?>
<!-- Generator: Adobe Illustrator 19.0.0, SVG Export Plug-In . SVG Version: 6.00 Build 0)  -->
<svg version="1.1" id="Layer_1" xmlns="http://www.w3.org/2000/svg" xmlns:xlink="http://www.w3.org/1999/xlink" x="0px" y="0px"
	 viewBox="0 0 382 388" style="enable-background:new 0 0 382 388;" xml:space="preserve">
<g>
	<path style="fill:#6D9420;" d="M335,355.281V374H227v-18.719c0-10.32,6.602-19.5,16.441-22.742L263,326h36l19.559,6.539
		C328.398,335.781,335,344.961,335,355.281L335,355.281z M335,355.281"/>
	<path style="fill:#FCD770;" d="M227,355.281V374H119v-18.719c0-10.32,6.602-19.5,16.441-22.742L155,326h36l19.559,6.539
		C220.398,335.781,227,344.961,227,355.281L227,355.281z M227,355.281"/>
	<path style="fill:#92C62C;" d="M119,355.281V374H11v-21.18c0-9.058,5.16-17.398,13.262-21.48L35,326v24h60v-24l10.738,5.34
		C113.84,335.422,119,343.762,119,352.82V355.281z M119,355.281"/>
	<path style="fill:#2B3511;" d="M203,284c0,11.82-2.762,23.52-8.039,34.078L191,326h-36l-3.961-7.922
		C145.762,307.52,143,295.82,143,284c0-8.281,3.359-15.781,8.762-21.238C157.219,257.359,164.719,254,173,254
		c8.281,0,15.781,3.359,21.238,8.762C199.641,268.219,203,275.719,203,284L203,284z M203,284"/>
	<path style="fill:#2B3511;" d="M311,284c0,11.82-2.762,23.52-8.039,34.078L299,326h-36l-3.961-7.922
		C253.762,307.52,251,295.82,251,284c0-8.281,3.359-15.781,8.762-21.238c2.636-2.641,5.758-4.742,9.238-6.242v-0.059
		c3.66-1.563,7.738-2.461,12-2.461c8.281,0,15.781,3.359,21.238,8.762C307.641,268.219,311,275.719,311,284L311,284z M311,284"/>
	<path style="fill:#2B3511;" d="M95,326v24H35v-66c0-16.559,13.441-30,30-30c8.281,0,15.781,3.359,21.238,8.762
		C91.641,268.219,95,275.719,95,284V326z M95,326"/>
	<path style="fill:#E9F4D4;" d="M11,206V14h286.859c-11.039,0-21.839,3-31.32,8.641c-4.859,2.879-8.699,6.961-11.398,11.699
		c-2.7,4.738-4.141,10.199-4.141,15.84v1.199c0,6.723,2.039,13.141,5.578,18.48C253.219,72.02,251,75.738,251,80
		c0,3.301,1.32,6.301,3.539,8.461C256.699,90.68,259.699,92,263,92h12c0,9.781,4.738,18.539,12.059,23.941L287,116v18l-28.199,5.641
		c-1.199,0.238-2.403,0.539-3.539,0.961L239,146l-31.738-28.262l-17.524-15.539C186.68,99.5,182.781,98,178.699,98h-1.078
		c-4.621,0-8.762,1.859-11.762,4.859S161,110,161,114.621c0,4.68,1.98,9.18,5.52,12.301l16.621,14.937L207.5,163.82
		c8.699,7.86,19.98,12.18,31.68,12.18c3.84,0,7.742-0.48,11.461-1.441l18.179-4.5c0.121,0.781,0.18,1.621,0.18,2.402V206H11z
		 M11,206"/>
	<path style="fill:#6D9420;" d="M341,230v96h-42l3.961-7.922C308.238,307.52,311,295.82,311,284c0-8.281-3.359-15.781-8.762-21.238
		C296.781,257.359,289.281,254,281,254c-4.262,0-8.34,0.898-12,2.461V230H341z M341,230"/>
	<path style="fill:#92C62C;" d="M341,218v12h-72v-57.539c0-0.781-0.059-1.621-0.18-2.402l-18.179,4.5
		C246.922,175.52,243.02,176,239.18,176c-11.7,0-22.981-4.32-31.68-12.18l-24.359-21.961l24.121-24.121L239,146l16.262-5.398
		c1.136-0.422,2.34-0.723,3.539-0.961L287,134l2.219,6.602C291.5,147.441,297.859,152,305,152c7.141,0,13.5-4.559,15.781-11.398
		L323,134l24.301,4.859c3.777,0.782,7.379,2.219,10.558,4.379c8.219,5.461,13.141,14.703,13.141,24.543V218H341z M341,218"/>
	<path style="fill:#2B3511;" d="M359,50v1.379c0,6.723-2.039,13.141-5.578,18.48C351.559,68.66,349.34,68,347,68h-12v-0.059h-1.02
		c-10.859,0-21.3-4.32-28.98-12c-7.68,7.68-18.121,12-28.98,12H275V68h-12c-2.34,0-4.559,0.66-6.422,1.859
		C253.039,64.52,251,58.102,251,51.379V50.18c0-5.641,1.441-11.102,4.141-15.84c2.699-4.738,6.539-8.82,11.398-11.699
		C276.02,17,286.82,14,297.859,14H299c15.66,0.301,30.719,6.719,41.82,17.82L341,32C350.961,32,359,40.039,359,50L359,50z M359,50"
		/>
	<path style="fill:#F0D0B4;" d="M207.262,117.738l-24.121,24.121l-16.621-14.937c-3.54-3.121-5.52-7.621-5.52-12.301
		c0-4.621,1.859-8.762,4.859-11.762S173,98,177.621,98h1.078c4.082,0,7.981,1.5,11.039,4.199L207.262,117.738z M207.262,117.738"/>
	<path style="fill:#F0D0B4;" d="M371,218v21c0,8.281-6.719,15-15,15c-4.141,0-7.922-1.68-10.621-4.379S341,243.141,341,239v-21H371z
		 M371,218"/>
	<path style="fill:#F0D0B4;" d="M355.461,71.539C357.68,73.699,359,76.699,359,80c0,6.602-5.398,12-12,12h-12V68h12
		c2.34,0,4.559,0.66,6.422,1.859C354.141,70.34,354.859,70.879,355.461,71.539L355.461,71.539z M355.461,71.539"/>
	<path style="fill:#F0D0B4;" d="M323,116v18l-2.219,6.602C318.5,147.441,312.141,152,305,152c-7.141,0-13.5-4.559-15.781-11.398
		L287,134v-18l0.059-0.059c4.98,3.778,11.222,6,17.941,6c6.719,0,12.961-2.222,17.941-6L323,116z M323,116"/>
	<path style="fill:#F0D0B4;" d="M335,68v24c0,9.781-4.738,18.539-12.059,23.941c-4.98,3.778-11.222,6-17.941,6
		c-6.719,0-12.961-2.222-17.941-6C279.738,110.539,275,101.781,275,92V67.941h1.02c10.859,0,21.3-4.32,28.98-12
		c7.68,7.68,18.121,12,28.98,12H335V68z M335,68"/>
	<path style="fill:#F0D0B4;" d="M275,91.941V92h-12c-3.301,0-6.301-1.32-8.461-3.539C252.32,86.301,251,83.301,251,80
		c0-4.262,2.219-7.98,5.578-10.141C258.441,68.66,260.66,68,263,68h12V91.941z M275,91.941"/>
	<rect x="29" y="176" style="fill:#171E07;" width="12" height="12"/>
	<rect x="53" y="176" style="fill:#171E07;" width="54" height="12"/>
	<path style="fill:#171E07;" d="M361.184,138.246c-3.875-2.586-8.161-4.359-12.731-5.273L329,129.078v-10.367
		c5.922-5.316,10.062-12.539,11.453-20.711H347c9.926,0,18-8.074,18-18c0-4.285-1.566-8.164-4.074-11.262
		C363.578,63.352,365,57.453,365,51.387V50c0-12.367-9.395-22.57-21.422-23.863C331.438,14.695,315.715,8.344,299,8.055V8H5v204h258
		v40.871c-10.738,6.234-18,17.84-18,31.129c0,12.707,3.008,25.43,8.684,36.781l0.855,1.715l-13.023,4.344
		c-5.961,1.984-10.942,5.722-14.516,10.508c-3.574-4.786-8.555-8.524-14.516-10.508l-13.023-4.344l0.855-1.715
		C205.992,309.43,209,296.707,209,284c0-19.855-16.145-36-36-36c-19.855,0-36,16.145-36,36c0,12.707,3.008,25.43,8.684,36.781
		l0.855,1.715l-13.023,4.344c-5.469,1.824-10.071,5.16-13.563,9.379c-2.836-4.254-6.738-7.821-11.539-10.219L101,322.293V284
		c0-19.855-16.145-36-36-36s-36,16.145-36,36v38.293L21.586,326C11.355,331.117,5,341.395,5,352.832V380h336v-24.703
		c0-9.27-4.285-17.719-11.203-23.297H347v-74.105c2.734,1.308,5.766,2.105,9,2.105c11.578,0,21-9.422,21-21v-71.207
		C377,155.895,371.09,144.855,361.184,138.246L361.184,138.246z M346.102,144.738c3.023,0.61,5.867,1.785,8.429,3.492
		C361.09,152.605,365,159.914,365,167.793V212h-18v-39.516c0-3.871,1.508-7.507,4.242-10.242l-8.484-8.488
		c-5.004,5.004-7.758,11.648-7.758,18.73V224h-60v-51.516c0-7.082-2.754-13.726-7.758-18.73l-8.484,8.488
		c1.039,1.039,1.844,2.238,2.508,3.504l-12.071,3.02c-13.164,3.293-27.578-0.278-37.687-9.379l-19.688-17.719l15.657-15.66
		l30.125,26.777l19.554-6.515c0.922-0.305,1.867-0.559,2.824-0.75l23-4.602l0.536,1.59C286.605,151.777,295.238,158,305,158
		c9.762,0,18.395-6.223,21.492-15.492l0.528-1.59L346.102,144.738z M170.512,122.492c-2.235-2.012-3.512-4.883-3.512-7.883
		c0-5.851,4.758-10.609,10.609-10.609h1.086c2.602,0,5.098,0.949,7.043,2.684l12.762,11.339l-15.605,15.606L170.512,122.492z
		 M317,133.023l-1.891,5.692C313.652,143.07,309.598,146,305,146c-4.598,0-8.652-2.93-10.105-7.277l-1.895-5.7v-7.164
		c3.762,1.336,7.789,2.098,12,2.098c4.211,0,8.238-0.766,12-2.098V133.023z M329,91.957c0,13.238-10.766,24-24,24
		c-13.234,0-24-10.762-24-24V73.699c8.797-0.918,17.062-4.269,24-9.73c6.938,5.461,15.203,8.808,24,9.73V91.957z M347,86h-6V74h6
		c3.312,0,6,2.695,6,6S350.312,86,347,86L347,86z M338.539,38H341c6.617,0,12,5.383,12,12v1.387c0,3.816-0.828,7.535-2.348,10.992
		C349.473,62.133,348.254,62,347,62h-6v-0.043h-7.031c-9.344,0-18.125-3.637-24.727-10.242L305,47.469l-4.242,4.246
		c-6.606,6.605-15.383,10.242-24.727,10.242H269V62h-6c-1.254,0-2.473,0.133-3.652,0.379c-1.52-3.457-2.348-7.176-2.348-10.992
		v-1.231c0-9.101,4.855-17.664,12.652-22.351C278.168,22.699,287.906,20,297.828,20c14.629,0,28.383,5.695,38.961,16.273L338.539,38
		z M263,86c-3.312,0-6-2.695-6-6s2.688-6,6-6h6v12H263z M17,200V20h242.898C250.633,27.145,245,38.324,245,50.156v1.231
		c0,6.066,1.422,11.965,4.074,17.351C246.566,71.828,245,75.715,245,80c0,9.926,8.074,18,18,18h6.547
		c1.391,8.172,5.531,15.395,11.453,20.711v10.367l-23.375,4.676c-1.441,0.289-2.875,0.668-4.266,1.129l-12.968,4.324l-46.684-41.496
		C189.57,94.027,184.238,92,178.688,92h-1.086C165.141,92,155,102.141,155,114.609c0,6.395,2.723,12.52,7.48,16.797l41,36.895
		c9.817,8.832,22.489,13.699,35.688,13.699c4.363,0,8.711-0.535,12.937-1.598L263,177.688V200H17z M281,260
		c13.234,0,24,10.766,24,24c0,10.855-2.566,21.715-7.414,31.414L295.293,320h-28.586l-2.293-4.586
		C259.566,305.715,257,294.855,257,284C257,270.766,267.766,260,281,260L281,260z M173,260c13.234,0,24,10.766,24,24
		c0,10.855-2.566,21.715-7.414,31.414L187.293,320h-28.586l-2.293-4.586C151.566,305.715,149,294.855,149,284
		C149,270.766,159.766,260,173,260L173,260z M41,284c0-13.234,10.766-24,24-24s24,10.766,24,24v60H41V284z M113,368H17v-15.168
		c0-6.863,3.816-13.031,9.949-16.098L29,335.707V356h72v-20.293l2.051,1.027c6.133,3.067,9.949,9.239,9.949,16.098V368z M221,368
		h-96v-12.703c0-7.758,4.945-14.621,12.312-17.074L155.977,332h34.05l18.668,6.223c7.36,2.453,12.305,9.316,12.305,17.074V368z
		 M329,368h-96v-12.703c0-7.758,4.945-14.621,12.312-17.074L263.977,332h34.05l18.668,6.223c7.36,2.453,12.305,9.316,12.305,17.074
		V368z M335,320h-26.348c5.434-11.16,8.348-23.578,8.348-36c0-19.855-16.145-36-36-36c-2.047,0-4.043,0.211-6,0.539V236h60V320z
		 M356,248c-4.961,0-9-4.039-9-9v-15h18v15C365,243.961,360.961,248,356,248L356,248z M356,248"/>
	<path style="fill:#171E07;" d="M125,68h-12v24h-12V44H89v48H77V56H65v36H53V68H41v24H29v12h108V92h-12V68z M125,68"/>
	<rect x="29" y="116" style="fill:#171E07;" width="12" height="12"/>
	<rect x="53" y="116" style="fill:#171E07;" width="60" height="12"/>
	<rect x="125" y="116" style="fill:#171E07;" width="12" height="12"/>
</g>
</svg>
