<?xml version="1.0"?>
<svg xmlns="http://www.w3.org/2000/svg" xmlns:xlink="http://www.w3.org/1999/xlink" version="1.1" id="Capa_1" x="0px" y="0px" viewBox="0 0 512 512" style="enable-background:new 0 0 512 512;" xml:space="preserve" width="512px" height="512px" class=""><g><g>
	<g>
		<path d="M512,195V45c0-24.715-20.122-45-45-45H227c-24.815,0-45,20.227-45,45v75H75c-24.813,0-45,20.187-45,45v227H15    c-8.284,0-15,6.716-15,15v30c0,41.355,33.645,75,75,75h362c41.355,0,75-33.645,75-75v-30c0-8.284-6.716-15-15-15h-15V237.42    C499.624,231.169,512,214.366,512,195z M460.787,30L357.606,133.18c-5.85,5.848-15.363,5.848-21.213,0L233.213,30H460.787z     M392,141.213L460.787,210H233.213L302,141.213l13.181,13.18c17.544,17.545,46.093,17.546,63.639,0L392,141.213z M212,51.213    L280.787,120L212,188.787V51.213z M60,165c0-8.271,6.729-15,15-15h107v45c0,24.815,20.228,45,45,45h225v152H347    c-8.284,0-15,6.716-15,15v15H180v-15c0-8.284-6.716-15-15-15H60V165z M482,437c0,24.813-20.187,45-45,45H75    c-24.813,0-45-20.187-45-45v-15h15h105v15c0,8.284,6.716,15,15,15h182c8.284,0,15-6.716,15-15v-15h105h15V437z M413.213,120    L482,51.213v137.574L413.213,120z" data-original="#000000" class="active-path" data-old_color="#000000" fill="#B4CD96"/>
	</g>
</g></g> </svg>
