<svg xmlns="http://www.w3.org/2000/svg" width="54.458" height="49.566" viewBox="0 0 54.458 49.566"><defs><style>.a{fill:#fff;}</style></defs><path class="a" d="M50.156,3.883A14.3,14.3,0,0,0,39.78,0,14.323,14.323,0,0,0,28.2,5.7c-.341.433-.649.866-.926,1.29-.265-.418-.562-.845-.891-1.273A14.3,14.3,0,0,0,14.678,0,14.3,14.3,0,0,0,4.3,3.883C1.447,6.728,0,10.885,0,16.238c0,5.2,3.039,11.431,9.034,18.531A99.833,99.833,0,0,0,22.892,48.075a7.052,7.052,0,0,0,8.674,0c1.232-.959,3.759-3,6.839-5.922a2.127,2.127,0,0,0-2.926-3.089c-2.95,2.795-5.356,4.742-6.527,5.654a2.8,2.8,0,0,1-3.446,0A95.262,95.262,0,0,1,12.285,32.025C7.031,25.8,4.255,20.344,4.255,16.238c0-9.9,5.668-11.984,10.424-11.984,8.179,0,10.4,7.855,10.495,8.2,0,.01.007.02.01.03.014.049.029.1.046.144.007.02.014.04.022.059.018.046.037.091.058.135.009.019.018.038.027.056.023.045.048.089.074.133l.027.044c.03.048.063.094.1.14l.016.021a2.121,2.121,0,0,0,3.512-.228l0-.006c.029-.05.055-.1.08-.153l.023-.049q.026-.059.049-.12c.013-.033.024-.066.035-.1,0-.015.011-.03.016-.045a14.314,14.314,0,0,1,2.361-4.287A10.057,10.057,0,0,1,39.78,4.254c4.755,0,10.424,2.079,10.424,11.984,0,3.968-2.591,9.106-7.7,15.27a2.127,2.127,0,1,0,3.276,2.715c5.84-7.046,8.679-12.929,8.679-17.985,0-5.353-1.447-9.51-4.3-12.355Zm0,0" transform="translate(0)"/></svg>