<svg xmlns="http://www.w3.org/2000/svg" width="56.901" height="49.566" viewBox="0 0 56.901 49.566"><defs><style>.a{fill:#fff;}</style></defs><g transform="translate(0 -33)"><path class="a" d="M52.345,58.54A5.007,5.007,0,0,0,56.9,53.56V38a5.007,5.007,0,0,0-5-5H35.341a5.007,5.007,0,0,0-5,5v6.557H9.558a5.007,5.007,0,0,0-5,5v20a4.978,4.978,0,0,0,.287,1.667H3a3,3,0,0,0-3,3,8.345,8.345,0,0,0,8.335,8.335H48.566A8.345,8.345,0,0,0,56.9,74.231a3,3,0,0,0-3-3H52.058a4.978,4.978,0,0,0,.287-1.667ZM33.674,38a1.669,1.669,0,0,1,1.667-1.667H51.9A1.669,1.669,0,0,1,53.567,38V53.56A1.669,1.669,0,0,1,51.9,55.227H36.452a1.667,1.667,0,0,0-.884.253l-3.361,2.1,1.4-4.654a1.668,1.668,0,0,0,.07-.479ZM48.566,79.232H8.335a5.008,5.008,0,0,1-4.99-4.668H53.556A5.008,5.008,0,0,1,48.566,79.232ZM15.892,58.672a1.889,1.889,0,1,1,1.889,1.889A1.891,1.891,0,0,1,15.892,58.672ZM15,65.785c0-1.006,1.3-1.889,2.778-1.889a3.4,3.4,0,0,1,2.1.679,1.641,1.641,0,0,1,.68,1.21v5.446H15Zm8.891,5.446V65.785a4.917,4.917,0,0,0-1.932-3.813c-.028-.022-.056-.043-.084-.064a5.223,5.223,0,1,0-8.191,0,4.914,4.914,0,0,0-2.018,3.875v5.446H9.558a1.669,1.669,0,0,1-1.667-1.667v-20a1.669,1.669,0,0,1,1.667-1.667H30.34V52.2l-1.326,4.419a3.329,3.329,0,0,0,4.96,3.785l2.956-1.847h12.08v11a1.669,1.669,0,0,1-1.667,1.667Z"/><path class="a" d="M366.223,169h-3.556a1.667,1.667,0,0,0,0,3.334h3.556a1.667,1.667,0,1,0,0-3.334Z" transform="translate(-320.88 -120.886)"/><path class="a" d="M338.667,100.334h8.891a1.667,1.667,0,0,0,0-3.334h-8.891a1.667,1.667,0,1,0,0,3.334Z" transform="translate(-299.547 -56.887)"/></g></svg>