<svg xmlns="http://www.w3.org/2000/svg" width="49.566" height="49.567" viewBox="0 0 49.566 49.567"><defs><style>.a{fill:#fff;}</style></defs><g transform="translate(0 0)"><path class="a" d="M96.677,17.424A7.269,7.269,0,0,0,92.639,5.171,7.262,7.262,0,0,0,79.876,2.908,7.262,7.262,0,0,0,67.114,5.171a7.269,7.269,0,0,0-4.039,12.253A7.268,7.268,0,0,0,67.1,29.674a7.286,7.286,0,0,0,2.612,3.78v5.9a4.363,4.363,0,0,0,2.9,4.107v4.655a1.452,1.452,0,0,0,1.452,1.452H85.685a1.452,1.452,0,0,0,1.452-1.452V43.459a4.363,4.363,0,0,0,2.9-4.107v-5.9a7.286,7.286,0,0,0,2.612-3.78,7.267,7.267,0,0,0,4.024-12.25Zm-30.526,1.27a1.453,1.453,0,0,0,0-2.54,4.359,4.359,0,0,1,.719-7.941,7.247,7.247,0,0,0,.211,1.029,1.452,1.452,0,1,0,2.794-.792,4.357,4.357,0,1,1,8.548-1.191V31.995H74.068a4.42,4.42,0,0,1-3.753-6.7,5.274,5.274,0,0,0,1.581.493,1.452,1.452,0,0,0,.4-2.849A5.694,5.694,0,0,1,69.4,20.993a1.452,1.452,0,1,0-2.283,1.8,8.514,8.514,0,0,0,.785.866,8.454,8.454,0,0,0-1.02,2.985A4.359,4.359,0,0,1,66.151,18.694ZM75.52,46.662V43.709h8.713v2.953ZM87.137,34.9v4.454A1.454,1.454,0,0,1,85.685,40.8H74.068a1.454,1.454,0,0,1-1.452-1.452V34.9ZM93.6,18.694a4.359,4.359,0,0,1-.731,7.945,8.455,8.455,0,0,0-1.019-2.984,8.511,8.511,0,0,0,.995-1.147,1.452,1.452,0,1,0-2.355-1.7,5.689,5.689,0,0,1-3.033,2.129,1.452,1.452,0,0,0,.8,2.793,8.512,8.512,0,0,0,1.181-.436,4.422,4.422,0,0,1-3.753,6.7H81.329V7.258a4.357,4.357,0,1,1,8.484,1.4,1.452,1.452,0,1,0,2.751.932,7.218,7.218,0,0,0,.319-1.376,4.359,4.359,0,0,1,.719,7.941,1.453,1.453,0,0,0,0,2.54Z" transform="translate(-55.093 0)"/><path class="a" d="M137.452,84.688a1.452,1.452,0,0,0,1.452-1.452c0-.319,0-.394,1.029-.892a4.947,4.947,0,0,0,3.328-4.917,1.452,1.452,0,1,0-2.9,0c0,1.487-.564,1.76-1.687,2.3-1.063.514-2.67,1.29-2.67,3.507A1.452,1.452,0,0,0,137.452,84.688Z" transform="translate(-122.834 -68.62)"/><path class="a" d="M305.591,79.729c-1.123-.543-1.687-.815-1.687-2.3a1.452,1.452,0,1,0-2.9,0,4.947,4.947,0,0,0,3.328,4.917c1.029.5,1.029.573,1.029.891a1.452,1.452,0,1,0,2.9,0C308.261,81.019,306.654,80.243,305.591,79.729Z" transform="translate(-271.86 -68.62)"/><path class="a" d="M4.415,167.482a1.452,1.452,0,0,0-1.452-1.452H1.452a1.452,1.452,0,0,0,0,2.9H2.963A1.452,1.452,0,0,0,4.415,167.482Z" transform="translate(0 -149.957)"/><path class="a" d="M28.579,23.517a1.452,1.452,0,0,0,1.981-2.124l-1.1-1.03a1.452,1.452,0,0,0-1.981,2.124Z" transform="translate(-24.397 -18.039)"/><path class="a" d="M28.578,299.737l-1.1,1.03a1.452,1.452,0,1,0,1.981,2.124l1.1-1.03a1.452,1.452,0,1,0-1.981-2.124Z" transform="translate(-24.397 -270.367)"/><path class="a" d="M469.36,163.93h-1.511a1.452,1.452,0,0,0,0,2.9h1.511a1.452,1.452,0,0,0,0-2.9Z" transform="translate(-421.245 -148.06)"/><path class="a" d="M446.019,299.738a1.452,1.452,0,1,0-1.981,2.124l1.1,1.03a1.452,1.452,0,1,0,1.981-2.124Z" transform="translate(-400.634 -270.368)"/><path class="a" d="M446.019,23.516l1.1-1.03a1.452,1.452,0,0,0-1.981-2.124l-1.1,1.03a1.452,1.452,0,1,0,1.981,2.124Z" transform="translate(-400.634 -18.038)"/></g></svg>