<svg xmlns="http://www.w3.org/2000/svg" width="40.546" height="49.566" viewBox="0 0 40.546 49.566"><defs><style>.a{fill:#fff;}</style></defs><g transform="translate(0 0)"><path class="a" d="M162.766,309.513H166.7v2.9h-3.939Z" transform="translate(-151.205 -278.953)"/><path class="a" d="M299.382,309.513h3.939v2.9h-3.939Z" transform="translate(-274.333 -278.953)"/><path class="a" d="M81.442,27.466h-.023V26.38a15.178,15.178,0,0,0-1.891-7.343,14.358,14.358,0,1,0-27.148,0,15.178,15.178,0,0,0-1.891,7.343v1.086h-.026a4.783,4.783,0,1,0,0,9.567h.306a15.466,15.466,0,0,0,30.37,0h.3a4.783,4.783,0,1,0,0-9.567ZM65.953,2.9A11.453,11.453,0,1,1,54.5,14.357,11.466,11.466,0,0,1,65.953,2.9ZM50.462,34.129a1.879,1.879,0,1,1,0-3.758h.026V34.1c0,.009,0,.018,0,.028h-.026ZM78.514,34.1a12.561,12.561,0,1,1-25.122,0V26.38a12.309,12.309,0,0,1,.665-3.991,14.347,14.347,0,0,0,23.791,0,12.308,12.308,0,0,1,.665,3.991Zm2.927.028h-.024c0-.009,0-.018,0-.028v-3.73h.023a1.879,1.879,0,1,1,0,3.758Z" transform="translate(-45.679 0)"/><path class="a" d="M207.114,393.672l-2.8.784a4.781,4.781,0,0,0,4.588,3.479h3.239v-2.9H208.9A1.867,1.867,0,0,1,207.114,393.672Z" transform="translate(-188.654 -354.803)"/><path class="a" d="M195.857,82.159h-1.568V79.425h7.075V70.454h-9.979v11.7h-1.571v2.9h6.043Zm-1.568-8.8h4.171v3.163h-4.171Z" transform="translate(-175.583 -63.498)"/></g></svg>