<svg xmlns="http://www.w3.org/2000/svg" width="56.396" height="49.566" viewBox="0 0 56.396 49.566"><defs><style>.a{fill:#fff;}</style></defs><g transform="translate(0 -31)"><path class="a" d="M54.743,271H1.652a1.652,1.652,0,1,0,0,3.3H25.111L13.605,291.562a1.653,1.653,0,0,0,1.375,2.569H41.415a1.653,1.653,0,0,0,1.375-2.569L31.285,274.3H54.743a1.652,1.652,0,1,0,0-3.3ZM38.328,290.827H18.067l10.131-15.2Z" transform="translate(0 -213.565)"/><path class="a" d="M313.565,54.131A11.565,11.565,0,1,0,302,42.565,11.579,11.579,0,0,0,313.565,54.131Zm0-19.827a8.261,8.261,0,1,1-8.261,8.261A8.27,8.27,0,0,1,313.565,34.3Z" transform="translate(-268.735)"/><path class="a" d="M393.652,97.609h3.3a1.652,1.652,0,1,0,0-3.3H395.3V92.652a1.652,1.652,0,1,0-3.3,0v3.3A1.652,1.652,0,0,0,393.652,97.609Z" transform="translate(-348.822 -53.391)"/><path class="a" d="M70.913,35.957a4.957,4.957,0,1,0-4.957,4.957A4.962,4.962,0,0,0,70.913,35.957Zm-4.957,1.652a1.652,1.652,0,1,1,1.652-1.652A1.654,1.654,0,0,1,65.957,37.609Z" transform="translate(-54.281)"/><path class="a" d="M32.652,134.218H45.87a1.652,1.652,0,0,0,1.652-1.652v-3.3a8.261,8.261,0,0,0-16.522,0v3.3A1.652,1.652,0,0,0,32.652,134.218Zm1.652-4.957a4.957,4.957,0,0,1,9.913,0v1.652H34.3Z" transform="translate(-27.585 -80.087)"/></g></svg>