<?xml version="1.0" encoding="utf-8"?>
<!-- Generator: Adobe Illustrator 19.0.0, SVG Export Plug-In . SVG Version: 6.00 Build 0)  -->
<svg version="1.1" id="Layer_1" xmlns="http://www.w3.org/2000/svg" xmlns:xlink="http://www.w3.org/1999/xlink" x="0px" y="0px"
	 viewBox="-279 81 400 400" style="enable-background:new -279 81 400 400;" xml:space="preserve">
<style type="text/css">
	.st0{fill:#E9F4D4;}
	.st1{fill:#DBE5C6;}
	.st2{fill:#6D9420;}
	.st3{fill:none;}
</style>
<path class="st0" d="M101,281c0,49.8-20.4,96.6-56,130.5c-72.6,69.1-188.3,65.5-256.5-8.8c-71.4-77.6-61.1-200.4,23.4-264.9
	c31-23.6,68.9-36.8,109.1-36.8C20.4,101,101,181.6,101,281L101,281z"/>
<path class="st1" d="M95.9,323.5C62,463.2-114.6,508.3-211.6,402.7c11.9-22.5,31-34.3,48.7-35.9c10.7-1,21.8,1.5,32.1-1.6
	c15.4-4.7,24.2-20.1,34.2-32.7c10.3-13,33.5-35.5,50-33.5c21.5,2.6,45.1,41.5,77.9,42.5C53.7,342.2,74.7,324.8,95.9,323.5
	L95.9,323.5z"/>
<path class="st2" d="M-156.4,293.4c-0.5-10.6,12.1-16.7,20.1-9.5l47.7,43.2l66.1-117.4c4.5-4.9,12.1-5.3,17-0.8s5.3,12.1,0.8,17
	l-74.2,126.3c-4.5,4.9-12.1,5.3-17,0.8l-56.6-51.3C-154.9,299.6-156.2,296.5-156.4,293.4L-156.4,293.4z"/>
<path class="st2" d="M101,293.8c-6.7,0-12.1-5.5-12-12.1c0-0.4,0-0.9,0-1.3c-0.1-6.6,5.2-12.1,11.9-12.1c6.6-0.1,12.1,5.2,12.1,11.9
	c0,0.6,0,1.2,0,1.8C112.9,288.5,107.6,293.8,101,293.8L101,293.8z"/>
<path class="st2" d="M-214.7,416.7c-75-75-75-196.5,0-271.5C-171.5,102-112.3,83.3-55,90.5c83.2,10.4,146,72.3,163.1,147.6
	c1.5,6.5-2.6,12.9-9,14.4c-6.5,1.5-12.9-2.6-14.4-9c-15.1-66-70.1-120-142.7-129.1c-100.7-12.7-189,65.7-189,166.6
	c0,117.2,116.3,196.5,224.2,158.4c53.2-18.8,94.9-64.2,107.7-121.3c1.5-6.5,7.9-10.5,14.3-9.1c6.5,1.5,10.5,7.9,9.1,14.3
	C75.4,469.6-107.5,524-214.7,416.7L-214.7,416.7z"/>
<rect x="-271" y="89" class="st3" width="384" height="384"/>
</svg>
