<svg xmlns="http://www.w3.org/2000/svg" width="68.299" height="68.3" viewBox="0 0 68.299 68.3">
  <g id="icon-mail" transform="translate(-0.001)">
    <g id="Group_164" data-name="Group 164" transform="translate(0.001)">
      <path id="Path_226" data-name="Path 226" d="M34.15,0A34.15,34.15,0,1,0,68.3,34.15,34.15,34.15,0,0,0,34.15,0Zm0,11.995L54.359,24.6H13.942Zm20.46,32.724h0a3.659,3.659,0,0,1-3.659,3.659h-33.6a3.659,3.659,0,0,1-3.659-3.659V25.4a3.64,3.64,0,0,1,.057-.626l19.308,12.04c.024.015.049.025.073.038l.077.041a2.027,2.027,0,0,0,.421.164l.044.009a2.083,2.083,0,0,0,.477.06h0a2.046,2.046,0,0,0,.477-.06l.044-.009a2.047,2.047,0,0,0,.421-.164l.077-.041c.024-.014.05-.024.073-.038l19.308-12.04a3.636,3.636,0,0,1,.057.626V44.719Z" transform="translate(-0.001)" fill="#fff"/>
    </g>
  </g>
</svg>
