<svg xmlns="http://www.w3.org/2000/svg" width="67.535" height="67.535" viewBox="0 0 67.535 67.535">
  <path id="icon-snapchat" d="M33.768,0A33.768,33.768,0,1,0,67.535,33.768,33.771,33.771,0,0,0,33.768,0ZM53.991,44.67c-.243.567-1.337,1.372-5.161,1.963-.313.048-.434.455-.621,1.309-.068.311-.137.616-.231.937a.511.511,0,0,1-.547.409h-.047a4.8,4.8,0,0,1-.856-.108,11.459,11.459,0,0,0-2.3-.243,10.207,10.207,0,0,0-1.659.139,7.947,7.947,0,0,0-3.153,1.609,8.9,8.9,0,0,1-5.458,2.154c-.105,0-.208,0-.311-.008-.066.006-.134.008-.2.008a8.9,8.9,0,0,1-5.454-2.152,7.967,7.967,0,0,0-3.157-1.611,10.193,10.193,0,0,0-1.657-.139,11.359,11.359,0,0,0-2.3.259,5.028,5.028,0,0,1-.856.124.539.539,0,0,1-.595-.425c-.1-.325-.164-.639-.231-.944-.171-.782-.292-1.263-.62-1.314-3.824-.59-4.919-1.4-5.162-1.968a.735.735,0,0,1-.059-.244.43.43,0,0,1,.36-.449c5.877-.968,8.514-6.976,8.623-7.231,0-.006.006-.013.009-.02a2.243,2.243,0,0,0,.21-1.881c-.4-.95-1.719-1.368-2.59-1.644-.213-.068-.415-.131-.575-.195-1.738-.687-1.882-1.392-1.814-1.751a1.641,1.641,0,0,1,1.6-1.04,1.116,1.116,0,0,1,.475.1,5.072,5.072,0,0,0,2.1.552,1.726,1.726,0,0,0,1.252-.4c-.022-.4-.048-.814-.075-1.243-.175-2.778-.393-6.232.487-8.2a10.634,10.634,0,0,1,9.873-6.367l.723-.007h.1A10.651,10.651,0,0,1,44,21.012c.88,1.972.662,5.428.487,8.2l-.008.121c-.024.386-.048.762-.067,1.122a1.675,1.675,0,0,0,1.141.4h0a5.255,5.255,0,0,0,1.974-.548,1.477,1.477,0,0,1,.613-.122,1.883,1.883,0,0,1,.705.134l.013.006a1.3,1.3,0,0,1,.985,1.055c.008.407-.3,1.019-1.828,1.622-.158.062-.36.126-.575.194-.872.276-2.187.695-2.59,1.644a2.238,2.238,0,0,0,.21,1.881l.01.021c.109.255,2.742,6.261,8.623,7.231a.431.431,0,0,1,.36.449.721.721,0,0,1-.06.246Zm0,0" fill="#fff"/>
</svg>
