<svg xmlns="http://www.w3.org/2000/svg" width="68.3" height="68.3" viewBox="0 0 68.3 68.3">
  <path id="icon-twitter" d="M34.15,0A34.15,34.15,0,1,0,68.3,34.15,34.154,34.154,0,0,0,34.15,0ZM49.742,26.627q.023.5.022,1.013c0,10.358-7.884,22.3-22.3,22.3h0a22.187,22.187,0,0,1-12.015-3.521,15.942,15.942,0,0,0,1.87.108,15.728,15.728,0,0,0,9.735-3.355,7.847,7.847,0,0,1-7.323-5.444,7.812,7.812,0,0,0,3.54-.134,7.84,7.84,0,0,1-6.288-7.683c0-.035,0-.067,0-.1a7.784,7.784,0,0,0,3.55.98,7.845,7.845,0,0,1-2.427-10.464,22.254,22.254,0,0,0,16.157,8.19A7.843,7.843,0,0,1,47.62,21.369a15.722,15.722,0,0,0,4.977-1.9A7.869,7.869,0,0,1,49.151,23.8a15.633,15.633,0,0,0,4.5-1.234,15.929,15.929,0,0,1-3.91,4.059Zm0,0" fill="#fff"/>
</svg>
