<svg id="icon-instagram" xmlns="http://www.w3.org/2000/svg" width="69.043" height="69.043" viewBox="0 0 69.043 69.043">
  <path id="Path_223" data-name="Path 223" d="M220.215,213.608A6.608,6.608,0,1,1,213.608,207,6.608,6.608,0,0,1,220.215,213.608Zm0,0" transform="translate(-179.086 -179.086)" fill="#fff"/>
  <path id="Path_224" data-name="Path 224" d="M167.189,140.049a6.564,6.564,0,0,0-3.762-3.762,10.968,10.968,0,0,0-3.68-.682c-2.091-.1-2.718-.116-8.01-.116s-5.92.02-8.01.115a10.975,10.975,0,0,0-3.68.683,6.567,6.567,0,0,0-3.763,3.762,10.971,10.971,0,0,0-.682,3.681c-.1,2.09-.116,2.717-.116,8.01s.021,5.92.116,8.01a10.967,10.967,0,0,0,.682,3.68,6.564,6.564,0,0,0,3.762,3.762,10.954,10.954,0,0,0,3.681.683c2.09.1,2.716.115,8.01.115s5.921-.02,8.01-.115a10.954,10.954,0,0,0,3.681-.683,6.564,6.564,0,0,0,3.762-3.762,10.978,10.978,0,0,0,.683-3.68c.1-2.091.115-2.718.115-8.01s-.02-5.92-.115-8.01A10.954,10.954,0,0,0,167.189,140.049Zm-15.453,21.87a10.179,10.179,0,1,1,10.179-10.179A10.179,10.179,0,0,1,151.736,161.919Zm10.581-18.382a2.379,2.379,0,1,1,2.379-2.379A2.379,2.379,0,0,1,162.318,143.537Zm0,0" transform="translate(-117.215 -117.218)" fill="#fff"/>
  <path id="Path_225" data-name="Path 225" d="M34.521,0A34.521,34.521,0,1,0,69.043,34.521,34.525,34.525,0,0,0,34.521,0Zm19.7,42.694a14.544,14.544,0,0,1-.921,4.812,10.136,10.136,0,0,1-5.8,5.8,14.553,14.553,0,0,1-4.811.921c-2.114.1-2.789.12-8.173.12s-6.059-.023-8.173-.12a14.554,14.554,0,0,1-4.811-.921,10.136,10.136,0,0,1-5.8-5.8,14.54,14.54,0,0,1-.921-4.811c-.1-2.114-.12-2.79-.12-8.173s.023-6.059.12-8.173a14.545,14.545,0,0,1,.921-4.812,10.143,10.143,0,0,1,5.8-5.8,14.557,14.557,0,0,1,4.812-.921c2.114-.1,2.789-.12,8.173-.12s6.059.023,8.173.12a14.56,14.56,0,0,1,4.812.92,10.139,10.139,0,0,1,5.8,5.8,14.542,14.542,0,0,1,.922,4.812c.1,2.114.119,2.789.119,8.173S54.322,40.58,54.225,42.694Zm0,0" fill="#fff"/>
</svg>
