<?xml version="1.0" encoding="utf-8"?>
<!-- Generator: Adobe Illustrator 19.0.0, SVG Export Plug-In . SVG Version: 6.00 Build 0)  -->
<svg version="1.1" id="Layer_1" xmlns="http://www.w3.org/2000/svg" xmlns:xlink="http://www.w3.org/1999/xlink" x="0px" y="0px"
	 viewBox="0 0 25.2 25" style="enable-background:new 0 0 25.2 25;" xml:space="preserve">
<style type="text/css">
	.st0{fill:#FFFFFF;}
	.st1{fill:#D02C80;}
</style>
<g id="XMLID_1813_">
	<path id="XMLID_1791_" class="st0" d="M16.1,24.1h-7C4.6,24.1,1,20.5,1,16V9c0-4.5,3.6-8.1,8.1-8.1h7c4.5,0,8.1,3.6,8.1,8.1v7
		C24.2,20.5,20.6,24.1,16.1,24.1z"/>
	<g id="XMLID_1732_">
		<path id="XMLID_1738_" class="st1" d="M0.3,12.4c0-2.2,0-4.3,0-6.5c0-3.3,2.4-5.7,5.7-5.7c3.2,0,6.3,0,9.5,0c1.2,0,2.5,0,3.7,0
			c3.1,0,5.8,2.6,5.7,5.8c0,4.3,0,8.7,0,13c0,3.4-2.2,5.8-5.5,5.9c-4.7,0.1-9.4,0-14.1-0.1c-2.4,0-5-2.4-5-5.3
			C0.3,17.1,0.3,14.7,0.3,12.4C0.3,12.4,0.3,12.4,0.3,12.4z M12.6,21.5C12.6,21.5,12.6,21.5,12.6,21.5c1.3,0,2.6,0,3.9,0
			c2.8-0.1,5-2.1,5.1-4.9c0.1-2.7,0.1-5.3,0-8c-0.1-3.1-2.7-5.1-5.2-5c-2.6,0.1-5.2,0.1-7.7,0C5.8,3.5,3.5,6.2,3.6,8.8
			c0,2.5,0,5,0,7.5c0,3.1,2.6,5.4,5.3,5.3C10.1,21.5,11.4,21.5,12.6,21.5z"/>
		<path id="XMLID_1734_" class="st1" d="M12.4,19.9c-1.2,0-2.5,0-3.7,0c-2,0-3.5-1.3-3.6-3.4c-0.1-2.6-0.1-5.2,0-7.8
			C5.2,6.5,6.7,5.2,9,5.2c2.4,0,4.8,0,7.2,0c2.3,0,3.7,1.3,3.8,3.5c0.1,2.6,0.1,5.1,0,7.7c-0.1,2.3-1.5,3.5-3.8,3.5
			C14.9,20,13.7,19.9,12.4,19.9z M12.5,17.2c2.6,0,4.8-2,4.8-4.5c0-2.6-2-4.7-4.6-4.7c-2.6,0-4.7,2-4.8,4.5
			C7.8,15,9.9,17.2,12.5,17.2z M17.4,8.7c0.6,0,1-0.4,1-1c0-0.6-0.5-1.1-1-1.1c-0.6,0-1.1,0.6-1,1.2C16.4,8.3,16.9,8.7,17.4,8.7z"/>
		<path id="XMLID_1733_" class="st1" d="M9.6,12.5c-0.1-1.6,1.3-3,3-3c1.7,0,3,1.4,3,3.2c0,1.7-1.5,3-3.1,3
			C10.7,15.6,9.4,14,9.6,12.5z"/>
	</g>
</g>
<g id="XMLID_40_">
</g>
<g id="XMLID_41_">
</g>
<g id="XMLID_42_">
</g>
<g id="XMLID_43_">
</g>
<g id="XMLID_44_">
</g>
<g id="XMLID_45_">
</g>
<g id="XMLID_46_">
</g>
<g id="XMLID_47_">
</g>
<g id="XMLID_48_">
</g>
<g id="XMLID_49_">
</g>
<g id="XMLID_50_">
</g>
<g id="XMLID_51_">
</g>
<g id="XMLID_52_">
</g>
<g id="XMLID_53_">
</g>
<g id="XMLID_54_">
</g>
</svg>
