<?xml version="1.0" encoding="utf-8"?>
<!-- Generator: Adobe Illustrator 19.0.0, SVG Export Plug-In . SVG Version: 6.00 Build 0)  -->
<svg version="1.1" id="Layer_1" xmlns="http://www.w3.org/2000/svg" xmlns:xlink="http://www.w3.org/1999/xlink" x="0px" y="0px"
	 viewBox="0 0 25.2 25" style="enable-background:new 0 0 25.2 25;" xml:space="preserve">
<style type="text/css">
	.st0{fill:#FFFFFF;}
	.st1{fill:#0078B5;}
</style>
<g id="XMLID_1776_">
	<path id="XMLID_1803_" class="st0" d="M21.5,24.8H3.7c-1.9,0-3.4-1.5-3.4-3.4V3.6c0-1.9,1.5-3.4,3.4-3.4h17.8
		c1.9,0,3.4,1.5,3.4,3.4v17.8C24.9,23.3,23.4,24.8,21.5,24.8z"/>
	<path id="XMLID_1758_" class="st1" d="M12.6,24.9c-2.9,0-5.8,0-8.6,0c-2.4,0-3.7-1.3-3.7-3.7c0-5.7,0-11.4,0-17.2
		c0-0.5,0.1-1,0.2-1.4c0.3-1.2,1.1-2,2.3-2.3C3.3,0.2,4,0.2,4.6,0.1c5.4,0,10.8,0,16.2,0c0.2,0,0.4,0,0.7,0c2.3,0.2,3.4,1.4,3.5,3.7
		c0,5.8,0,11.5,0,17.3c0,2.4-1.3,3.7-3.7,3.7C18.4,24.9,15.5,24.9,12.6,24.9z M14,20.9c0-2,0-3.9,0-5.7c0-0.4,0-0.7,0-1.1
		c0.3-1.4,1.8-2.2,2.9-1.5c0.7,0.4,0.9,1.1,0.9,1.8c0,1.8,0,3.6,0,5.5c0,0.3,0.1,0.7,0.1,1.1c1.3-0.1,2.5,0.1,3.8-0.1
		c0-2.2,0-4.2,0-6.3c0-0.3,0-0.5,0-0.8c-0.4-3-2.2-4.4-4.6-4.2c-1.1,0.1-2.1,0.5-3,1.5c-0.1-0.5-0.1-0.8-0.2-1.1c-1.3,0-2.5,0-3.7,0
		c-0.2,2.4-0.1,10.1,0.1,11.1C11.5,20.9,12.6,20.9,14,20.9z M8.1,20.8c0-3.7,0-7.4,0-11.1c-1.3,0-2.5,0-3.8,0c0,3.7,0,7.4,0,11.1
		C5.6,20.8,6.8,20.8,8.1,20.8z M6.2,8.4c1.1,0,2.1-0.9,2.1-2c0.1-1.1-0.9-2.1-2.1-2.1c-1.2,0-2,0.9-2,2C4.2,7.4,5.1,8.3,6.2,8.4z"/>
</g>
<g id="XMLID_40_">
</g>
<g id="XMLID_41_">
</g>
<g id="XMLID_42_">
</g>
<g id="XMLID_43_">
</g>
<g id="XMLID_44_">
</g>
<g id="XMLID_45_">
</g>
<g id="XMLID_46_">
</g>
<g id="XMLID_47_">
</g>
<g id="XMLID_48_">
</g>
<g id="XMLID_49_">
</g>
<g id="XMLID_50_">
</g>
<g id="XMLID_51_">
</g>
<g id="XMLID_52_">
</g>
<g id="XMLID_53_">
</g>
<g id="XMLID_54_">
</g>
</svg>
