<svg xmlns="http://www.w3.org/2000/svg" width="137" height="137" viewBox="0 0 137 137">
  <g id="pags-2" transform="translate(-1105 -1886)">
    <g id="Ellipse_5" data-name="Ellipse 5" transform="translate(1105 1886)" fill="none" stroke="#17617d" stroke-width="5">
      <circle cx="68.5" cy="68.5" r="68.5" stroke="none"/>
      <circle cx="68.5" cy="68.5" r="66" fill="none"/>
    </g>
    <g id="_002-kids" data-name="002-kids" transform="translate(1135 1899.283)">
      <path id="Path_443" data-name="Path 443" d="M172.1,393.425h4.508v4.5H172.1Z" transform="translate(-146.311 -317.704)" fill="#17617d"/>
      <path id="Path_444" data-name="Path 444" d="M73.613,64.817a5.355,5.355,0,0,1-1.691-3.9V58.056a7.392,7.392,0,0,0,0-10.574V44.634a15.5,15.5,0,1,0-31,0v2.848a7.392,7.392,0,0,0,0,10.574V60.92a5.355,5.355,0,0,1-1.691,3.9,12.962,12.962,0,0,0-1.239,1.313,9.994,9.994,0,0,0-3.65-2.51l-6.629-2.652V58.656a12.58,12.58,0,0,0,5.009-8.2,7.4,7.4,0,0,0,3.084-12.392V35.217a15.5,15.5,0,0,0-31,0v2.848A7.4,7.4,0,0,0,7.889,50.457a12.58,12.58,0,0,0,5.009,8.2v2.312L6.269,63.62A9.926,9.926,0,0,0,0,72.88V90.535H76.728V71.4a8.633,8.633,0,0,0-3.115-6.58ZM72.232,71.4v3.463a10.1,10.1,0,0,0-1.773-.923l-6.978-2.791-.614-2.432a12.652,12.652,0,0,0,4.875-5.335,9.862,9.862,0,0,0,2.8,4.723A4.143,4.143,0,0,1,72.232,71.4ZM46.1,55.68a2.912,2.912,0,1,1,0-5.823h1.634a10.921,10.921,0,0,0,8.685-4.3,10.921,10.921,0,0,0,8.685,4.3h1.634a2.912,2.912,0,1,1,0,5.823H64.493v2.248a8.071,8.071,0,1,1-16.142,0V55.68ZM54.214,70.3a12.539,12.539,0,0,0,4.417,0l1.052,4.169,3.81,1.524A9.883,9.883,0,0,1,56.5,78.834h0a9.882,9.882,0,0,1-7.035-2.888l3.695-1.478Zm-8.8-25.665a11,11,0,0,1,22.009,0v.76c-.226-.021-.454-.033-.685-.033H65.107a6.444,6.444,0,0,1-6.437-6.437h-4.5a6.444,6.444,0,0,1-6.437,6.437H46.1c-.231,0-.46.012-.685.033v-.76ZM40.612,71.4A4.142,4.142,0,0,1,42.3,68.1a9.864,9.864,0,0,0,2.8-4.723,12.651,12.651,0,0,0,4.875,5.335l-.614,2.432-6.978,2.791a10.1,10.1,0,0,0-1.773.923V71.4ZM9.3,35.217a11,11,0,0,1,22.009,0v.76c-.226-.021-.454-.033-.685-.033H28.991a6.444,6.444,0,0,1-6.437-6.437h-4.5a6.444,6.444,0,0,1-6.437,6.437H9.987c-.231,0-.46.012-.685.033v-.76Zm.686,11.046a2.912,2.912,0,1,1,0-5.823h1.634a10.921,10.921,0,0,0,8.685-4.3,10.921,10.921,0,0,0,8.685,4.3h1.634a2.912,2.912,0,1,1,0,5.823H28.377v2.248a8.071,8.071,0,1,1-16.142,0V46.264ZM20.306,61.078a12.552,12.552,0,0,0,2.912-.342V62.49a2.912,2.912,0,1,1-5.823,0V60.737a12.552,12.552,0,0,0,2.912.342ZM36.116,86.04H4.5V72.88a5.451,5.451,0,0,1,3.443-5.086l5.622-2.249a7.4,7.4,0,0,0,13.49,0l5.622,2.249a5.452,5.452,0,0,1,3.443,5.086Zm36.116,0H40.612V83.2a5.451,5.451,0,0,1,3.443-5.086l.993-.4A14.321,14.321,0,0,0,56.5,83.33h0a14.321,14.321,0,0,0,11.418-5.567l.869.347A5.452,5.452,0,0,1,72.232,83.2Z" fill="#17617d"/>
    </g>
  </g>
</svg>
