<svg xmlns="http://www.w3.org/2000/svg" width="137" height="137" viewBox="0 0 137 137">
  <g id="pags-4" transform="translate(-289 -1886)">
    <g id="Ellipse_5" data-name="Ellipse 5" transform="translate(289 1886)" fill="none" stroke="#17617d" stroke-width="5">
      <circle cx="68.5" cy="68.5" r="68.5" stroke="none"/>
      <circle cx="68.5" cy="68.5" r="66" fill="none"/>
    </g>
    <g id="_004-parents" data-name="004-parents" transform="translate(318 1886.004)">
      <path id="Path_449" data-name="Path 449" d="M82.032,54.554A13.165,13.165,0,0,0,69.624,41.427,12.7,12.7,0,0,0,45.9,47.084h-.016v6.447a12.636,12.636,0,0,0,2.77,7.9,10.339,10.339,0,0,0-4.814,1.376,9.782,9.782,0,0,0-7.84.966,10.356,10.356,0,0,0-6.134-2.3,12.619,12.619,0,0,0,2.76-7.885V42.206a7.21,7.21,0,0,0-7.2-7.21h-.036l-15.243.043a7.229,7.229,0,0,0-7.156,7.21v8.446H7.261v2.9a12.619,12.619,0,0,0,2.761,7.887A10.425,10.425,0,0,0,0,71.884V93.508H26v12.306h30.03V93.508H78.559V71.839a10.35,10.35,0,0,0-1.646-5.608h5.119Zm-31.34-1.022V51.891h3.363A6.9,6.9,0,0,0,58.586,50.2a6.9,6.9,0,0,0,4.531,1.689H66.48v1.641a7.894,7.894,0,1,1-15.788,0ZM58.586,39.8a7.9,7.9,0,0,1,7.868,7.281H63.117a2.13,2.13,0,0,1-2.127-2.127H56.183a2.13,2.13,0,0,1-2.127,2.127H50.718A7.9,7.9,0,0,1,58.586,39.8ZM46.016,72.2v4.2a5,5,0,0,1-10,0V72.2a5,5,0,0,1,10,0ZM7.8,42.248a2.408,2.408,0,0,1,2.374-2.4L25.407,39.8h.012a2.4,2.4,0,0,1,2.4,2.4v3.682H7.8Zm20.026,8.446v2.9a7.877,7.877,0,0,1-15.754,0v-2.9ZM26.486,88.7H4.807V71.884a5.614,5.614,0,0,1,5.608-5.608H29.475a5.569,5.569,0,0,1,3.1.94A9.745,9.745,0,0,0,31.209,72.2v4.2a9.75,9.75,0,0,0,1.774,5.616A10.461,10.461,0,0,0,26.486,88.7Zm24.738,12.306H30.808V91.843a5.614,5.614,0,0,1,5.608-5.608h9.2a5.614,5.614,0,0,1,5.608,5.608v9.165ZM73.753,71.839V88.7H55.546a10.461,10.461,0,0,0-6.5-6.689A9.748,9.748,0,0,0,50.823,76.4V72.2a9.755,9.755,0,0,0-2.028-5.962c.077,0,.154-.008.232-.008H68.145A5.614,5.614,0,0,1,73.753,71.839Zm3.473-10.414h-8.7a12.635,12.635,0,0,0,2.762-7.894s-.038-6.8-.054-6.981a8.356,8.356,0,0,1,5.993,8Z" fill="#17617d"/>
    </g>
  </g>
</svg>
