<?xml version="1.0"?>
<svg xmlns="http://www.w3.org/2000/svg" height="512px" viewBox="-21 -21 682.66669 682.66669" width="512px"><g><path d="m583.75 0h-437.5c-31.015625 0-56.25 25.234375-56.25 56.25v57.5h429.9375c45.527344 0 82.5625 37.035156 82.5625 82.5625v247.375c0 45.527344-37.035156 82.5625-82.5625 82.5625h-429.9375v57.5c0 31.015625 25.234375 56.25 56.25 56.25h437.5c31.015625 0 56.25-25.234375 56.25-56.25v-527.5c0-31.015625-25.234375-56.25-56.25-56.25zm0 0" data-original="#000000" class="active-path" data-old_color="#000000" fill="#C21656"/><path d="m281.25 263.75h-12.5v112.5h12.5c17.230469 0 31.25-14.019531 31.25-31.25v-50c0-17.230469-14.019531-31.25-31.25-31.25zm0 0" data-original="#000000" class="active-path" data-old_color="#000000" fill="#C21656"/><path d="m131.25 263.75h-18.75v50h18.75c13.785156 0 25-11.214844 25-25s-11.214844-25-25-25zm0 0" data-original="#000000" class="active-path" data-old_color="#000000" fill="#C21656"/><path d="m565 443.6875v-247.375c0-24.847656-20.214844-45.0625-45.0625-45.0625h-474.875c-24.847656 0-45.0625 20.214844-45.0625 45.0625v247.375c0 24.847656 20.214844 45.0625 45.0625 45.0625h474.875c24.847656 0 45.0625-20.214844 45.0625-45.0625zm-433.75-92.4375h-18.75v43.75c0 10.355469-8.394531 18.75-18.75 18.75s-18.75-8.394531-18.75-18.75v-150c0-10.355469 8.394531-18.75 18.75-18.75h37.5c34.460938 0 62.5 28.039062 62.5 62.5s-28.039062 62.5-62.5 62.5zm218.75-6.25c0 37.910156-30.839844 68.75-68.75 68.75h-31.25c-10.355469 0-18.75-8.394531-18.75-18.75v-150c0-10.355469 8.394531-18.75 18.75-18.75h31.25c37.910156 0 68.75 30.839844 68.75 68.75zm121.25-81.25h-46.25v37.5h37.5c10.355469 0 18.75 8.394531 18.75 18.75s-8.394531 18.75-18.75 18.75h-37.5v56.25c0 10.355469-8.394531 18.75-18.75 18.75s-18.75-8.394531-18.75-18.75v-150c0-10.355469 8.394531-18.75 18.75-18.75h65c10.355469 0 18.75 8.394531 18.75 18.75s-8.394531 18.75-18.75 18.75zm0 0" data-original="#000000" class="active-path" data-old_color="#000000" fill="#C21656"/></g> </svg>
