<?xml version="1.0" encoding="utf-8"?>
<!-- Generator: Adobe Illustrator 19.0.0, SVG Export Plug-In . SVG Version: 6.00 Build 0)  -->
<svg version="1.1" id="Layer_1" xmlns="http://www.w3.org/2000/svg" xmlns:xlink="http://www.w3.org/1999/xlink" x="0px" y="0px"
	 viewBox="0 0 25.2 25" style="enable-background:new 0 0 25.2 25;" xml:space="preserve">
<style type="text/css">
	.st0{clip-path:url(#XMLID_56_);fill:#FFFC01;}
	.st1{fill:#FFFFFF;}
	.st2{fill:#030303;}
</style>
<g id="XMLID_1765_">
	<g id="XMLID_1793_">
		<defs>
			<rect id="XMLID_1768_" x="0.2" y="0.2" width="24.7" height="24.7"/>
		</defs>
		<clipPath id="XMLID_56_">
			<use xlink:href="#XMLID_1768_"  style="overflow:visible;"/>
		</clipPath>
		<path id="XMLID_1798_" class="st0" d="M23.6,0.2h-22c-0.8,0-1.4,0.6-1.4,1.4v22c0,0.8,0.6,1.4,1.4,1.4h22c0.8,0,1.4-0.6,1.4-1.4
			c0,0,0,0,0,0v-22C24.9,0.8,24.3,0.2,23.6,0.2L23.6,0.2z M23.6,0.2"/>
	</g>
	<g id="XMLID_1773_">
		<path id="XMLID_1767_" class="st1" d="M12.7,20.6c0,0-0.1,0-0.1,0c0,0-0.1,0-0.1,0c-1,0-1.7-0.5-2.3-0.9c-0.4-0.3-0.8-0.6-1.3-0.7
			c-0.2,0-0.5-0.1-0.7-0.1c-0.4,0-0.7,0.1-1,0.1c-0.1,0-0.3,0.1-0.4,0.1c-0.1,0-0.2,0-0.3-0.2c0-0.1-0.1-0.3-0.1-0.4
			c-0.1-0.3-0.1-0.5-0.3-0.6c-1.6-0.2-2.1-0.6-2.2-0.8c0,0,0-0.1,0-0.1c0-0.1,0.1-0.2,0.2-0.2c2.5-0.4,3.6-2.9,3.6-3c0,0,0,0,0,0
			C8,13.5,8,13.2,7.9,13c-0.2-0.4-0.7-0.6-1.1-0.7c-0.1,0-0.2-0.1-0.2-0.1c-0.7-0.3-0.8-0.6-0.8-0.7c0-0.3,0.4-0.4,0.7-0.4
			c0.1,0,0.1,0,0.2,0c0.3,0.2,0.6,0.2,0.9,0.2c0.4,0,0.5-0.1,0.5-0.2c0-0.2,0-0.3,0-0.5C8,9.4,7.9,8,8.2,7.2
			c1.1-2.5,3.5-2.7,4.2-2.7c0,0,0.3,0,0.3,0h0c0.7,0,3.1,0.2,4.2,2.7c0.4,0.8,0.3,2.3,0.2,3.5l0,0.1c0,0.2,0,0.3,0,0.5
			c0,0,0.2,0.2,0.5,0.2h0c0.2,0,0.5-0.1,0.8-0.2c0.1,0,0.2-0.1,0.3-0.1c0.1,0,0.2,0,0.3,0.1l0,0c0.2,0.1,0.4,0.3,0.4,0.4
			c0,0.2-0.1,0.4-0.8,0.7c-0.1,0-0.2,0.1-0.2,0.1c-0.4,0.1-0.9,0.3-1.1,0.7c-0.1,0.2-0.1,0.5,0.1,0.8c0,0,0,0,0,0
			c0,0.1,1.2,2.6,3.6,3c0.1,0,0.2,0.1,0.2,0.2c0,0,0,0.1,0,0.1c-0.1,0.2-0.6,0.6-2.2,0.8c-0.1,0-0.2,0.2-0.3,0.6
			c0,0.1-0.1,0.3-0.1,0.4c0,0.1-0.1,0.2-0.2,0.2h0c-0.1,0-0.2,0-0.4,0c-0.3-0.1-0.6-0.1-1-0.1c-0.2,0-0.5,0-0.7,0.1
			c-0.5,0.1-0.9,0.4-1.3,0.7C14.4,20.1,13.7,20.6,12.7,20.6"/>
		<path id="XMLID_1775_" class="st2" d="M12.8,4.7c0.7,0,2.9,0.2,4,2.6c0.4,0.8,0.3,2.2,0.2,3.4c0,0.2,0,0.4,0,0.5l0,0.1l0,0.1
			c0,0,0.2,0.2,0.6,0.2l0,0l0,0c0.3,0,0.6-0.1,0.9-0.2c0,0,0.1,0,0.2,0c0.1,0,0.2,0,0.2,0l0,0c0.2,0.1,0.3,0.2,0.3,0.3
			c0,0.1,0,0.3-0.7,0.5c-0.1,0-0.1,0-0.2,0.1c-0.4,0.1-1,0.3-1.2,0.8c-0.1,0.3-0.1,0.6,0.1,0.9c0.1,0.2,1.2,2.7,3.8,3.2c0,0,0,0,0,0
			c0,0.1-0.3,0.5-2,0.7c-0.3,0-0.3,0.3-0.4,0.7c0,0.1-0.1,0.3-0.1,0.4c0,0,0,0-0.1,0h0c-0.1,0-0.2,0-0.3,0c-0.2,0-0.6-0.1-1-0.1
			c-0.2,0-0.5,0-0.7,0.1c-0.5,0.1-1,0.4-1.4,0.7c-0.6,0.4-1.2,0.9-2.2,0.9c0,0-0.1,0-0.1,0l0,0l0,0c0,0,0,0-0.1,0
			c-1,0-1.6-0.4-2.2-0.9c-0.5-0.3-0.9-0.6-1.4-0.7c-0.2,0-0.5-0.1-0.7-0.1c-0.4,0-0.8,0.1-1,0.1c-0.1,0-0.2,0-0.3,0
			c-0.1,0-0.1,0-0.1,0c0-0.1-0.1-0.3-0.1-0.4c-0.1-0.3-0.1-0.7-0.4-0.7c-1.7-0.3-2-0.6-2-0.7c0,0,0,0,0,0c2.6-0.4,3.7-3,3.8-3.2
			c0.2-0.4,0.2-0.7,0.1-0.9c-0.2-0.5-0.8-0.7-1.2-0.8c-0.1,0-0.2-0.1-0.2-0.1c-0.5-0.2-0.7-0.4-0.7-0.5c0-0.1,0.3-0.3,0.5-0.3
			c0,0,0.1,0,0.1,0c0.4,0.2,0.7,0.2,1,0.2c0.4,0,0.6-0.2,0.7-0.2l0-0.1l0-0.1c0-0.2,0-0.3,0-0.5C8.2,9.4,8.1,8,8.4,7.2
			c1.1-2.4,3.3-2.6,4-2.6C12.4,4.7,12.7,4.7,12.8,4.7L12.8,4.7z M12.8,4.3L12.8,4.3c0,0-0.3,0-0.3,0c-0.7,0-3.2,0.2-4.3,2.8
			C7.7,8,7.8,9.4,7.9,10.6c0,0.1,0,0.3,0,0.4c-0.1,0-0.2,0.1-0.3,0.1c-0.2,0-0.5-0.1-0.8-0.2c-0.1,0-0.2-0.1-0.3-0.1
			c-0.4,0-0.8,0.2-0.9,0.6c0,0.3,0.1,0.6,0.9,0.9c0.1,0,0.2,0.1,0.3,0.1c0.3,0.1,0.8,0.3,1,0.6c0.1,0.2,0,0.4-0.1,0.6c0,0,0,0,0,0
			c0,0.1-1.1,2.5-3.5,2.9c-0.2,0-0.3,0.2-0.3,0.4c0,0.1,0,0.1,0,0.2c0.2,0.4,0.9,0.7,2.3,0.9c0,0.1,0.1,0.3,0.1,0.4
			c0,0.1,0.1,0.3,0.1,0.4c0,0.1,0.1,0.3,0.4,0.3c0.1,0,0.2,0,0.4-0.1c0.2,0,0.5-0.1,0.9-0.1c0.2,0,0.4,0,0.7,0.1
			c0.4,0.1,0.8,0.3,1.3,0.6c0.6,0.4,1.3,0.9,2.4,0.9c0,0,0.1,0,0.1,0c0,0,0.1,0,0.1,0c1.1,0,1.8-0.5,2.4-0.9
			c0.4-0.3,0.8-0.6,1.3-0.6c0.2,0,0.5-0.1,0.7-0.1c0.4,0,0.7,0,0.9,0.1c0.2,0,0.3,0,0.4,0h0c0.2,0,0.3-0.1,0.4-0.3
			c0-0.1,0.1-0.3,0.1-0.4c0-0.1,0.1-0.4,0.1-0.4c1.4-0.2,2.1-0.5,2.3-0.9c0-0.1,0-0.1,0-0.2c0-0.2-0.1-0.3-0.3-0.4
			c-2.4-0.4-3.4-2.8-3.5-2.9c0,0,0,0,0,0c-0.1-0.3-0.2-0.5-0.1-0.6c0.1-0.3,0.6-0.5,1-0.6c0.1,0,0.2-0.1,0.3-0.1
			c0.6-0.2,0.9-0.5,0.9-0.9c0-0.3-0.2-0.5-0.5-0.6l0,0c-0.1,0-0.2-0.1-0.4-0.1c-0.1,0-0.2,0-0.3,0.1c-0.3,0.1-0.5,0.2-0.8,0.2
			c-0.1,0-0.2,0-0.3-0.1c0-0.1,0-0.2,0-0.4l0-0.1c0.1-1.2,0.2-2.7-0.2-3.5C15.9,4.5,13.5,4.3,12.8,4.3"/>
	</g>
</g>
<g id="XMLID_40_">
</g>
<g id="XMLID_41_">
</g>
<g id="XMLID_42_">
</g>
<g id="XMLID_43_">
</g>
<g id="XMLID_44_">
</g>
<g id="XMLID_45_">
</g>
<g id="XMLID_46_">
</g>
<g id="XMLID_47_">
</g>
<g id="XMLID_48_">
</g>
<g id="XMLID_49_">
</g>
<g id="XMLID_50_">
</g>
<g id="XMLID_51_">
</g>
<g id="XMLID_52_">
</g>
<g id="XMLID_53_">
</g>
<g id="XMLID_54_">
</g>
</svg>
