<svg xmlns="http://www.w3.org/2000/svg" width="170.035" height="148.085" viewBox="0 0 170.035 148.085">
  <g id="target-4" transform="translate(0 -33.046)">
    <path id="Path_190" data-name="Path 190" d="M169.232,108.552H94.637v18.117h3.94a5.256,5.256,0,0,1,5.312,5.2v6.291a5.255,5.255,0,0,1-5.312,5.2H94.361a25.386,25.386,0,0,1-19.514,20.9v6.29H98.716a12.729,12.729,0,0,1,12.794,12.632v17.974H19.956V183.175a12.729,12.729,0,0,1,12.8-12.632H56.618v-6.29a25.387,25.387,0,0,1-19.514-20.9H32.888a5.256,5.256,0,0,1-5.312-5.2v-6.291a5.256,5.256,0,0,1,5.312-5.2h3.939V108.552H10.821A3.331,3.331,0,0,0,7.5,111.873V225.75a3.331,3.331,0,0,0,3.321,3.321H169.232a3.331,3.331,0,0,0,3.321-3.321V111.873a3.331,3.331,0,0,0-3.321-3.321Z" transform="translate(-5.009 -50.431)" fill="#8c9ba7"/>
    <path id="Path_191" data-name="Path 191" d="M32.751,170.544H56.618v-6.29a25.387,25.387,0,0,1-19.514-20.9H32.888a5.256,5.256,0,0,1-5.312-5.2v-6.291a5.256,5.256,0,0,1,5.312-5.2h3.939V108.553H10.821A3.331,3.331,0,0,0,7.5,111.874V201.15H19.956V183.176A12.729,12.729,0,0,1,32.751,170.544Z" transform="translate(-5.009 -50.431)" fill="#01cffa"/>
    <path id="Path_192" data-name="Path 192" d="M304.678,108.552H230.083v18.117h3.94a5.256,5.256,0,0,1,5.312,5.2v6.291a5.255,5.255,0,0,1-5.312,5.2h-4.216a25.386,25.386,0,0,1-19.514,20.9v6.29h23.868a12.729,12.729,0,0,1,12.794,12.632v17.974H308V111.873a3.331,3.331,0,0,0-3.321-3.321Z" transform="translate(-140.455 -50.431)" fill="#01cffa"/>
    <path id="Path_193" data-name="Path 193" d="M138.953,112.131h-3.94V108.37c0-15.72-12.941-21.584-28.9-21.584S77.2,92.651,77.2,108.37v3.76h-3.94a5.256,5.256,0,0,0-5.312,5.2v6.291a5.256,5.256,0,0,0,5.312,5.2H77.48a25.386,25.386,0,0,0,19.514,20.9v9.3a9.115,9.115,0,1,0,18.229,0v-9.3a25.386,25.386,0,0,0,19.514-20.9h4.216a5.255,5.255,0,0,0,5.312-5.2v-6.291A5.255,5.255,0,0,0,138.953,112.131Z" transform="translate(-45.385 -35.893)" fill="#ffcdbe"/>
    <path id="Path_194" data-name="Path 194" d="M124.716,40.546c-15.964,0-28.905,5.865-28.905,21.584V77.487c0-15.72,12.941-21.584,28.905-21.584s28.9,5.865,28.9,21.584V62.13C153.62,46.411,140.68,40.546,124.716,40.546Z" transform="translate(-63.992 -5.009)" fill="#fda613"/>
    <path id="Path_195" data-name="Path 195" d="M123.766,295.216H99.9v3.007a9.115,9.115,0,1,1-18.229,0v-3.007H57.8a12.729,12.729,0,0,0-12.8,12.632v17.974H136.56V307.848A12.729,12.729,0,0,0,123.766,295.216Z" transform="translate(-30.06 -175.104)" fill="#fff"/>
    <path id="Path_196" data-name="Path 196" d="M17.629,411.977v-24.6H7.5v24.6a3.331,3.331,0,0,0,3.321,3.321H20.95A3.331,3.331,0,0,1,17.629,411.977Z" transform="translate(-5.009 -236.657)" fill="#798b97"/>
    <path id="Path_197" data-name="Path 197" d="M138.953,112.131h-3.94V108.37c0-15.72-12.941-21.584-28.9-21.584S77.2,92.651,77.2,108.37v3.76h-3.94a5.256,5.256,0,0,0-5.312,5.2v6.291a5.256,5.256,0,0,0,5.312,5.2H77.48a25.386,25.386,0,0,0,19.514,20.9v9.3a9.115,9.115,0,1,0,18.229,0v-9.3a25.386,25.386,0,0,0,19.514-20.9h4.216a5.255,5.255,0,0,0,5.312-5.2v-6.291A5.255,5.255,0,0,0,138.953,112.131Z" transform="translate(-45.385 -35.893)" fill="#ffcdbe"/>
    <path id="Path_198" data-name="Path 198" d="M124.716,40.546c-15.964,0-28.905,5.865-28.905,21.584V77.487c0-15.72,12.941-21.584,28.905-21.584s28.9,5.865,28.9,21.584V62.13C153.62,46.411,140.68,40.546,124.716,40.546Z" transform="translate(-63.992 -5.009)" fill="#fda613"/>
    <path id="Path_199" data-name="Path 199" d="M106.259,59.641c1.156-12.234,10.954-17.752,23.623-18.875-1.676-.148-3.4-.221-5.167-.221-15.964,0-28.905,5.865-28.905,21.584V77.487C95.81,68.677,99.875,62.963,106.259,59.641Z" transform="translate(-63.992 -5.009)" fill="#fa8701"/>
    <path id="Path_200" data-name="Path 200" d="M123.766,295.216H99.9v3.007a9.115,9.115,0,1,1-18.229,0v-3.007H57.8a12.729,12.729,0,0,0-12.8,12.632v17.974H136.56V307.848A12.729,12.729,0,0,0,123.766,295.216Z" transform="translate(-30.06 -175.104)" fill="#fff"/>
    <path id="Path_201" data-name="Path 201" d="M71.747,295.216H57.8a12.729,12.729,0,0,0-12.8,12.632v17.974H58.952V307.848A12.729,12.729,0,0,1,71.747,295.216Z" transform="translate(-30.06 -175.104)" fill="#d8e6eb"/>
    <path id="Path_202" data-name="Path 202" d="M163.608,285.572v-8.653h-2.459a25.874,25.874,0,0,1-5.747-.644v9.3a9.135,9.135,0,0,0,9.115,9.155,9.038,9.038,0,0,0,4.1-.981A9.156,9.156,0,0,1,163.608,285.572Z" transform="translate(-103.793 -162.453)" fill="#ffaf9d"/>
    <path id="Path_203" data-name="Path 203" d="M163.253,227.639a9.776,9.776,0,0,1-9.742-9.787,1.126,1.126,0,0,1,1.124-1.129h17.237A1.126,1.126,0,0,1,173,217.852,9.776,9.776,0,0,1,163.253,227.639Z" transform="translate(-102.53 -122.678)" fill="#ef7280"/>
    <ellipse id="Ellipse_15" data-name="Ellipse 15" cx="5.097" cy="5.12" rx="5.097" ry="5.12" transform="translate(115.575 159.434)" fill="#fd646f"/>
    <path id="Path_204" data-name="Path 204" d="M388.858,166.044a1.665,1.665,0,0,1-1.66,1.66H349.676a1.665,1.665,0,0,1-1.661-1.66V143.29a1.665,1.665,0,0,1,1.661-1.66H387.2a1.665,1.665,0,0,1,1.66,1.66Z" transform="translate(-232.44 -72.523)" fill="#fff"/>
    <path id="Path_205" data-name="Path 205" d="M358.637,166.044v-4.815h-.88a2.491,2.491,0,1,1,0-4.981h.88v-3.46h-.88a2.491,2.491,0,1,1,0-4.981h.88V143.29a1.665,1.665,0,0,1,1.66-1.66H349.676a1.665,1.665,0,0,0-1.661,1.66v22.754a1.665,1.665,0,0,0,1.661,1.66H360.3A1.665,1.665,0,0,1,358.637,166.044Z" transform="translate(-232.44 -72.523)" fill="#d8e6eb"/>
    <path id="Path_206" data-name="Path 206" d="M388.858,272.045a1.665,1.665,0,0,1-1.66,1.66H349.676a1.665,1.665,0,0,1-1.661-1.66V249.291a1.665,1.665,0,0,1,1.661-1.66H387.2a1.665,1.665,0,0,1,1.66,1.66Z" transform="translate(-232.44 -143.322)" fill="#fee567"/>
    <path id="Path_207" data-name="Path 207" d="M358.637,272.045V267.23h-.88a2.491,2.491,0,1,1,0-4.982h.88v-3.46h-.88a2.491,2.491,0,1,1,0-4.982h.88v-4.515a1.665,1.665,0,0,1,1.66-1.66H349.676a1.665,1.665,0,0,0-1.661,1.66v22.754a1.665,1.665,0,0,0,1.661,1.661H360.3A1.665,1.665,0,0,1,358.637,272.045Z" transform="translate(-232.44 -143.322)" fill="#e7b700"/>
    <path id="Path_208" data-name="Path 208" d="M15,116.882v86.785h7.474V188.184a14.971,14.971,0,0,1,.164-2.2v-69.1a3.3,3.3,0,0,1,.11-.83H15.83A.841.841,0,0,0,15,116.882Z" transform="translate(-10.019 -55.44)" fill="#01bff9"/>
    <path id="Path_209" data-name="Path 209" d="M103.31,130.813a22.914,22.914,0,0,0,22.282,22.736,25.215,25.215,0,0,1-14.439-22.736V114.07c0-9.671,4.9-15.61,12.387-18.75a29.793,29.793,0,0,0-12.888,4.146c-4.872,3.2-7.341,8.109-7.341,14.6v16.743Z" transform="translate(-69.001 -41.593)" fill="#ffaf9d"/>
    <path id="Path_210" data-name="Path 210" d="M164.223,55.631H92.08c-.727-14.378-12.062-22.585-31.356-22.585S30.093,41.253,29.367,55.631H5.812A5.818,5.818,0,0,0,0,61.442V175.32a5.819,5.819,0,0,0,5.812,5.812H164.223a5.819,5.819,0,0,0,5.812-5.812V61.442A5.818,5.818,0,0,0,164.223,55.631Zm-72.1,33.59V78.729h1.449a2.769,2.769,0,0,1,2.821,2.706v6.291a2.769,2.769,0,0,1-2.821,2.707h-1.48C92.105,90.031,92.119,89.627,92.119,89.221Zm-57.81-32.1c0-6.5,2.47-11.409,7.341-14.6,4.477-2.937,11.073-4.489,19.073-4.489s14.6,1.552,19.072,4.489c4.871,3.2,7.341,8.109,7.341,14.6v.657C81.977,51.7,72.952,48.4,60.724,48.4S39.47,51.7,34.309,57.778v-.657Zm0,15.356c0-6.5,2.47-11.409,7.341-14.6,4.477-2.937,11.073-4.489,19.073-4.489s14.6,1.552,19.072,4.489c4.871,3.2,7.341,8.109,7.341,14.6V89.221a22.928,22.928,0,0,1-23.046,22.755H57.356A22.928,22.928,0,0,1,34.309,89.221Zm33.038,44.286v6.355a6.624,6.624,0,1,1-13.247,0v-6.355a28.409,28.409,0,0,0,3.256.193h6.736a28.393,28.393,0,0,0,3.256-.193ZM29.359,90.433h-1.48a2.769,2.769,0,0,1-2.822-2.707V81.435a2.769,2.769,0,0,1,2.822-2.706h1.449V89.221c0,.406.014.809.031,1.212ZM4.981,61.442a.841.841,0,0,1,.83-.83H29.328V73.747H27.879a7.755,7.755,0,0,0-7.8,7.688v6.291a7.755,7.755,0,0,0,7.8,7.688h2.162a27.953,27.953,0,0,0,19.077,20.318v1.889H27.742a15.222,15.222,0,0,0-15.286,15.123v15.483H4.981Zm160.072,86.785H150.109a2.491,2.491,0,0,0,0,4.981h14.944V175.32a.841.841,0,0,1-.83.83H5.812a.841.841,0,0,1-.83-.83V153.209h133.5a2.491,2.491,0,0,0,0-4.981H108.991V132.744a15.222,15.222,0,0,0-15.285-15.123H88.67a2.491,2.491,0,1,0,0,4.981h5.036a10.235,10.235,0,0,1,10.3,10.141v15.483H17.437V132.744a10.235,10.235,0,0,1,10.3-10.141H49.118v.516a11.605,11.605,0,1,0,23.21,0V122.6h4.718a2.491,2.491,0,1,0,0-4.981H72.328v-1.889A27.953,27.953,0,0,0,91.406,95.415h2.163a7.755,7.755,0,0,0,7.8-7.688V81.435a7.755,7.755,0,0,0-7.8-7.688H92.119V60.613h72.1a.841.841,0,0,1,.83.83Z"/>
    <path id="Path_211" data-name="Path 211" d="M172.046,168.159h3.492a2.491,2.491,0,1,0,0-4.982h-2.63v-5.751a2.491,2.491,0,0,0-4.981,0v6.635A4.113,4.113,0,0,0,172.046,168.159Z" transform="translate(-112.159 -81.41)"/>
    <path id="Path_212" data-name="Path 212" d="M131.214,159.1a2.491,2.491,0,0,0,2.491-2.491v-5.81a2.491,2.491,0,0,0-4.981,0v5.81A2.491,2.491,0,0,0,131.214,159.1Z" transform="translate(-85.974 -76.981)"/>
    <path id="Path_213" data-name="Path 213" d="M224.463,159.1a2.491,2.491,0,0,0,2.491-2.491v-5.81a2.491,2.491,0,0,0-4.981,0v5.81A2.491,2.491,0,0,0,224.463,159.1Z" transform="translate(-148.255 -76.981)"/>
    <path id="Path_214" data-name="Path 214" d="M158.244,225.12a12.269,12.269,0,0,0,12.233-12.277,3.621,3.621,0,0,0-3.615-3.62H149.626a3.622,3.622,0,0,0-3.615,3.62A12.269,12.269,0,0,0,158.244,225.12Zm7.125-10.916a7.245,7.245,0,0,1-14.25,0Z" transform="translate(-97.521 -117.669)"/>
    <path id="Path_215" data-name="Path 215" d="M199.228,406.118a7.6,7.6,0,0,0-7.169,5.12H120.107a2.491,2.491,0,1,0,0,4.981H192.06a7.578,7.578,0,0,0,14.337,0h26.685a2.491,2.491,0,1,0,0-4.981H206.4A7.6,7.6,0,0,0,199.228,406.118Zm0,10.241a2.63,2.63,0,1,1,2.607-2.63A2.621,2.621,0,0,1,199.228,416.359Z" transform="translate(-78.556 -249.175)"/>
    <circle id="Ellipse_16" data-name="Ellipse 16" cx="2.491" cy="2.491" r="2.491" transform="translate(27.257 162.063)"/>
    <circle id="Ellipse_17" data-name="Ellipse 17" cx="2.491" cy="2.491" r="2.491" transform="translate(15.941 162.063)"/>
    <path id="Path_216" data-name="Path 216" d="M382.188,134.131H344.666a4.156,4.156,0,0,0-4.151,4.151v22.754a4.156,4.156,0,0,0,4.151,4.151h37.522a4.156,4.156,0,0,0,4.151-4.151V155.01a2.491,2.491,0,0,0-4.982,0v5.2H345.5V139.112h35.862v4.274a2.491,2.491,0,0,0,4.982,0v-5.1A4.156,4.156,0,0,0,382.188,134.131Z" transform="translate(-227.43 -67.515)"/>
    <path id="Path_217" data-name="Path 217" d="M393.7,160.226H372.341a2.491,2.491,0,0,0,0,4.981H393.7a2.491,2.491,0,0,0,0-4.981Z" transform="translate(-247.023 -84.944)"/>
    <path id="Path_218" data-name="Path 218" d="M393.7,185.645H372.341a2.491,2.491,0,0,0,0,4.982H393.7a2.491,2.491,0,0,0,0-4.982Z" transform="translate(-247.023 -101.921)"/>
    <path id="Path_219" data-name="Path 219" d="M382.188,240.131H344.666a4.156,4.156,0,0,0-4.151,4.151v22.754a4.156,4.156,0,0,0,4.151,4.151h37.522a4.156,4.156,0,0,0,4.151-4.151V244.282A4.156,4.156,0,0,0,382.188,240.131Zm-.83,26.075H345.5V245.112h35.862Z" transform="translate(-227.43 -138.312)"/>
    <path id="Path_220" data-name="Path 220" d="M372.342,271.207H393.7a2.491,2.491,0,0,0,0-4.981H372.342a2.491,2.491,0,1,0,0,4.981Z" transform="translate(-247.024 -155.741)"/>
    <path id="Path_221" data-name="Path 221" d="M372.342,296.627H393.7a2.491,2.491,0,0,0,0-4.981H372.342a2.491,2.491,0,1,0,0,4.981Z" transform="translate(-247.024 -172.719)"/>
    <path id="Path_222" data-name="Path 222" d="M383.849,347.646H343.006a2.491,2.491,0,0,0,0,4.982h40.843a2.491,2.491,0,0,0,0-4.982Z" transform="translate(-227.43 -210.122)"/>
  </g>
</svg>
