<svg xmlns="http://www.w3.org/2000/svg" width="148.393" height="148.393" viewBox="0 0 148.393 148.393">
  <g id="target-3" transform="translate(-1 -1)">
    <g id="Group_91" data-name="Group 91" transform="translate(3.393 99.131)">
      <path id="Path_71" data-name="Path 71" d="M100.131,89.869V61.148A19.148,19.148,0,0,0,80.983,42H21.147A19.148,19.148,0,0,0,2,61.148V89.869" transform="translate(-2 -42)" fill="#669e4f"/>
    </g>
    <g id="Group_92" data-name="Group 92" transform="translate(3.393 99.131)">
      <path id="Path_72" data-name="Path 72" d="M21.147,77.9c32.68,0,59.881-15.04,65.805-34.939A19.087,19.087,0,0,0,80.983,42H21.147A19.148,19.148,0,0,0,2,61.148V76.106A101.839,101.839,0,0,0,21.147,77.9Z" transform="translate(-2 -42)" fill="#78b75b"/>
    </g>
    <g id="Group_93" data-name="Group 93" transform="translate(34.508 99.131)">
      <path id="Path_73" data-name="Path 73" d="M48.508,42v2.393a16.754,16.754,0,1,1-33.508,0V42" transform="translate(-15 -42)" fill="#efbe9a"/>
    </g>
    <g id="Group_94" data-name="Group 94" transform="translate(20.147 12.967)">
      <path id="Path_74" data-name="Path 74" d="M64.875,84.682A31.116,31.116,0,0,1,9,65.836V20.361A14.36,14.36,0,0,1,23.361,6H56.869A14.36,14.36,0,0,1,71.229,20.361V65.836a31.045,31.045,0,0,1-1.848,10.589" transform="translate(-9 -6)" fill="#efbe9a"/>
    </g>
    <g id="Group_95" data-name="Group 95" transform="translate(20.147 12.967)">
      <path id="Path_75" data-name="Path 75" d="M56.869,6H23.361A14.36,14.36,0,0,0,9,20.361V37.115H32.934A14.36,14.36,0,0,0,47.295,22.754,14.36,14.36,0,0,0,61.656,37.115h9.574V20.361A14.36,14.36,0,0,0,56.869,6Z" transform="translate(-9 -6)" fill="#976947"/>
    </g>
    <g id="Group_96" data-name="Group 96" transform="translate(82.377 53.656)">
      <path id="Path_76" data-name="Path 76" d="M46.967,46.934h-7.18A4.786,4.786,0,0,1,35,42.147V27.787A4.786,4.786,0,0,1,39.787,23h7.18a4.786,4.786,0,0,1,4.787,4.787V42.147A4.786,4.786,0,0,1,46.967,46.934Z" transform="translate(-35 -23)" fill="#4d5d7a"/>
    </g>
    <g id="Group_97" data-name="Group 97" transform="translate(3.393 53.656)">
      <path id="Path_77" data-name="Path 77" d="M13.967,46.934H6.787A4.786,4.786,0,0,1,2,42.147V27.787A4.786,4.786,0,0,1,6.787,23h7.18a4.786,4.786,0,0,1,4.787,4.787V42.147A4.786,4.786,0,0,1,13.967,46.934Z" transform="translate(-2 -23)" fill="#4d5d7a"/>
    </g>
    <g id="Group_98" data-name="Group 98" transform="translate(68.016 82.377)">
      <path id="Path_78" data-name="Path 78" d="M38.574,44.574H33.787a4.787,4.787,0,0,1,0-9.574h4.787a4.787,4.787,0,1,1,0,9.574Z" transform="translate(-29 -35)" fill="#4d5d7a"/>
    </g>
    <g id="Group_99" data-name="Group 99" transform="translate(46.475 103.918)">
      <path id="Path_79" data-name="Path 79" d="M98.983,44H41.541A21.541,21.541,0,1,0,62.529,70.328H77.993A21.535,21.535,0,1,0,98.983,44Z" transform="translate(-20 -44)" fill="#a8b0bc"/>
    </g>
    <g id="Group_100" data-name="Group 100" transform="translate(47.887 103.918)">
      <path id="Path_80" data-name="Path 80" d="M55.079,65.541c22.8,0,42.22-8.569,49.539-20.555A21.558,21.558,0,0,0,98.161,44H40.719A21.525,21.525,0,0,0,20.59,57.925C29.829,62.666,41.882,65.541,55.079,65.541Z" transform="translate(-20.59 -44)" fill="#c1c8d1"/>
    </g>
    <g id="Group_101" data-name="Group 101" transform="translate(56.049 113.492)">
      <path id="Path_81" data-name="Path 81" d="M47.934,55.18h-7.18V48H31.18v7.18H24v9.574h7.18v7.18h9.574v-7.18h7.18Z" transform="translate(-24 -48)" fill="#4d5d7a"/>
    </g>
    <g id="Group_102" data-name="Group 102" transform="translate(91.951 118.278)">
      <path id="Path_82" data-name="Path 82" d="M39,50h9.574v4.787H39Z" transform="translate(-39 -50)"/>
    </g>
    <g id="Group_103" data-name="Group 103" transform="translate(44.082 101.524)">
      <path id="Path_83" data-name="Path 83" d="M100.377,90.869A23.779,23.779,0,0,1,77.555,74.115h-11.8A23.93,23.93,0,1,1,42.934,43h57.442a23.934,23.934,0,1,1,0,47.869ZM63.925,69.328H79.389a2.392,2.392,0,0,1,2.334,1.862,19.141,19.141,0,1,0,18.654-23.4H42.934a19.147,19.147,0,1,0,18.654,23.4,2.4,2.4,0,0,1,2.336-1.862Z" transform="translate(-19 -43)"/>
    </g>
    <g id="Group_104" data-name="Group 104" transform="translate(53.656 111.098)">
      <path id="Path_84" data-name="Path 84" d="M42.147,75.721H32.574a2.394,2.394,0,0,1-2.393-2.393V68.541H25.393A2.394,2.394,0,0,1,23,66.148V56.574a2.394,2.394,0,0,1,2.393-2.393H30.18V49.393A2.394,2.394,0,0,1,32.574,47h9.574a2.394,2.394,0,0,1,2.393,2.393V54.18h4.787a2.394,2.394,0,0,1,2.393,2.393v9.574a2.394,2.394,0,0,1-2.393,2.393H44.541v4.787A2.394,2.394,0,0,1,42.147,75.721Zm-7.18-4.787h4.787V66.148a2.394,2.394,0,0,1,2.393-2.393h4.787V58.967H42.147a2.394,2.394,0,0,1-2.393-2.393V51.787H34.967v4.787a2.394,2.394,0,0,1-2.393,2.393H27.787v4.787h4.787a2.394,2.394,0,0,1,2.393,2.393Z" transform="translate(-23 -47)"/>
    </g>
    <g id="Group_105" data-name="Group 105" transform="translate(17.754 10.574)">
      <path id="Path_85" data-name="Path 85" d="M41.508,100.737A33.545,33.545,0,0,1,8,67.229V21.754A16.772,16.772,0,0,1,24.754,5H58.262A16.772,16.772,0,0,1,75.016,21.754V67.229a33.406,33.406,0,0,1-1.991,11.4L68.523,77a28.618,28.618,0,0,0,1.707-9.775V21.754A11.981,11.981,0,0,0,58.262,9.787H24.754A11.981,11.981,0,0,0,12.787,21.754V67.229a28.722,28.722,0,0,0,51.576,17.4l3.808,2.9a33.281,33.281,0,0,1-26.663,13.209Z" transform="translate(-8 -5)"/>
    </g>
    <g id="Group_106" data-name="Group 106" transform="translate(79.983 51.262)">
      <path id="Path_86" data-name="Path 86" d="M48.361,50.721H41.18A7.189,7.189,0,0,1,34,43.541V29.18A7.189,7.189,0,0,1,41.18,22h7.18a7.189,7.189,0,0,1,7.18,7.18V43.541A7.189,7.189,0,0,1,48.361,50.721ZM41.18,26.787a2.4,2.4,0,0,0-2.393,2.393V43.541a2.4,2.4,0,0,0,2.393,2.393h7.18a2.4,2.4,0,0,0,2.393-2.393V29.18a2.4,2.4,0,0,0-2.393-2.393Z" transform="translate(-34 -22)"/>
    </g>
    <g id="Group_107" data-name="Group 107" transform="translate(1 51.262)">
      <path id="Path_87" data-name="Path 87" d="M15.361,50.721H8.18A7.189,7.189,0,0,1,1,43.541V29.18A7.189,7.189,0,0,1,8.18,22h7.18a7.189,7.189,0,0,1,7.18,7.18V43.541A7.189,7.189,0,0,1,15.361,50.721ZM8.18,26.787A2.4,2.4,0,0,0,5.787,29.18V43.541A2.4,2.4,0,0,0,8.18,45.934h7.18a2.4,2.4,0,0,0,2.393-2.393V29.18a2.4,2.4,0,0,0-2.393-2.393Z" transform="translate(-1 -22)"/>
    </g>
    <g id="Group_108" data-name="Group 108" transform="translate(8.18 1)">
      <path id="Path_88" data-name="Path 88" d="M90.164,53.656H85.377V34.508A28.753,28.753,0,0,0,56.656,5.787H37.508A28.753,28.753,0,0,0,8.787,34.508V53.656H4V34.508A33.545,33.545,0,0,1,37.508,1H56.656A33.545,33.545,0,0,1,90.164,34.508Z" transform="translate(-4 -1)"/>
    </g>
    <g id="Group_109" data-name="Group 109" transform="translate(65.623 79.983)">
      <path id="Path_89" data-name="Path 89" d="M39.967,48.361H35.18A7.18,7.18,0,0,1,35.18,34h4.787a7.18,7.18,0,0,1,0,14.361ZM35.18,38.787a2.393,2.393,0,0,0,0,4.787h4.787a2.393,2.393,0,0,0,0-4.787Z" transform="translate(-28 -34)"/>
    </g>
    <g id="Group_110" data-name="Group 110" transform="translate(82.377 77.59)">
      <path id="Path_90" data-name="Path 90" d="M44.574,44.967H35V40.18h7.18V33h4.787v9.574A2.394,2.394,0,0,1,44.574,44.967Z" transform="translate(-35 -33)"/>
    </g>
    <g id="Group_111" data-name="Group 111" transform="translate(1 96.737)">
      <path id="Path_91" data-name="Path 91" d="M70.41,93.656H3.393A2.394,2.394,0,0,1,1,91.262V62.541A21.567,21.567,0,0,1,22.541,41H34.508v4.787H22.541A16.772,16.772,0,0,0,5.787,62.541V88.869H70.41Z" transform="translate(-1 -41)"/>
    </g>
    <g id="Group_112" data-name="Group 112" transform="translate(32.115 99.131)">
      <path id="Path_92" data-name="Path 92" d="M30.414,63.347A19.23,19.23,0,0,1,14,44.393V42h4.787v2.393A14.42,14.42,0,0,0,31.094,58.608Z" transform="translate(-14 -42)"/>
    </g>
    <g id="Group_113" data-name="Group 113" transform="translate(20.147 123.065)">
      <path id="Path_93" data-name="Path 93" d="M9,52h4.787V75.934H9Z" transform="translate(-9 -52)"/>
    </g>
    <g id="Group_114" data-name="Group 114" transform="translate(20.147 29.721)">
      <path id="Path_94" data-name="Path 94" d="M32.934,29.754H9V24.967H32.934A11.981,11.981,0,0,0,44.9,13h4.787A16.772,16.772,0,0,1,32.934,29.754Z" transform="translate(-9 -13)"/>
    </g>
    <g id="Group_115" data-name="Group 115" transform="translate(56.049 29.721)">
      <path id="Path_95" data-name="Path 95" d="M50.328,29.754H40.754A16.772,16.772,0,0,1,24,13h4.787A11.981,11.981,0,0,0,40.754,24.967h9.574Z" transform="translate(-24 -13)"/>
    </g>
    <g id="Group_116" data-name="Group 116" transform="translate(118.278 111.098)">
      <path id="Path_96" data-name="Path 96" d="M64.361,54.18H59.574a2.393,2.393,0,1,0-4.787,0H50a7.18,7.18,0,1,1,14.361,0Z" transform="translate(-50 -47)"/>
    </g>
    <g id="Group_117" data-name="Group 117" transform="translate(118.278 132.639)">
      <path id="Path_97" data-name="Path 97" d="M57.18,63.18A7.189,7.189,0,0,1,50,56h4.787a2.393,2.393,0,0,0,4.787,0h4.787A7.189,7.189,0,0,1,57.18,63.18Z" transform="translate(-50 -56)"/>
    </g>
    <g id="Group_118" data-name="Group 118" transform="translate(111.098 118.278)">
      <path id="Path_98" data-name="Path 98" d="M54.18,64.361A7.18,7.18,0,1,1,54.18,50v4.787a2.393,2.393,0,1,0,0,4.787Z" transform="translate(-47 -50)"/>
    </g>
    <g id="Group_119" data-name="Group 119" transform="translate(132.639 118.278)">
      <path id="Path_99" data-name="Path 99" d="M56,64.361V59.574a2.393,2.393,0,0,0,0-4.787V50a7.18,7.18,0,1,1,0,14.361Z" transform="translate(-56 -50)"/>
    </g>
    <g id="Group_120" data-name="Group 120" transform="translate(48.869 58.442)">
      <path id="Path_100" data-name="Path 100" d="M30.574,46.541h-7.18A2.394,2.394,0,0,1,21,44.147V25h4.787V41.754h4.787Z" transform="translate(-21 -25)"/>
    </g>
    <g id="Group_121" data-name="Group 121" transform="translate(29.721 51.262)">
      <path id="Path_101" data-name="Path 101" d="M13,22H29.754v4.787H13Z" transform="translate(-13 -22)"/>
    </g>
    <g id="Group_122" data-name="Group 122" transform="translate(34.508 60.836)">
      <path id="Path_102" data-name="Path 102" d="M18.59,33.18a3.59,3.59,0,1,1,3.59-3.59A3.595,3.595,0,0,1,18.59,33.18Z" transform="translate(-15 -26)"/>
    </g>
    <g id="Group_123" data-name="Group 123" transform="translate(60.836 60.836)">
      <path id="Path_103" data-name="Path 103" d="M29.59,33.18a3.59,3.59,0,1,1,3.59-3.59A3.595,3.595,0,0,1,29.59,33.18Z" transform="translate(-26 -26)"/>
    </g>
    <g id="Group_124" data-name="Group 124" transform="translate(34.508 79.983)">
      <path id="Path_104" data-name="Path 104" d="M31.754,50.754A16.772,16.772,0,0,1,15,34h4.787a11.967,11.967,0,1,0,23.934,0h4.787A16.772,16.772,0,0,1,31.754,50.754Z" transform="translate(-15 -34)"/>
    </g>
    <g id="Group_125" data-name="Group 125" transform="translate(56.049 51.262)">
      <path id="Path_105" data-name="Path 105" d="M24,22H40.754v4.787H24Z" transform="translate(-24 -22)"/>
    </g>
  </g>
</svg>
