<svg xmlns="http://www.w3.org/2000/svg" width="148.14" height="148.14" viewBox="0 0 148.14 148.14">
  <g id="target-2" transform="translate(-8 -8)">
    <g id="Group_127" data-name="Group 127" transform="translate(10.957 10.389)">
      <path id="Path_106" data-name="Path 106" d="M120,48h81.238V181.8H120Z" transform="translate(-89.506 -38.443)" fill="#e0e0e2"/>
      <path id="Path_107" data-name="Path 107" d="M184,16h43.008v9.557H184Z" transform="translate(-134.391 -16)" fill="#acabb1"/>
      <path id="Path_108" data-name="Path 108" d="M120,48h81.238V62.336H120Z" transform="translate(-89.506 -38.443)" fill="#ab2300"/>
      <g id="Group_126" data-name="Group 126" transform="translate(40.051 31.062)">
        <path id="Path_109" data-name="Path 109" d="M232,416h14.336v23.893H232Z" transform="translate(-208.107 -327.594)" fill="#3d9ae2"/>
        <path id="Path_110" data-name="Path 110" d="M232,336h14.336v14.336H232Z" transform="translate(-208.107 -271.488)" fill="#3d9ae2"/>
        <path id="Path_111" data-name="Path 111" d="M152,336h14.336v14.336H152Z" transform="translate(-152 -271.488)" fill="#3d9ae2"/>
        <path id="Path_112" data-name="Path 112" d="M312,336h14.336v14.336H312Z" transform="translate(-264.213 -271.488)" fill="#3d9ae2"/>
        <path id="Path_113" data-name="Path 113" d="M152,416h14.336v14.336H152Z" transform="translate(-152 -327.594)" fill="#3d9ae2"/>
        <path id="Path_114" data-name="Path 114" d="M312,416h14.336v14.336H312Z" transform="translate(-264.213 -327.594)" fill="#3d9ae2"/>
        <path id="Path_115" data-name="Path 115" d="M232,264h14.336v14.336H232Z" transform="translate(-208.107 -220.992)" fill="#3d9ae2"/>
        <path id="Path_116" data-name="Path 116" d="M152,264h14.336v14.336H152Z" transform="translate(-152 -220.992)" fill="#3d9ae2"/>
        <path id="Path_117" data-name="Path 117" d="M312,264h14.336v14.336H312Z" transform="translate(-264.213 -220.992)" fill="#3d9ae2"/>
        <path id="Path_118" data-name="Path 118" d="M232,192h14.336v14.336H232Z" transform="translate(-208.107 -170.496)" fill="#3d9ae2"/>
        <path id="Path_119" data-name="Path 119" d="M152,192h14.336v14.336H152Z" transform="translate(-152 -170.496)" fill="#3d9ae2"/>
        <path id="Path_120" data-name="Path 120" d="M312,192h14.336v14.336H312Z" transform="translate(-264.213 -170.496)" fill="#3d9ae2"/>
        <path id="Path_121" data-name="Path 121" d="M232,120h14.336v14.336H232Z" transform="translate(-208.107 -120)" fill="#3d9ae2"/>
        <path id="Path_122" data-name="Path 122" d="M152,120h14.336v14.336H152Z" transform="translate(-152 -120)" fill="#3d9ae2"/>
        <path id="Path_123" data-name="Path 123" d="M312,120h14.336v14.336H312Z" transform="translate(-264.213 -120)" fill="#3d9ae2"/>
      </g>
      <ellipse id="Ellipse_11" data-name="Ellipse 11" cx="12" cy="14" rx="12" ry="14" transform="translate(-0.21 94.004)" fill="#c2fb3b"/>
      <path id="Path_124" data-name="Path 124" d="M32,456l7.168,4.779" transform="translate(-27.789 -324.586)" fill="#e0e0e2"/>
      <ellipse id="Ellipse_12" data-name="Ellipse 12" cx="11.5" cy="14" rx="11.5" ry="14" transform="translate(118.79 94.004)" fill="#c2fb3b"/>
      <path id="Path_125" data-name="Path 125" d="M432,456l7.168,4.779" transform="translate(-308.321 -324.586)" fill="#e0e0e2"/>
    </g>
    <g id="Group_128" data-name="Group 128" transform="translate(8 8)">
      <path id="Path_126" data-name="Path 126" d="M153.75,151.361h-9.557V134.4c6.771-1.332,11.947-8.216,11.947-16.49,0-9.223-6.43-16.725-14.336-16.725s-14.336,7.5-14.336,16.725c0,8.273,5.176,15.157,11.947,16.49v7.718l-3.453-2.3a2.391,2.391,0,1,0-2.652,3.978l6.1,4.068v3.5H125.078V19.947a2.389,2.389,0,0,0-2.389-2.389H105.963V10.389A2.389,2.389,0,0,0,103.574,8H60.566a2.389,2.389,0,0,0-2.389,2.389v7.168H41.451a2.389,2.389,0,0,0-2.389,2.389V151.361H24.725V134.4c6.771-1.332,11.947-8.216,11.947-16.49,0-9.223-6.43-16.725-14.336-16.725S8,108.687,8,117.91c0,8.273,5.176,15.157,11.947,16.49v7.718l-3.453-2.3a2.391,2.391,0,1,0-2.652,3.978l6.1,4.068v3.5H10.389a2.389,2.389,0,0,0,0,4.779H153.75a2.389,2.389,0,1,0,0-4.779ZM22.336,115.521a2.389,2.389,0,0,0-2.389,2.389v11.567c-4.119-1.329-7.168-6.012-7.168-11.567,0-6.589,4.286-11.947,9.557-11.947s9.557,5.358,9.557,11.947c0,5.555-3.049,10.238-7.168,11.567V117.91A2.389,2.389,0,0,0,22.336,115.521ZM62.955,12.779h38.23v4.779H62.955ZM79.68,151.361H77.291V132.246H79.68Zm7.168,0H84.459V132.246h2.389Zm33.451,0H91.627v-21.5a2.389,2.389,0,0,0-2.389-2.389H74.9a2.389,2.389,0,0,0-2.389,2.389v21.5H43.84V36.672H120.3Zm0-119.467H43.84V22.336H120.3Zm21.5,83.627a2.389,2.389,0,0,0-2.389,2.389v11.567c-4.119-1.329-7.168-6.012-7.168-11.567,0-6.589,4.286-11.947,9.557-11.947s9.557,5.358,9.557,11.947c0,5.555-3.049,10.238-7.168,11.567V117.91A2.389,2.389,0,0,0,141.8,115.521Z" transform="translate(-8 -8)"/>
      <path id="Path_127" data-name="Path 127" d="M240.725,328H226.389A2.389,2.389,0,0,0,224,330.389v14.336a2.389,2.389,0,0,0,2.389,2.389h14.336a2.389,2.389,0,0,0,2.389-2.389V330.389A2.389,2.389,0,0,0,240.725,328Zm-2.389,14.336h-9.557v-9.557h9.557Z" transform="translate(-159.488 -232.426)"/>
      <path id="Path_128" data-name="Path 128" d="M160.725,328H146.389A2.389,2.389,0,0,0,144,330.389v14.336a2.389,2.389,0,0,0,2.389,2.389h14.336a2.389,2.389,0,0,0,2.389-2.389V330.389A2.389,2.389,0,0,0,160.725,328Zm-2.389,14.336h-9.557v-9.557h9.557Z" transform="translate(-103.381 -232.426)"/>
      <path id="Path_129" data-name="Path 129" d="M320.725,328H306.389A2.389,2.389,0,0,0,304,330.389v14.336a2.389,2.389,0,0,0,2.389,2.389h14.336a2.389,2.389,0,0,0,2.389-2.389V330.389A2.389,2.389,0,0,0,320.725,328Zm-2.389,14.336h-9.557v-9.557h9.557Z" transform="translate(-215.594 -232.426)"/>
      <path id="Path_130" data-name="Path 130" d="M160.725,408H146.389A2.389,2.389,0,0,0,144,410.389v14.336a2.389,2.389,0,0,0,2.389,2.389h14.336a2.389,2.389,0,0,0,2.389-2.389V410.389A2.389,2.389,0,0,0,160.725,408Zm-2.389,14.336h-9.557v-9.557h9.557Z" transform="translate(-103.381 -288.533)"/>
      <path id="Path_131" data-name="Path 131" d="M320.725,408H306.389A2.389,2.389,0,0,0,304,410.389v14.336a2.389,2.389,0,0,0,2.389,2.389h14.336a2.389,2.389,0,0,0,2.389-2.389V410.389A2.389,2.389,0,0,0,320.725,408Zm-2.389,14.336h-9.557v-9.557h9.557Z" transform="translate(-215.594 -288.533)"/>
      <path id="Path_132" data-name="Path 132" d="M240.725,256H226.389A2.389,2.389,0,0,0,224,258.389v14.336a2.389,2.389,0,0,0,2.389,2.389h14.336a2.389,2.389,0,0,0,2.389-2.389V258.389A2.389,2.389,0,0,0,240.725,256Zm-2.389,14.336h-9.557v-9.557h9.557Z" transform="translate(-159.488 -181.93)"/>
      <path id="Path_133" data-name="Path 133" d="M160.725,256H146.389A2.389,2.389,0,0,0,144,258.389v14.336a2.389,2.389,0,0,0,2.389,2.389h14.336a2.389,2.389,0,0,0,2.389-2.389V258.389A2.389,2.389,0,0,0,160.725,256Zm-2.389,14.336h-9.557v-9.557h9.557Z" transform="translate(-103.381 -181.93)"/>
      <path id="Path_134" data-name="Path 134" d="M320.725,256H306.389A2.389,2.389,0,0,0,304,258.389v14.336a2.389,2.389,0,0,0,2.389,2.389h14.336a2.389,2.389,0,0,0,2.389-2.389V258.389A2.389,2.389,0,0,0,320.725,256Zm-2.389,14.336h-9.557v-9.557h9.557Z" transform="translate(-215.594 -181.93)"/>
      <path id="Path_135" data-name="Path 135" d="M240.725,184H226.389A2.389,2.389,0,0,0,224,186.389v14.336a2.389,2.389,0,0,0,2.389,2.389h14.336a2.389,2.389,0,0,0,2.389-2.389V186.389A2.389,2.389,0,0,0,240.725,184Zm-2.389,14.336h-9.557v-9.557h9.557Z" transform="translate(-159.488 -131.434)"/>
      <path id="Path_136" data-name="Path 136" d="M160.725,184H146.389A2.389,2.389,0,0,0,144,186.389v14.336a2.389,2.389,0,0,0,2.389,2.389h14.336a2.389,2.389,0,0,0,2.389-2.389V186.389A2.389,2.389,0,0,0,160.725,184Zm-2.389,14.336h-9.557v-9.557h9.557Z" transform="translate(-103.381 -131.434)"/>
      <path id="Path_137" data-name="Path 137" d="M320.725,184H306.389A2.389,2.389,0,0,0,304,186.389v14.336a2.389,2.389,0,0,0,2.389,2.389h14.336a2.389,2.389,0,0,0,2.389-2.389V186.389A2.389,2.389,0,0,0,320.725,184Zm-2.389,14.336h-9.557v-9.557h9.557Z" transform="translate(-215.594 -131.434)"/>
      <path id="Path_138" data-name="Path 138" d="M240.725,112H226.389A2.389,2.389,0,0,0,224,114.389v14.336a2.389,2.389,0,0,0,2.389,2.389h14.336a2.389,2.389,0,0,0,2.389-2.389V114.389A2.389,2.389,0,0,0,240.725,112Zm-2.389,14.336h-9.557v-9.557h9.557Z" transform="translate(-159.488 -80.938)"/>
      <path id="Path_139" data-name="Path 139" d="M160.725,112H146.389A2.389,2.389,0,0,0,144,114.389v14.336a2.389,2.389,0,0,0,2.389,2.389h14.336a2.389,2.389,0,0,0,2.389-2.389V114.389A2.389,2.389,0,0,0,160.725,112Zm-2.389,14.336h-9.557v-9.557h9.557Z" transform="translate(-103.381 -80.938)"/>
      <path id="Path_140" data-name="Path 140" d="M320.725,112H306.389A2.389,2.389,0,0,0,304,114.389v14.336a2.389,2.389,0,0,0,2.389,2.389h14.336a2.389,2.389,0,0,0,2.389-2.389V114.389A2.389,2.389,0,0,0,320.725,112Zm-2.389,14.336h-9.557v-9.557h9.557Z" transform="translate(-215.594 -80.938)"/>
    </g>
  </g>
</svg>
