<svg xmlns="http://www.w3.org/2000/svg" width="114.885" height="148.393" viewBox="0 0 114.885 148.393">
  <g id="target-1" transform="translate(-13 -1)">
    <g id="Group_148" data-name="Group 148" transform="translate(15.393 3.393)">
      <g id="Group_129" data-name="Group 129" transform="translate(36.476 86.164)">
        <path id="Path_141" data-name="Path 141" d="M38.239,38l5.026,17.592v.024a22.188,22.188,0,0,0-2.633,1.532c-.957-.646-1.963-1.221-11.393-4.428V52.7L33.452,38Z" transform="translate(-29.24 -38)" fill="#ffeaa7"/>
      </g>
      <g id="Group_130" data-name="Group 130" transform="translate(37.098 74.197)">
        <path id="Path_142" data-name="Path 142" d="M41.467,37.787l-3.59,7.18H33.09l-3.59-7.18L35.484,33Z" transform="translate(-29.5 -33)" fill="#fcd770"/>
      </g>
      <g id="Group_131" data-name="Group 131" transform="translate(14.361)">
        <path id="Path_143" data-name="Path 143" d="M76.677,33.785l-1.029,4.141-.024.024a7.011,7.011,0,0,0-5.361-2.441H67.869V34.383a9.566,9.566,0,0,0-8.377-9.5l-1.269-.144A10.848,10.848,0,0,1,51.306,21l-.191.144H39.147a9.571,9.571,0,0,0-9.574,9.574v4.787H27.18a7.011,7.011,0,0,0-5.361,2.441l-.024-.024-1.029-4.141A25.909,25.909,0,0,1,20,27.562,25.577,25.577,0,0,1,45.562,2h6.319A25.557,25.557,0,0,1,77.442,27.562a25.909,25.909,0,0,1-.766,6.223Z" transform="translate(-20 -2)" fill="#b27946"/>
      </g>
      <g id="Group_132" data-name="Group 132" transform="translate(45.475 71.42)">
        <path id="Path_144" data-name="Path 144" d="M74.909,63.194l3.566-21.4H92.836V84.567A14.667,14.667,0,0,1,66.891,93.95l-7.563-9.071V60.944H51.214A28.3,28.3,0,0,0,38.026,64.2v-.024L33,46.584l3.59-7.18,5.984,4.787L47.5,31.84A43.392,43.392,0,0,1,74.047,60.3Z" transform="translate(-33 -31.84)" fill="#e6e9ed"/>
      </g>
      <g id="Group_133" data-name="Group 133" transform="translate(0 71.229)">
        <path id="Path_145" data-name="Path 145" d="M37.934,89.777h9.574v14.361H37.934A23.943,23.943,0,0,1,14,80.2V68.571A39.019,39.019,0,0,1,40.088,31.76L45.115,44.3,51.1,39.515l3.59,7.18-4.212,14.7v.024a27.4,27.4,0,0,0-4.428-.359H37.934Z" transform="translate(-14 -31.76)" fill="#e6e9ed"/>
      </g>
      <g id="Group_134" data-name="Group 134" transform="translate(43.082 69.41)">
        <path id="Path_146" data-name="Path 146" d="M48.9,33.01l-4.93,12.35-5.984-4.787L32,35.787,41.574,31A44.107,44.107,0,0,1,48.9,33.01Z" transform="translate(-32 -31)" fill="#ccd1d9"/>
      </g>
      <g id="Group_135" data-name="Group 135" transform="translate(26.088 69.41)">
        <path id="Path_147" data-name="Path 147" d="M41.893,35.787,35.91,40.574l-5.984,4.787L24.9,32.819A38.2,38.2,0,0,1,32.32,31Z" transform="translate(-24.9 -31)" fill="#ccd1d9"/>
      </g>
      <g id="Group_136" data-name="Group 136" transform="translate(47.869 100.524)">
        <path id="Path_148" data-name="Path 148" d="M57.934,67.934v9.574H49.821a28.484,28.484,0,0,0-11.034,2.226,7.22,7.22,0,0,0-2.106-4.907A6.792,6.792,0,0,0,34,73.152V48.787a22.188,22.188,0,0,1,2.633-1.532A28.3,28.3,0,0,1,49.821,44h8.114Z" transform="translate(-34 -44)" fill="#b4dd7f"/>
      </g>
      <g id="Group_137" data-name="Group 137" transform="translate(23.934 100.524)">
        <path id="Path_149" data-name="Path 149" d="M47.934,48.787V73.152a6.635,6.635,0,0,0-2.393-.431H43.147v-.359a4.438,4.438,0,0,0-8.4-1.987l-1.173,2.346H24V44h8.114a27.4,27.4,0,0,1,4.428.359c9.43,3.207,10.435,3.782,11.393,4.428Z" transform="translate(-24 -44)" fill="#b4dd7f"/>
      </g>
      <g id="Group_138" data-name="Group 138" transform="translate(33.508 124.459)">
        <path id="Path_150" data-name="Path 150" d="M47.147,65.8v.168a7.171,7.171,0,0,1-7.18,7.18H28V58.787l1.173-2.346a4.438,4.438,0,0,1,8.4,1.987v.359h2.393a6.634,6.634,0,0,1,2.393.431,6.791,6.791,0,0,1,2.681,1.675A7.22,7.22,0,0,1,47.147,65.8Z" transform="translate(-28 -54)" fill="#f0d0b4"/>
      </g>
      <g id="Group_139" data-name="Group 139" transform="translate(86.164 62.229)">
        <path id="Path_151" data-name="Path 151" d="M73.934,37.574v.814a9.583,9.583,0,0,1-2.8,6.773l-1.987,1.987H54.787L52.8,45.161A9.583,9.583,0,0,1,50,38.388v-5.6A4.822,4.822,0,0,1,54.787,28a4.8,4.8,0,0,1,4.787,4.787,4.822,4.822,0,0,0,4.787,4.787Z" transform="translate(-50 -28)" fill="#f0d0b4"/>
      </g>
      <g id="Group_140" data-name="Group 140" transform="translate(95.737 62.229)">
        <path id="Path_152" data-name="Path 152" d="M63.574,28a4.8,4.8,0,0,1,4.787,4.787v4.787H58.787A4.822,4.822,0,0,1,54,32.787,4.8,4.8,0,0,1,58.787,28Z" transform="translate(-54 -28)" fill="#f0d0b4"/>
      </g>
      <g id="Group_141" data-name="Group 141" transform="translate(90.951 47.869)">
        <path id="Path_153" data-name="Path 153" d="M61.574,36.361a4.8,4.8,0,0,0-4.787,4.787A4.8,4.8,0,0,0,52,36.361V26.787A4.8,4.8,0,0,1,56.787,22a4.822,4.822,0,0,1,4.787,4.787Z" transform="translate(-52 -22)" fill="#f0d0b4"/>
      </g>
      <g id="Group_142" data-name="Group 142" transform="translate(62.229 33.508)">
        <path id="Path_154" data-name="Path 154" d="M42.393,16a7.011,7.011,0,0,1,5.361,2.441,7.165,7.165,0,0,1-5.361,11.919H40V16Z" transform="translate(-40 -16)" fill="#f0d0b4"/>
      </g>
      <g id="Group_143" data-name="Group 143" transform="translate(33.508 61.942)">
        <path id="Path_155" data-name="Path 155" d="M45.281,27.88l1.867,7.468-9.574,4.787L28,35.348l1.867-7.468a14.558,14.558,0,0,0,2.92.287h9.574a14.558,14.558,0,0,0,2.92-.287Z" transform="translate(-28 -27.88)" fill="#f0d0b4"/>
      </g>
      <g id="Group_144" data-name="Group 144" transform="translate(14.361 33.508)">
        <path id="Path_156" data-name="Path 156" d="M29.574,18.393V30.361H27.18a7.153,7.153,0,0,1-5.361-11.919A7.011,7.011,0,0,1,27.18,16h2.393Z" transform="translate(-20 -16)" fill="#f0d0b4"/>
      </g>
      <g id="Group_145" data-name="Group 145" transform="translate(23.934 19.004)">
        <path id="Path_157" data-name="Path 157" d="M53.918,13.817l-1.269-.144A10.848,10.848,0,0,1,45.732,9.94l-.191.144H33.574A9.571,9.571,0,0,0,24,19.657V38.8A14.4,14.4,0,0,0,35.441,52.878a14.558,14.558,0,0,0,2.92.287h9.574a14.558,14.558,0,0,0,2.92-.287A14.4,14.4,0,0,0,62.295,38.8V23.319A9.566,9.566,0,0,0,53.918,13.817Z" transform="translate(-24 -9.94)" fill="#f0d0b4"/>
      </g>
      <g id="Group_146" data-name="Group 146" transform="translate(47.869 28.721)">
        <ellipse id="Ellipse_13" data-name="Ellipse 13" cx="7.5" cy="7" rx="7.5" ry="7" transform="translate(-0.262 0.278)" fill="#69d6f4"/>
      </g>
      <g id="Group_147" data-name="Group 147" transform="translate(23.934 28.721)">
        <ellipse id="Ellipse_14" data-name="Ellipse 14" cx="7.5" cy="7" rx="7.5" ry="7" transform="translate(-0.328 0.278)" fill="#69d6f4"/>
      </g>
    </g>
    <g id="Group_149" data-name="Group 149" transform="translate(13 1)">
      <path id="Path_158" data-name="Path 158" d="M29,23H43.361v4.787H29Z" transform="translate(9.295 29.656)"/>
      <path id="Path_159" data-name="Path 159" d="M120.7,63.229h-2.393v-7.18a7.18,7.18,0,1,0-14.361,0V63.67a7.171,7.171,0,0,0-4.787,6.74v5.608a11.893,11.893,0,0,0,3.506,8.463l1.111,1.111L101.962,96.5a45.493,45.493,0,0,0-31.95-25.72l-.957-3.822a16.776,16.776,0,0,0,10.77-13.308h.191A9.561,9.561,0,0,0,87.991,38.8l.764-3.052A27.956,27.956,0,0,0,61.623,1h-6.3A27.958,27.958,0,0,0,28.2,35.75l.764,3.054a9.556,9.556,0,0,0,7.973,14.851h.191A16.78,16.78,0,0,0,47.9,66.963l-.945,3.777A41.609,41.609,0,0,0,13,111.44v11.625a26.359,26.359,0,0,0,26.328,26.328H60.869a9.561,9.561,0,0,0,9.416-8.018,25.953,25.953,0,0,1,8.786-1.556H89.59v-5.354l3.336,4A17.064,17.064,0,0,0,123.1,127.543V85.761l1.28-1.28a11.893,11.893,0,0,0,3.506-8.463V70.41a7.189,7.189,0,0,0-7.18-7.18Zm-9.574-9.574a2.394,2.394,0,0,1,2.393,2.393V63.67a7.153,7.153,0,0,0-2.393,1.426,7.114,7.114,0,0,0-2.393-1.426V56.049A2.394,2.394,0,0,1,111.131,53.656Zm-50.576,76.59a6.832,6.832,0,0,0-12.63-1.01l-.5,1.01h-5.7V106.311h5.732a26,26,0,0,1,13.415,3.729v20.205Zm-6.5-52.189-6.527,5.22-2.846-7.116A36.765,36.765,0,0,1,48.55,75.3Zm3.832,13.894h1.175L63,105.732a30.765,30.765,0,0,0-8.111-3.286Zm1.5-4.787H57.561L55.5,83.037l2.977-2.381,2.977,2.381Zm3.5-9.107,5.476-2.738c1.307.263,2.587.589,3.846.967l-2.8,6.991ZM75.229,39.295a4.787,4.787,0,1,1-4.787-4.787A4.792,4.792,0,0,1,75.229,39.295Zm4.787,9.574V39.295a4.787,4.787,0,0,1,0,9.574ZM55.328,5.787h6.3A23.184,23.184,0,0,1,84.111,34.592l-.191.768a9.474,9.474,0,0,0-3.9-.852H79.9a11.951,11.951,0,0,0-10.364-10.6l-1.264-.158a8.465,8.465,0,0,1-7.4-8.387H56.082A13.255,13.255,0,0,0,67.676,28.5l1.264.158A7.139,7.139,0,0,1,72.1,29.886a9.744,9.744,0,0,0-1.661-.165,9.561,9.561,0,0,0-9.234,7.18H55.742A9.455,9.455,0,0,0,41.834,30.99a7.159,7.159,0,0,1,6.821-6.031,18.5,18.5,0,0,0,6.1,6.754l2.654-3.983a13.7,13.7,0,0,1-6.113-11.424v-.945H46.508v.945a18.584,18.584,0,0,0,.467,4.038,11.955,11.955,0,0,0-10.04,11.771v2.393a9.474,9.474,0,0,0-3.9.852l-.191-.768A23.184,23.184,0,0,1,55.328,5.787Zm-8.82,28.721a4.787,4.787,0,1,1-4.787,4.787A4.792,4.792,0,0,1,46.508,34.508ZM32.147,44.082a4.792,4.792,0,0,1,4.787-4.787v9.574A4.792,4.792,0,0,1,32.147,44.082Zm9.574,7.18V47.538a9.461,9.461,0,0,0,14.021-5.85h5.467a9.461,9.461,0,0,0,14.021,5.85v3.724A11.981,11.981,0,0,1,63.262,63.229H53.688A11.981,11.981,0,0,1,41.721,51.262ZM53.688,68.016h9.574c.373,0,.742-.031,1.108-.055l.89,3.559-6.785,3.394L51.69,71.52l.89-3.559C52.946,67.985,53.315,68.016,53.688,68.016Zm-35.9,55.049V111.44A36.839,36.839,0,0,1,40.158,77.734l5.328,13.317L51.678,86.1l1.85,3.7-3.389,11.859c-.893-.079-1.786-.132-2.685-.132H36.934v28.281a7.171,7.171,0,0,1-4.787-6.74V96.737H27.361v26.328a11.981,11.981,0,0,0,11.967,11.967h7.18v9.574h-7.18A21.564,21.564,0,0,1,17.787,123.065Zm43.082,21.541H51.295V133.2l.914-1.829a2.044,2.044,0,0,1,3.873.914v2.743h4.787a4.787,4.787,0,1,1,0,9.574ZM84.8,135.032H79.071a30.681,30.681,0,0,0-9.267,1.431,9.569,9.569,0,0,0-4.148-4.887V110.04a26.007,26.007,0,0,1,13.415-3.729H84.8Zm21.232,4.787a12.243,12.243,0,0,1-9.43-4.418l-7.015-8.418V101.524H79.071a30.8,30.8,0,0,0-11.642,2.288l-4-14.018,1.85-3.7,6.192,4.952,5.246-13.114a40.759,40.759,0,0,1,22.917,26l.7,2.367L96.8,127.46l4.722.785,6.848-41.081h9.94v40.38A12.29,12.29,0,0,1,106.035,139.819ZM120.994,81.1l-1.28,1.28H107.335l-1.28-1.28a7.143,7.143,0,0,1-2.1-5.079V70.41a2.393,2.393,0,0,1,4.787,0,7.189,7.189,0,0,0,7.18,7.18h7.01A7.152,7.152,0,0,1,120.994,81.1Zm2.1-8.293h-7.18a2.393,2.393,0,0,1,0-4.787H120.7A2.394,2.394,0,0,1,123.1,70.41Z" transform="translate(-13 -1)"/>
    </g>
  </g>
</svg>
