<svg xmlns="http://www.w3.org/2000/svg" width="155.921" height="147.394" viewBox="0 0 155.921 147.394">
  <g id="target-5" transform="translate(0 -13.999)">
    <path id="XMLID_1700_" d="M418,263.343l18.262-10.748a4.856,4.856,0,0,1,7.319,4.185v58.539a4.856,4.856,0,0,1-7.319,4.185L418,308.756Z" transform="translate(-290.706 -165.464)" fill="#9bc6ff"/>
    <path id="XMLID_1699_" d="M0,0H12.181V41.416H0Z" transform="translate(127.295 141.294) rotate(180)" fill="#98a1b3"/>
    <path id="XMLID_1698_" d="M17.309,240h97.45a7.309,7.309,0,0,1,7.309,7.309v60.906a7.309,7.309,0,0,1-7.309,7.309H17.309A7.309,7.309,0,0,1,10,308.215V247.309A7.309,7.309,0,0,1,17.309,240Z" transform="translate(-6.955 -157.176)" fill="#8690a6"/>
    <ellipse id="XMLID_1697_" cx="7.5" cy="7" rx="7.5" ry="7" transform="translate(85 97.392)" fill="#f5737f"/>
    <g id="XMLID_759_" transform="translate(2.076 17.045)">
      <ellipse id="XMLID_1696_" cx="25" cy="24" rx="25" ry="24" transform="translate(-0.076 17.347)" fill="#98a1b3"/>
      <g id="XMLID_1203_" transform="translate(49.068 0)">
        <circle id="XMLID_1188_" cx="32.89" cy="32.89" r="32.89" fill="#8690a6"/>
        <circle id="XMLID_1695_" cx="20.708" cy="20.708" r="20.708" transform="translate(12.181 12.181)" fill="#d3d7df"/>
      </g>
      <ellipse id="XMLID_757_" cx="10" cy="11.5" rx="10" ry="11.5" transform="translate(14.924 30.347)" fill="#d3d7df"/>
    </g>
    <path id="XMLID_1308_" d="M64,344h52.989v29.235H64Z" transform="translate(-44.51 -229.505)" fill="#e1e3e9"/>
    <path id="XMLID_1341_" d="M282,384h14.618v14.618H282Z" transform="translate(-196.122 -257.324)" fill="#ffcb7c"/>
    <g id="XMLID_190_" transform="translate(0 13.999)">
      <path id="XMLID_217_" d="M151.942,84.457a7.816,7.816,0,0,0-7.93.05L125.75,95.254a3.041,3.041,0,0,0-1.309,1.578h-6.282v-6.7A10.366,10.366,0,0,0,107.8,79.778h-3.777a35.93,35.93,0,1,0-54.97-38.1A27.4,27.4,0,1,0,10.207,79.782,10.364,10.364,0,0,0,0,90.132v60.906a10.366,10.366,0,0,0,10.354,10.354H45.375a3.045,3.045,0,1,0,0-6.091H10.354a4.268,4.268,0,0,1-4.263-4.263V90.132a4.268,4.268,0,0,1,4.263-4.263H107.8a4.268,4.268,0,0,1,4.263,4.263v60.906A4.268,4.268,0,0,1,107.8,155.3H72.783a3.045,3.045,0,1,0,0,6.091H107.8a10.366,10.366,0,0,0,10.354-10.354v-6.7h6.282a3.038,3.038,0,0,0,1.309,1.578l18.262,10.748a7.9,7.9,0,0,0,11.909-6.809V91.316a7.817,7.817,0,0,0-3.979-6.859ZM84.033,20.09A29.844,29.844,0,1,1,54.189,49.934,29.878,29.878,0,0,1,84.033,20.09ZM6.091,58.461A21.317,21.317,0,1,1,27.408,79.778,21.341,21.341,0,0,1,6.091,58.461ZM44.614,79.778a27.529,27.529,0,0,0,8.441-11.653A36.211,36.211,0,0,0,64.039,79.778Zm73.545,23.144h6.091v35.326h-6.091Zm31.671,46.932a1.811,1.811,0,0,1-2.729,1.56l-16.761-9.864V99.62L147.1,89.756a1.811,1.811,0,0,1,2.729,1.56Z" transform="translate(0 -13.999)"/>
      <path id="XMLID_1198_" d="M282.354,298.708A10.354,10.354,0,1,0,272,288.354,10.366,10.366,0,0,0,282.354,298.708Zm0-14.618a4.263,4.263,0,1,1-4.263,4.263A4.268,4.268,0,0,1,282.354,284.091Z" transform="translate(-189.167 -197.603)"/>
      <path id="XMLID_1201_" d="M187.045,478a3.047,3.047,0,1,0,2.153.892A3.068,3.068,0,0,0,187.045,478Z" transform="translate(-127.966 -336.697)"/>
      <path id="XMLID_1508_" d="M221.7,101.507a23.754,23.754,0,1,0-23.754-23.754A23.78,23.78,0,0,0,221.7,101.507Zm0-41.416a17.663,17.663,0,1,1-17.663,17.663A17.683,17.683,0,0,1,221.7,60.091Z" transform="translate(-137.662 -41.818)"/>
      <path id="XMLID_1509_" d="M268.984,100.761a3.047,3.047,0,1,0-2.153-.892A3.068,3.068,0,0,0,268.984,100.761Z" transform="translate(-184.952 -70.103)"/>
      <path id="XMLID_1511_" d="M268.984,155.421a3.047,3.047,0,1,0-2.153-.892A3.055,3.055,0,0,0,268.984,155.421Z" transform="translate(-184.952 -108.117)"/>
      <path id="XMLID_1513_" d="M296.324,128.091a3.047,3.047,0,1,0-2.153-.892A3.073,3.073,0,0,0,296.324,128.091Z" transform="translate(-203.966 -89.11)"/>
      <path id="XMLID_1514_" d="M241.654,128.091a3.047,3.047,0,1,0-2.153-.892A3.068,3.068,0,0,0,241.654,128.091Z" transform="translate(-165.945 -89.11)"/>
      <path id="XMLID_1517_" d="M58.008,142.017A14.008,14.008,0,1,0,44,128.009,14.025,14.025,0,0,0,58.008,142.017Zm0-21.926a7.918,7.918,0,1,1-7.918,7.918A7.927,7.927,0,0,1,58.008,120.091Z" transform="translate(-30.601 -83.546)"/>
      <path id="XMLID_1993_" d="M113.079,366.28V337.045A3.045,3.045,0,0,0,110.034,334H57.045A3.045,3.045,0,0,0,54,337.045V366.28a3.045,3.045,0,0,0,3.045,3.045h52.989A3.045,3.045,0,0,0,113.079,366.28Zm-6.091-3.045h-46.9V340.091h46.9Z" transform="translate(-37.555 -236.549)"/>
      <path id="XMLID_1996_" d="M272,391.663a3.045,3.045,0,0,0,3.045,3.045h14.618a3.045,3.045,0,0,0,3.045-3.045V377.045A3.045,3.045,0,0,0,289.663,374H275.045A3.045,3.045,0,0,0,272,377.045Zm6.091-11.572h8.527v8.527h-8.527Z" transform="translate(-189.167 -264.368)"/>
    </g>
  </g>
</svg>
