<svg xmlns="http://www.w3.org/2000/svg" width="147.886" height="147.886" viewBox="0 0 147.886 147.886">
  <g id="target-6" transform="translate(0)">
    <path id="Path_160" data-name="Path 160" d="M132.5,415.5h8.665v8.376H132.5Z" transform="translate(-94.229 -295.487)" fill="#43809f"/>
    <path id="Path_161" data-name="Path 161" d="M7.5,474.5H151.053v8.665H7.5Z" transform="translate(-5.334 -337.446)" fill="#43809f"/>
    <path id="Path_162" data-name="Path 162" d="M88.824,25.4H8.74l4.971-14.939a4.406,4.406,0,0,1,4.2-2.961H79.725a4.406,4.406,0,0,1,4.2,2.961Z" transform="translate(-6.216 -5.334)" fill="#29cef6"/>
    <path id="Path_163" data-name="Path 163" d="M237.368,10.461a4.406,4.406,0,0,0-4.2-2.961H224.5a4.406,4.406,0,0,1,4.2,2.961L233.6,25.4h8.665Z" transform="translate(-159.656 -5.334)" fill="#22b5ed"/>
    <path id="Path_164" data-name="Path 164" d="M82.021,90.161H13.854A6.355,6.355,0,0,1,7.5,83.806V61.854A6.355,6.355,0,0,1,13.854,55.5H82.021a6.355,6.355,0,0,1,6.354,6.354V83.806A6.355,6.355,0,0,1,82.021,90.161Z" transform="translate(-5.334 -39.469)" fill="#a9dbf5"/>
    <path id="Path_165" data-name="Path 165" d="M244.165,55.5H235.5a6.355,6.355,0,0,1,6.354,6.354V83.806a6.355,6.355,0,0,1-6.354,6.354h8.665a6.355,6.355,0,0,0,6.354-6.354V61.854A6.355,6.355,0,0,0,244.165,55.5Z" transform="translate(-167.478 -39.469)" fill="#88c3e0"/>
    <path id="Path_166" data-name="Path 166" d="M0,0H17.33V63.545H0Z" transform="translate(74.376 24.696) rotate(90)" fill="#43809f"/>
    <path id="Path_167" data-name="Path 167" d="M72.826,94.743a4.333,4.333,0,0,1-4.333-4.333V85.5h8.665v4.91A4.333,4.333,0,0,1,72.826,94.743Z" transform="translate(-48.709 -60.804)" fill="#f78e36"/>
    <path id="Path_168" data-name="Path 168" d="M122.833,94.743A4.333,4.333,0,0,1,118.5,90.41V85.5h8.665v4.91A4.333,4.333,0,0,1,122.833,94.743Z" transform="translate(-84.273 -60.804)" fill="#f78e36"/>
    <path id="Path_169" data-name="Path 169" d="M82.021,210.161H13.854A6.355,6.355,0,0,1,7.5,203.806V181.854a6.355,6.355,0,0,1,6.354-6.354H82.021a6.355,6.355,0,0,1,6.354,6.354v21.952A6.355,6.355,0,0,1,82.021,210.161Z" transform="translate(-5.334 -124.809)" fill="#88c3e0"/>
    <path id="Path_170" data-name="Path 170" d="M244.165,175.5H235.5a6.355,6.355,0,0,1,6.354,6.354v21.952a6.355,6.355,0,0,1-6.354,6.354h8.665a6.355,6.355,0,0,0,6.354-6.354V181.854A6.355,6.355,0,0,0,244.165,175.5Z" transform="translate(-167.478 -124.809)" fill="#6eabc9"/>
    <path id="Path_171" data-name="Path 171" d="M0,0H17.33V63.545H0Z" transform="translate(74.376 59.356) rotate(90)" fill="#43809f"/>
    <path id="Path_172" data-name="Path 172" d="M72.826,214.743a4.333,4.333,0,0,1-4.333-4.333V205.5h8.665v4.91A4.333,4.333,0,0,1,72.826,214.743Z" transform="translate(-48.709 -146.143)" fill="#f78e36"/>
    <path id="Path_173" data-name="Path 173" d="M122.833,214.743a4.333,4.333,0,0,1-4.333-4.333V205.5h8.665v4.91A4.333,4.333,0,0,1,122.833,214.743Z" transform="translate(-84.273 -146.143)" fill="#f78e36"/>
    <path id="Path_174" data-name="Path 174" d="M82.021,330.161H13.854A6.355,6.355,0,0,1,7.5,323.806V301.854a6.355,6.355,0,0,1,6.354-6.354H82.021a6.355,6.355,0,0,1,6.354,6.354v21.952A6.355,6.355,0,0,1,82.021,330.161Z" transform="translate(-5.334 -210.148)" fill="#a9dbf5"/>
    <path id="Path_175" data-name="Path 175" d="M244.165,295.5H235.5a6.355,6.355,0,0,1,6.354,6.354v21.952a6.355,6.355,0,0,1-6.354,6.354h8.665a6.355,6.355,0,0,0,6.354-6.354V301.854A6.355,6.355,0,0,0,244.165,295.5Z" transform="translate(-167.478 -210.148)" fill="#88c3e0"/>
    <path id="Path_176" data-name="Path 176" d="M0,0H17.33V63.545H0Z" transform="translate(74.376 94.017) rotate(90)" fill="#43809f"/>
    <g id="Group_150" data-name="Group 150" transform="translate(19.783 4.044)">
      <path id="Path_177" data-name="Path 177" d="M72.826,334.743a4.333,4.333,0,0,1-4.333-4.333V325.5h8.665v4.91A4.333,4.333,0,0,1,72.826,334.743Z" transform="translate(-68.493 -235.527)" fill="#f78e36"/>
      <path id="Path_178" data-name="Path 178" d="M122.833,334.743a4.333,4.333,0,0,1-4.333-4.333V325.5h8.665v4.91A4.333,4.333,0,0,1,122.833,334.743Z" transform="translate(-104.056 -235.527)" fill="#f78e36"/>
      <path id="Path_179" data-name="Path 179" d="M128.5,453.165v8.665h-26v-8.665h8.665V444.5h8.665v8.665Z" transform="translate(-92.677 -320.155)" fill="#f78e36"/>
      <path id="Path_180" data-name="Path 180" d="M395.107,40H374.888A2.888,2.888,0,0,1,372,37.107V16.888A2.888,2.888,0,0,1,374.888,14h20.219A2.888,2.888,0,0,1,398,16.888V37.107A2.888,2.888,0,0,1,395.107,40Z" transform="translate(-284.335 -14)" fill="#f78e36"/>
    </g>
    <path id="Path_181" data-name="Path 181" d="M430.665,14H422a2.888,2.888,0,0,1,2.888,2.888V37.107A2.888,2.888,0,0,1,422,40h8.665a2.888,2.888,0,0,0,2.888-2.888V16.888A2.888,2.888,0,0,0,430.665,14Z" transform="translate(-300.11 -9.956)" fill="#f86f1b"/>
    <path id="Path_182" data-name="Path 182" d="M437.607,183.5H417.388a2.888,2.888,0,0,1-2.888-2.888V160.388a2.888,2.888,0,0,1,2.888-2.888h20.219a2.888,2.888,0,0,1,2.888,2.888v20.219A2.888,2.888,0,0,1,437.607,183.5Z" transform="translate(-294.776 -112.008)" fill="#ffc328"/>
    <path id="Path_183" data-name="Path 183" d="M473.165,157.5H464.5a2.888,2.888,0,0,1,2.888,2.888v20.219A2.888,2.888,0,0,1,464.5,183.5h8.665a2.888,2.888,0,0,0,2.888-2.888V160.388A2.888,2.888,0,0,0,473.165,157.5Z" transform="translate(-330.334 -112.008)" fill="#ffb200"/>
    <path id="Path_184" data-name="Path 184" d="M395.107,362.688H374.888A2.888,2.888,0,0,1,372,359.8V339.58a2.888,2.888,0,0,1,2.888-2.888h20.219A2.888,2.888,0,0,1,398,339.58V359.8A2.888,2.888,0,0,1,395.107,362.688Z" transform="translate(-264.552 -239.442)" fill="#7be492"/>
    <path id="Path_185" data-name="Path 185" d="M430.665,336.692H422a2.888,2.888,0,0,1,2.888,2.888V359.8A2.888,2.888,0,0,1,422,362.688h8.665a2.888,2.888,0,0,0,2.888-2.888V339.58A2.888,2.888,0,0,0,430.665,336.692Z" transform="translate(-300.11 -239.442)" fill="#45d987"/>
    <g id="Group_151" data-name="Group 151" transform="translate(0 0)">
      <path id="Path_186" data-name="Path 186" d="M122.612,73.654h20.219a5.061,5.061,0,0,0,5.055-5.055V48.381a5.061,5.061,0,0,0-5.055-5.055H122.612a5.061,5.061,0,0,0-5.055,5.055V56.72H101.605a2.166,2.166,0,0,0-1.953,1.229l-3.795,7.906H85.208v-8.81a8.5,8.5,0,0,0-2.852-6.354,8.5,8.5,0,0,0,2.852-6.354V34.221H90.94a2.166,2.166,0,0,0,2.005-1.347l5.582-13.666h6.755v7.943a5.061,5.061,0,0,0,5.055,5.055h20.219a5.061,5.061,0,0,0,5.055-5.055V6.932a5.061,5.061,0,0,0-5.055-5.055H110.337a5.061,5.061,0,0,0-5.055,5.055v7.943h-8.21a2.166,2.166,0,0,0-2.005,1.347L89.485,29.888H85.208v-7.5a8.482,8.482,0,0,0-.534-2.968c0-.009,0-.018-.007-.026l-4.9-14.95A6.557,6.557,0,0,0,73.51,0H27.69a2.166,2.166,0,0,0,0,4.333H73.51A2.228,2.228,0,0,1,75.654,5.8l2.7,8.227a8.528,8.528,0,0,0-1.663-.164H8.521a8.524,8.524,0,0,0-1.707.172L9.55,5.813A2.231,2.231,0,0,1,11.7,4.333h6.723a2.166,2.166,0,0,0,0-4.333H11.7A6.557,6.557,0,0,0,5.44,4.443L.469,19.382a18.423,18.423,0,0,0-.469,3V44.337a8.5,8.5,0,0,0,2.852,6.354A8.5,8.5,0,0,0,0,57.046V79a8.5,8.5,0,0,0,2.852,6.354A8.5,8.5,0,0,0,0,91.706v9.818a2.166,2.166,0,1,0,4.333,0V91.706a4.193,4.193,0,0,1,4.188-4.188H76.687a4.193,4.193,0,0,1,4.188,4.188v21.952a4.193,4.193,0,0,1-4.188,4.188H8.521a4.193,4.193,0,0,1-4.188-4.188v-2.784a2.166,2.166,0,0,0-4.333,0v2.784a8.53,8.53,0,0,0,8.521,8.521H36.1v12.709H2.166A2.166,2.166,0,0,0,0,137.054v8.665a2.166,2.166,0,0,0,2.166,2.166H145.719a2.166,2.166,0,0,0,2.166-2.166v-8.665a2.166,2.166,0,0,0-2.166-2.166H92.713a2.166,2.166,0,1,0,0,4.333h50.84v4.333H57.768v-4.333H83.041a2.166,2.166,0,1,0,0-4.333H49.1V122.179H76.687a8.53,8.53,0,0,0,8.521-8.521v-8.81h5.779l4.568,6.628a2.167,2.167,0,0,0,1.784.937h7.943v7.943a5.061,5.061,0,0,0,5.055,5.055h20.219a5.061,5.061,0,0,0,5.055-5.055V100.138a5.061,5.061,0,0,0-5.055-5.055H110.337a5.061,5.061,0,0,0-5.055,5.055v7.943H98.477l-4.568-6.628a2.167,2.167,0,0,0-1.784-.937H85.208v-8.81a8.5,8.5,0,0,0-2.852-6.354A8.5,8.5,0,0,0,85.208,79v-8.81H97.22a2.166,2.166,0,0,0,1.953-1.229l3.795-7.907h14.589V68.6A5.061,5.061,0,0,0,122.612,73.654Zm-13-66.722a.723.723,0,0,1,.722-.722h20.219a.723.723,0,0,1,.722.722V27.151a.723.723,0,0,1-.722.722H110.337a.723.723,0,0,1-.722-.722ZM4.333,139.221H27.44v4.333H4.333Zm49.1,0v4.333H31.772v-4.333h6.5a2.166,2.166,0,0,0,2.166-2.166v-6.5H44.77v6.5a2.166,2.166,0,0,0,2.166,2.166Zm-8.665-13H40.438v-4.044H44.77Zm64.844-26.084a.723.723,0,0,1,.722-.722h20.219a.723.723,0,0,1,.722.722v20.219a.723.723,0,0,1-.722.722H110.337a.723.723,0,0,1-.722-.722ZM4.333,44.337V22.385A4.193,4.193,0,0,1,8.521,18.2H76.687a4.193,4.193,0,0,1,4.188,4.188V44.337a4.193,4.193,0,0,1-4.188,4.188H8.521A4.193,4.193,0,0,1,4.333,44.337ZM8.521,83.186A4.193,4.193,0,0,1,4.333,79V57.046a4.193,4.193,0,0,1,4.188-4.188H76.687a4.193,4.193,0,0,1,4.188,4.188V79a4.193,4.193,0,0,1-4.188,4.188ZM121.89,48.381a.723.723,0,0,1,.722-.722h20.219a.723.723,0,0,1,.722.722V68.6a.723.723,0,0,1-.722.722H122.612a.723.723,0,0,1-.722-.722Z" transform="translate(0 0)"/>
      <path id="Path_187" data-name="Path 187" d="M95.711,78H32.166A2.166,2.166,0,0,0,30,80.166V97.5a2.166,2.166,0,0,0,2.166,2.166H95.711A2.166,2.166,0,0,0,97.877,97.5V80.166A2.166,2.166,0,0,0,95.711,78Zm-33.65,4.333v2.744a2.166,2.166,0,0,1-4.333,0V82.333Zm-14.444,0v2.744a2.166,2.166,0,0,1-4.333,0V82.333Zm45.927,13H34.333v-13h4.619v2.744a6.5,6.5,0,0,0,13,0V82.333H53.4v2.744a6.5,6.5,0,0,0,13,0V82.333H93.545Z" transform="translate(-21.335 -55.471)"/>
      <path id="Path_188" data-name="Path 188" d="M95.711,198H32.166A2.166,2.166,0,0,0,30,200.166V217.5a2.166,2.166,0,0,0,2.166,2.166H95.711a2.166,2.166,0,0,0,2.166-2.166v-17.33A2.166,2.166,0,0,0,95.711,198Zm-33.65,4.333v2.744a2.166,2.166,0,0,1-4.333,0v-2.744Zm-14.444,0v2.744a2.166,2.166,0,0,1-4.333,0v-2.744Zm45.927,13H34.333v-13h4.619v2.744a6.5,6.5,0,0,0,13,0v-2.744H53.4v2.744a6.5,6.5,0,0,0,13,0v-2.744H93.545Z" transform="translate(-21.335 -140.81)"/>
      <path id="Path_189" data-name="Path 189" d="M95.711,339.663a2.166,2.166,0,0,0,2.166-2.166v-17.33A2.166,2.166,0,0,0,95.711,318H32.166A2.166,2.166,0,0,0,30,320.166V337.5a2.166,2.166,0,0,0,2.166,2.166Zm-33.65-17.33v2.744a2.166,2.166,0,1,1-4.333,0v-2.744Zm-14.444,0v2.744a2.166,2.166,0,1,1-4.333,0v-2.744Zm-13.285,0h4.619v2.744a6.5,6.5,0,1,0,13,0v-2.744H53.4v2.744a6.5,6.5,0,1,0,13,0v-2.744H93.545v13H34.333Z" transform="translate(-21.335 -226.149)"/>
    </g>
  </g>
</svg>
