<?xml version="1.0" encoding="utf-8"?>
<!-- Generator: Adobe Illustrator 19.0.0, SVG Export Plug-In . SVG Version: 6.00 Build 0)  -->
<svg version="1.1" id="Layer_1" xmlns="http://www.w3.org/2000/svg" xmlns:xlink="http://www.w3.org/1999/xlink" x="0px" y="0px"
	 viewBox="0 0 25.2 25" style="enable-background:new 0 0 25.2 25;" xml:space="preserve">
<style type="text/css">
	.st0{fill:#FFFFFF;}
	.st1{fill:#6ACEF5;}
</style>
<g id="XMLID_1809_">
	<path id="XMLID_1792_" class="st0" d="M17.9,24.3H7.2c-3.5,0-6.4-2.9-6.4-6.4V7.2c0-3.5,2.9-6.4,6.4-6.4h10.7
		c3.5,0,6.4,2.9,6.4,6.4v10.7C24.4,21.4,21.5,24.3,17.9,24.3z"/>
	<g id="XMLID_1754_">
		<path id="XMLID_1755_" class="st1" d="M24.9,12.6c0,2.1,0,4.3,0,6.4c0,3.5-2.4,5.9-5.9,5.9c-2.5,0-5-0.1-7.6-0.1
			c-1.5,0-2.9,0.1-4.4,0.1c-0.7,0-1.3,0-2-0.1c-2.7-0.4-4.7-2.6-4.7-5.3c-0.1-4.6-0.1-9.2,0-13.8c0-3,2.5-5.4,5.6-5.4
			c2.7-0.1,5.3,0,8,0c1.8,0,3.6,0,5.5,0c2.6,0.1,4.6,1.7,5.3,4.1c0.1,0.5,0.2,1,0.2,1.4C24.9,8,24.9,10.3,24.9,12.6
			C24.9,12.6,24.9,12.6,24.9,12.6z M21.4,5.3c-0.6,0.3-1,0.4-1.3,0.5c-0.6,0.3-1.1,0.3-1.7-0.2c-2.2-1.6-5.8-0.5-6.1,3.1
			c0,0.3-0.1,0.6-0.1,0.9C9.1,9.4,6.7,8,4.6,5.8c-0.9,2-0.4,3.6,1.2,5.1c-0.7-0.2-1.1-0.3-1.6-0.4c0,1.5,0.8,2.4,1.9,3.1
			c0.3,0.2,0.7,0.1,0.7,0.6c-0.4,0.1-0.9,0.1-1.3,0.2c0.7,1.4,1.8,2.1,3.3,2.4c-1.3,1.1-2.4,1.5-5.1,1.8c2.9,1.3,5.6,1.9,8.5,1
			c4.5-1.4,6.8-4.7,7.7-9.1c-0.2-1.4,0.5-2.3,1.5-3.2c0.1-0.1,0.2-0.2,0.3-0.4c-0.5,0.1-1,0.2-1.6,0.2C20.6,6.5,21,6,21.4,5.3z"/>
	</g>
</g>
<g id="XMLID_40_">
</g>
<g id="XMLID_41_">
</g>
<g id="XMLID_42_">
</g>
<g id="XMLID_43_">
</g>
<g id="XMLID_44_">
</g>
<g id="XMLID_45_">
</g>
<g id="XMLID_46_">
</g>
<g id="XMLID_47_">
</g>
<g id="XMLID_48_">
</g>
<g id="XMLID_49_">
</g>
<g id="XMLID_50_">
</g>
<g id="XMLID_51_">
</g>
<g id="XMLID_52_">
</g>
<g id="XMLID_53_">
</g>
<g id="XMLID_54_">
</g>
</svg>
