<?xml version="1.0" encoding="utf-8"?>
<!-- Generator: Adobe Illustrator 19.0.0, SVG Export Plug-In . SVG Version: 6.00 Build 0)  -->
<svg version="1.1" id="Layer_1" xmlns="http://www.w3.org/2000/svg" xmlns:xlink="http://www.w3.org/1999/xlink" x="0px" y="0px"
	 viewBox="0 0 25.2 25" style="enable-background:new 0 0 25.2 25;" xml:space="preserve">
<style type="text/css">
	.st0{fill:#FFFFFF;}
	.st1{fill:#ED2A24;}
</style>
<g id="XMLID_1805_">
	<path id="XMLID_1797_" class="st0" d="M17.1,24.2h-9c-3.9,0-7.1-3.2-7.1-7.1V8c0-3.9,3.2-7.1,7.1-7.1h9C21,0.9,24.2,4,24.2,8v9
		C24.2,21,21,24.2,17.1,24.2z"/>
	<g id="XMLID_1749_">
		<path id="XMLID_1751_" class="st1" d="M12.6,0.1c2.2,0,4.4,0,6.7,0c2.1,0,3.7,0.9,4.9,2.7c0.6,0.9,0.8,1.9,0.8,2.9
			c0,4.5,0.1,9,0,13.6c0,3.2-2.7,5.6-5.9,5.5c-1.9-0.1-3.7,0-5.6,0.1c-2.6,0-5.1,0.1-7.7,0c-3.1-0.1-5.4-2.4-5.5-5.6
			c-0.1-4.5-0.1-9,0-13.6c0.1-3.4,2.6-5.5,5.7-5.5c1.1,0,2.2,0,3.3,0C10.4,0.1,11.5,0.1,12.6,0.1L12.6,0.1z M12.5,6c0,0,0,0.1,0,0.1
			c-1.6,0-3.3,0-4.9,0c-0.5,0-1,0.1-1.4,0.1C4.5,6.5,3.8,7.1,3.6,8.7c-0.2,1.6-0.2,3.3-0.2,4.9c0,0.9,0,1.9,0.2,2.8
			c0.3,1.5,1.2,2.3,2.7,2.4c4.2,0.3,8.4,0.3,12.6,0c1.6-0.1,2.7-1.1,2.8-2.7c0.1-2.4,0.1-4.8,0-7.2c-0.1-1.6-1-2.5-2.6-2.7
			C16.9,6.1,14.7,6.1,12.5,6z"/>
		<path id="XMLID_1750_" class="st1" d="M10.7,15.1c0-1.8,0-3.4,0-5.2c1.7,0.8,3.3,1.7,5,2.6C13.9,13.4,12.4,14.2,10.7,15.1z"/>
	</g>
</g>
<g id="XMLID_40_">
</g>
<g id="XMLID_41_">
</g>
<g id="XMLID_42_">
</g>
<g id="XMLID_43_">
</g>
<g id="XMLID_44_">
</g>
<g id="XMLID_45_">
</g>
<g id="XMLID_46_">
</g>
<g id="XMLID_47_">
</g>
<g id="XMLID_48_">
</g>
<g id="XMLID_49_">
</g>
<g id="XMLID_50_">
</g>
<g id="XMLID_51_">
</g>
<g id="XMLID_52_">
</g>
<g id="XMLID_53_">
</g>
<g id="XMLID_54_">
</g>
</svg>
