<?xml version="1.0"?>
<svg xmlns="http://www.w3.org/2000/svg" id="Layer_1" enable-background="new 0 0 512 512" height="512" viewBox="0 0 512 512" width="512"><g><g><path d="m290.112 244.762c-4.953 0-11.064.616-18.318 2.207-18.471 4.049-34.202 12.235-40.196 18.229-6.092 6.092-7.857 15.635-6.51 25.246.544 3.881 5.128 5.654 8.153 3.161 9.914-8.172 17.29-13.119 17.766-13.436 7.352-4.901 17.286-2.915 22.188 4.438 4.899 7.35 2.917 17.278-4.428 22.182-3.673 2.458-8.932 6.342-14.838 11.231-3.087 2.555-2.084 7.507 1.753 8.663 11.811 3.559 24.853 2.715 32.485-4.916 5.994-5.994 14.181-21.726 18.229-40.196 4.232-19.308 1.566-30.519-1.258-33.343-1.764-1.764-6.796-3.466-15.026-3.466z" data-original="#000000" class="active-path" style="fill:#92C62C" data-old_color="#000000"/><path d="m507.516 244.883-225.858-234.142c-.066-.069-.134-.137-.202-.205-14.037-14.037-36.875-14.037-50.912 0-.068.068-.136.136-.202.205l-225.858 234.142c-6.135 6.36-5.952 16.489.407 22.624 6.361 6.135 16.489 5.952 22.624-.408l12.485-12.942v211.834c0 25.364 20.636 46 46 46h340c25.364 0 46-20.636 46-46v-211.834l12.484 12.942c3.14 3.255 7.325 4.893 11.518 4.892 3.998 0 8.002-1.49 11.106-4.484 6.36-6.135 6.542-16.263.408-22.624zm-169.863 43.54c-5.041 22.998-15.333 44.444-26.859 55.971-11.276 11.276-26.412 16.217-41.886 16.218-14.043.001-28.354-4.08-40.336-11.174-2.238-1.325-5.09-.77-6.642 1.317-8.104 10.902-13.871 22.429-13.93 33.073-.048 8.727-7.058 16.047-15.785 16.162-8.935.118-16.215-7.09-16.215-15.998 0-18.56 8.35-38.133 24.849-58.364 1.241-1.521 1.449-3.633.565-5.385-12.511-24.776-12.684-57.431 7.557-77.672 11.526-11.527 32.973-21.819 55.972-26.86 16.215-3.555 45.938-6.996 62.822 9.889 16.884 16.884 13.443 46.607 9.888 62.823z" data-original="#000000" class="active-path" style="fill:#92C62C" data-old_color="#000000"/></g></g> </svg>
