<?xml version="1.0" encoding="utf-8"?>
<!-- Generator: Adobe Illustrator 19.0.0, SVG Export Plug-In . SVG Version: 6.00 Build 0)  -->
<svg version="1.1" id="Capa_1" xmlns="http://www.w3.org/2000/svg" xmlns:xlink="http://www.w3.org/1999/xlink" x="0px" y="0px"
	 viewBox="-223 25 512 512" style="enable-background:new -223 25 512 512;" xml:space="preserve">
<style type="text/css">
	.st0{fill:#92C62C;}
</style>
<g>
	<g>
		<polygon class="st0" points="-27,224.5 -62.7,296 8.7,296 		"/>
	</g>
</g>
<g>
	<g>
		<path class="st0" d="M244,86h-15V55h15c8.3,0,15-6.7,15-15s-6.7-15-15-15h-60c-8.3,0-15,6.7-15,15s6.7,15,15,15h15v31h-91V55h15
			c8.3,0,15-6.7,15-15s-6.7-15-15-15H63c-8.3,0-15,6.7-15,15s6.7,15,15,15h15v31h-90V55H3c8.3,0,15-6.7,15-15S11.3,25,3,25h-60
			c-8.3,0-15,6.7-15,15s6.7,15,15,15h15v31h-91V55h15c8.3,0,15-6.7,15-15s-6.7-15-15-15h-60c-8.3,0-15,6.7-15,15s6.7,15,15,15h15v31
			h-15c-24.8,0-45,20.2-45,45v210c0,24.8,20.2,45,45,45h45v15c0,24.8,20.2,45,45,45h76v76c0,8.3,6.7,15,15,15h60c8.3,0,15-6.7,15-15
			v-76h76c24.8,0,45-20.2,45-45v-15h45c24.8,0,45-20.2,45-45V131C289,106.2,268.8,86,244,86z M-12,416h-76c-8.3,0-15-6.7-15-15v-15
			h91V416z M45.8,318.9C43,323.3,38.2,326,33,326c-3.9,0-156.8,0-180,0c-5.2,0-10-2.7-12.8-7.1c-2.7-4.4-3-9.9-0.7-14.6l60-120
			c5.1-10.2,21.7-10.2,26.8,0l16.6,33.2l16.6-33.2c5.1-10.2,21.7-10.2,26.8,0l60,120C48.7,308.9,48.5,314.5,45.8,318.9z M93,176h61
			c8.3,0,15,6.7,15,15s-6.7,15-15,15H93c-8.3,0-15-6.7-15-15S84.7,176,93,176z M93,236h91c8.3,0,15,6.7,15,15c0,8.3-6.7,15-15,15H93
			c-8.3,0-15-6.7-15-15C78,242.7,84.7,236,93,236z M169,401c0,8.3-6.7,15-15,15H78v-30h91V401z M214,326H93c-8.3,0-15-6.7-15-15
			c0-8.3,6.7-15,15-15h121c8.3,0,15,6.7,15,15S222.3,326,214,326z"/>
	</g>
</g>
<g>
	<g>
		<polygon class="st0" points="-87,224.5 -122.7,296 -96.3,296 -73.8,251 		"/>
	</g>
</g>
</svg>
