<?xml version="1.0"?>
<svg xmlns="http://www.w3.org/2000/svg" id="Layer_1" enable-background="new 0 0 511.508 511.508" height="512" viewBox="0 0 511.508 511.508" width="512" class=""><g><g><path d="m369.754 176.108c0-29.493-23.347-53.607-52.469-54.743-12.5 12.194-28.601 20.696-46.531 23.792v14.843c0 8.284-6.716 15-15 15s-15-6.716-15-15v-14.829c-17.963-3.083-34.094-11.593-46.614-23.806-29.123 1.137-52.469 25.25-52.469 54.743v21.889h228.083z" data-original="#000000" class="active-path" style="fill:#92C62C" data-old_color="#000000"/><ellipse cx="255.712" cy="58.233" rx="58.233" ry="58.233" transform="matrix(.982 -.189 .189 .982 -6.398 49.408)" data-original="#000000" class="active-path" style="fill:#92C62C" data-old_color="#000000"/><path d="m105.754 162.725 12.606-12.607c5.858-5.858 5.858-15.355 0-21.213-5.857-5.858-15.355-5.858-21.213 0l-17 17c-2.813 2.813-4.394 6.628-4.394 10.606v41.485h30v-35.271z" data-original="#000000" class="active-path" style="fill:#92C62C" data-old_color="#000000"/><path d="m55.754 289h399.917c8.284 0 15-6.716 15-15v-31.003c0-8.284-6.716-15-15-15h-399.917c-8.284 0-15 6.716-15 15v31.003c0 8.284 6.716 15 15 15z" data-original="#000000" class="active-path" style="fill:#92C62C" data-old_color="#000000"/><path d="m255.712 478c-19.323 0-36.751-8.232-48.99-21.362-11.459 12.102-18.51 28.419-18.51 46.362v.998c0 4.142 3.357 7.5 7.5 7.5l120 .009h.001c1.989 0 3.896-.79 5.303-2.196 1.407-1.407 2.197-3.314 2.197-5.304v-1.007c0-17.943-7.051-34.26-18.51-46.362-12.24 13.13-29.668 21.362-48.991 21.362z" data-original="#000000" class="active-path" style="fill:#92C62C" data-old_color="#000000"/><ellipse cx="255.712" cy="411" rx="37" ry="37" transform="matrix(.585 -.811 .811 .585 -227.226 378.129)" data-original="#000000" class="active-path" style="fill:#92C62C" data-old_color="#000000"/><path d="m74.754 478c-19.323 0-36.751-8.233-48.99-21.362-11.459 12.103-18.51 28.42-18.51 46.362v1.002c0 1.989.79 3.897 2.197 5.303 1.407 1.407 3.314 2.197 5.304 2.197l120-.004c4.142 0 7.5-3.358 7.5-7.5v-.998c0-17.943-7.051-34.26-18.51-46.362-12.24 13.13-29.668 21.362-48.991 21.362z" data-original="#000000" class="active-path" style="fill:#92C62C" data-old_color="#000000"/><ellipse cx="74.754" cy="411" rx="37" ry="37" transform="matrix(.993 -.122 .122 .993 -49.657 12.213)" data-original="#000000" class="active-path" style="fill:#92C62C" data-old_color="#000000"/><path d="m485.744 456.638c-12.239 13.13-29.667 21.362-48.99 21.362s-36.751-8.232-48.99-21.362c-11.459 12.102-18.51 28.419-18.51 46.362v.997c0 4.142 3.357 7.5 7.5 7.5h120c4.143 0 7.5-3.358 7.5-7.5v-.997c0-17.942-7.051-34.259-18.51-46.362z" data-original="#000000" class="active-path" style="fill:#92C62C" data-old_color="#000000"/><circle cx="436.754" cy="411" r="37" data-original="#000000" class="active-path" style="fill:#92C62C" data-old_color="#000000"/><path d="m405.754 162.725v35.272h30v-41.485c0-3.978-1.58-7.793-4.394-10.606l-17-17c-5.857-5.858-15.355-5.858-21.213 0s-5.858 15.355 0 21.213z" data-original="#000000" class="active-path" style="fill:#92C62C" data-old_color="#000000"/><path d="m369.754 411c0-36.917 30.011-66.953 66.917-66.998v-25.002h-361.917v25c36.944 0 67 30.056 67 67 0 6.522-.954 12.822-2.7 18.787 11.381 10.01 20.427 22.616 26.179 36.894 5.752-14.278 14.797-26.885 26.179-36.894-1.746-5.965-2.7-12.265-2.7-18.787 0-36.944 30.056-67 67-67s67 30.056 67 67c0 6.521-.954 12.821-2.7 18.786 11.409 10.033 20.47 22.676 26.22 36.997 5.75-14.32 14.811-26.963 26.22-36.996-1.744-5.966-2.698-12.265-2.698-18.787z" data-original="#000000" class="active-path" style="fill:#92C62C" data-old_color="#000000"/></g></g> </svg>
