<?xml version="1.0"?>
<svg xmlns="http://www.w3.org/2000/svg" height="512" viewBox="-96 0 448 448" width="512"><g><path d="m72 248h32v32h-32zm0 0" data-original="#000000" class="active-path" style="fill:#92C62C" data-old_color="#000000"/><path d="m145.371094 264 22.628906-22.628906 22.625 22.628906-22.625 22.628906zm0 0" data-original="#000000" class="active-path" style="fill:#92C62C" data-old_color="#000000"/><path d="m152 168h32v32h-32zm0 0" data-original="#000000" class="active-path" style="fill:#92C62C" data-old_color="#000000"/><path d="m256 24c0-13.253906-10.746094-24-24-24h-208c-13.253906 0-24 10.746094-24 24v8h256zm-152 0h-8c-4.417969 0-8-3.582031-8-8s3.582031-8 8-8h8c4.417969 0 8 3.582031 8 8s-3.582031 8-8 8zm56 0h-32c-4.417969 0-8-3.582031-8-8s3.582031-8 8-8h32c4.417969 0 8 3.582031 8 8s-3.582031 8-8 8zm0 0" data-original="#000000" class="active-path" style="fill:#92C62C" data-old_color="#000000"/><path d="m72 168h32v32h-32zm0 0" data-original="#000000" class="active-path" style="fill:#92C62C" data-old_color="#000000"/><path d="m256 48h-256v352h256zm-120 112c0-4.417969 3.582031-8 8-8h48c4.417969 0 8 3.582031 8 8v48c0 4.417969-3.582031 8-8 8h-48c-4.417969 0-8-3.582031-8-8zm-16 128c0 4.417969-3.582031 8-8 8h-48c-4.417969 0-8-3.582031-8-8v-48c0-4.417969 3.582031-8 8-8h48c4.417969 0 8 3.582031 8 8zm0-80c0 4.417969-3.582031 8-8 8h-48c-4.417969 0-8-3.582031-8-8v-48c0-4.417969 3.582031-8 8-8h48c4.417969 0 8 3.582031 8 8zm87.601562 61.65625-33.945312 33.945312c-3.125 3.121094-8.1875 3.121094-11.3125 0l-33.945312-33.945312c-3.121094-3.125-3.121094-8.1875 0-11.3125l33.945312-33.945312c3.125-3.121094 8.1875-3.121094 11.3125 0l33.945312 33.945312c3.121094 3.125 3.121094 8.1875 0 11.3125zm0 0" data-original="#000000" class="active-path" style="fill:#92C62C" data-old_color="#000000"/><path d="m256 416h-256v8c0 13.253906 10.746094 24 24 24h208c13.253906 0 24-10.746094 24-24zm-112 24h-32c-4.417969 0-8-3.582031-8-8s3.582031-8 8-8h32c4.417969 0 8 3.582031 8 8s-3.582031 8-8 8zm0 0" data-original="#000000" class="active-path" style="fill:#92C62C" data-old_color="#000000"/></g> </svg>
