<?xml version="1.0"?>
<svg xmlns="http://www.w3.org/2000/svg" id="Layer_1" enable-background="new 0 0 512 512" height="512" viewBox="0 0 512 512" width="512" class=""><g><g><path d="m413.782 295.016c8.593-.379 15.679 6.476 15.679 14.985v78.202c21.712-5.261 41.342-21.962 56.353-48.334 16.886-29.664 26.186-68.683 26.186-109.869s-9.3-80.205-26.186-109.869c-18.401-32.327-43.742-50.131-71.353-50.131-10.98 0-21.599 2.825-31.568 8.25 13.381 34.726 20.568 75.018 20.568 116.75 0 55.629-12.771 108.7-35.959 149.439-3.213 5.644-6.587 10.982-10.103 16.03 12.38 14.553 26.699 24.011 42.063 27.734v-77.732c-.001-8.103 6.225-15.099 14.32-15.455z" data-original="#000000" class="active-path" style="fill:#92C62C" data-old_color="#000000"/><path d="m211.393 181.669c-5.858-5.858-5.858-15.355 0-21.213 5.857-5.858 15.355-5.858 21.213 0l8.394 8.394v-16.85c0-8.284 6.716-15 15-15s15 6.716 15 15v75.279l23.639-23.639c5.857-5.858 15.355-5.858 21.213 0s5.858 15.355 0 21.213l-44.852 44.852v118.78c27.066-5.509 51.671-25.933 70.43-58.887 20.656-36.288 32.032-84.089 32.032-134.598s-11.377-98.31-32.032-134.598c-22.172-38.951-52.512-60.402-85.43-60.402s-63.257 21.451-85.429 60.402c-20.656 36.288-32.032 84.089-32.032 134.598s11.376 98.31 32.032 134.598c18.758 32.954 43.363 53.378 70.429 58.887v-177.209z" data-original="#000000" class="active-path" style="fill:#92C62C" data-old_color="#000000"/><path d="m497 482h-67.538v-93.797c-4.904 1.188-9.913 1.797-15 1.797s-10.096-.609-15-1.797v93.797h-128.462v-93.515c-4.926 1.003-9.932 1.515-15 1.515s-10.075-.513-15-1.515v93.515h-128.315v-93.797c-4.904 1.188-9.913 1.797-15 1.797s-10.097-.609-15-1.797v93.797h-67.685c-8.284 0-15 6.716-15 15s6.716 15 15 15h482c8.284 0 15-6.716 15-15s-6.716-15-15-15z" data-original="#000000" class="active-path" style="fill:#92C62C" data-old_color="#000000"/><path d="m97.685 295c8.284 0 15 6.716 15 15v78.202c15.331-3.715 29.621-13.141 41.983-27.64-3.54-5.075-6.936-10.445-10.169-16.124-23.189-40.738-35.96-93.81-35.96-149.439 0-41.758 7.197-82.074 20.594-116.814-9.934-5.381-20.511-8.185-31.447-8.185-27.611 0-52.951 17.804-71.353 50.131-16.886 29.664-26.186 68.683-26.186 109.869s9.3 80.205 26.186 109.869c15.011 26.371 34.641 43.073 56.353 48.333v-78.202c-.001-8.284 6.715-15 14.999-15z" data-original="#000000" class="active-path" style="fill:#92C62C" data-old_color="#000000"/></g></g> </svg>
