<?xml version="1.0"?>
<svg xmlns="http://www.w3.org/2000/svg" id="Capa_1" enable-background="new 0 0 512 512" height="512" viewBox="0 0 512 512" width="512" class=""><g><g><path d="m90 422h332v-210h-332zm121-165c0-5.537 3.047-10.62 7.925-13.228s10.781-2.329 15.396.747l90 60c4.175 2.783 6.68 7.471 6.68 12.48s-2.505 9.697-6.68 12.48l-90 60c-4.651 3.101-10.586 3.327-15.396.747-4.878-2.606-7.925-7.689-7.925-13.226z" data-original="#000000" class="active-path" style="fill:#92C62C" data-old_color="#000000"/><path d="m241 285.022v63.956l47.959-31.978z" data-original="#000000" class="active-path" style="fill:#92C62C" data-old_color="#000000"/><path d="m467 122h-422c-24.814 0-45 20.186-45 45v300c0 24.814 20.186 45 45 45h422c24.814 0 45-20.186 45-45v-300c0-24.814-20.186-45-45-45zm-15 315c0 8.291-6.709 15-15 15h-362c-8.291 0-15-6.709-15-15v-240c0-8.291 6.709-15 15-15h362c8.291 0 15 6.709 15 15z" data-original="#000000" class="active-path" style="fill:#92C62C" data-old_color="#000000"/><path d="m365.395 4.395-85.606 85.605h42.422l64.395-64.395c5.859-5.859 5.859-15.352 0-21.211s-15.352-5.859-21.211.001z" data-original="#000000" class="active-path" style="fill:#92C62C" data-old_color="#000000"/><path d="m125.395 4.395c-5.859 5.859-5.859 15.352 0 21.211l64.394 64.394h42.422l-85.606-85.605c-5.859-5.86-15.351-5.86-21.21 0z" data-original="#000000" class="active-path" style="fill:#92C62C" data-old_color="#000000"/></g></g> </svg>
