<?xml version="1.0"?>
<svg xmlns="http://www.w3.org/2000/svg" id="Capa_1" enable-background="new 0 0 512 512" height="512" viewBox="0 0 512 512" width="512"><g><g><path d="m343 355.365 60.332-41.761-60.332-32.491z" data-original="#000000" class="active-path" style="fill:#92C62C" data-old_color="#000000"/><path d="m0 169v257c0 24.813 20.187 45 45 45h422c24.813 0 45-20.187 45-45v-257zm176 230h-96c-8.284 0-15-6.716-15-15s6.716-15 15-15h96c8.284 0 15 6.716 15 15s-6.716 15-15 15zm0-64h-96c-8.284 0-15-6.716-15-15s6.716-15 15-15h96c8.284 0 15 6.716 15 15s-6.716 15-15 15zm0-64h-96c-8.284 0-15-6.716-15-15s6.716-15 15-15h96c8.284 0 15 6.716 15 15s-6.716 15-15 15zm244.411 67.267-60.335 41.771c-5.126 3.548-11.083 5.348-17.066 5.348-4.761 0-9.539-1.139-13.933-3.441-9.917-5.196-16.077-15.378-16.077-26.573v-74.258c0-10.661 5.464-20.289 14.617-25.756 9.153-5.466 20.221-5.712 29.606-.658l60.334 32.488c9.264 4.988 15.144 14.237 15.73 24.742.588 10.503-4.226 20.349-12.876 26.337z" data-original="#000000" class="active-path" style="fill:#92C62C" data-old_color="#000000"/><path d="m467 41h-422c-24.813 0-45 20.187-45 45v53h512v-53c0-24.813-20.187-45-45-45zm-387 64c-8.284 0-15-6.716-15-15s6.716-15 15-15 15 6.716 15 15-6.716 15-15 15zm64 .001c-8.284 0-15-6.716-15-15s6.716-15 15-15 15 6.716 15 15-6.716 15-15 15zm64-.001c-8.284 0-15-6.716-15-15s6.716-15 15-15 15 6.716 15 15-6.716 15-15 15z" data-original="#000000" class="active-path" style="fill:#92C62C" data-old_color="#000000"/></g></g> </svg>
